{
.appVersion = "1237";
copyright = "Copyright 2020 The DM Mono Project Authors (https://www.github.com/googlefonts/dm-mono)";
customParameters = (
{
name = vendorID;
value = CF;
},
{
name = Axes;
value = (
{
Name = Weight;
Tag = wght;
},
{
Name = Italic;
Tag = ital;
}
);
},
{
name = isFixedPitch;
value = 1;
},
{
name = fsType;
value = (
);
},
{
name = license;
value = "This Font Software is licensed under the SIL Open Font License, Version 1.1. This license is available with a FAQ at: http://scripts.sil.org/OFL";
},
{
name = licenseURL;
value = "http://scripts.sil.org/OFL";
},
{
name = unicodeRanges;
value = (
0,
1,
2
);
}
);
date = "2020-03-11 08:57:04 +0000";
designer = "Colophon Foundry";
designerURL = "https://www.colophon-foundry.org";
familyName = "DM Mono";
featurePrefixes = (
{
automatic = 1;
code = "languagesystem DFLT dflt;\012languagesystem latn dflt;\012languagesystem latn ROM;\012languagesystem latn MOL;\012languagesystem latn CAT;\012";
name = Languagesystems;
}
);
features = (
{
automatic = 1;
code = "feature locl;\012feature sups;\012feature frac;\012feature ordn;\012feature salt;\012feature ss01;\012feature ss02;\012feature ss03;\012feature ss04;\012feature ss05;\012";
name = aalt;
},
{
automatic = 1;
code = "lookup ccmp_Other_1 {\012	@CombiningTopAccents = [acutecomb brevecomb caroncomb circumflexcomb commaturnedabovecomb dieresiscomb dotaccentcomb gravecomb hungarumlautcomb macroncomb ringcomb tildecomb];\012	@CombiningNonTopAccents = [cedillacomb ogonekcomb];\012	sub [i]' @CombiningTopAccents by [idotless];\012	sub [i]' @CombiningNonTopAccents @CombiningTopAccents by [idotless];\012} ccmp_Other_1;\012";
name = ccmp;
},
{
automatic = 1;

glyphs = (
{
glyphname = A;
lastChange = "2020-03-04 08:53:31 +0000";
layers = (
{
anchors = (
{
name = bottom;
position = "{300, 0}";
},
{
name = ogonek;
position = "{564, 0}";
},
{
name = top;
position = "{300, 700}";
}
);
layerId = "50E3E9DC-0583-4D82-B33B-3FFFE976497D";
paths = (
{
closed = 1;
nodes = (
"113 0 LINE",
"298 602 LINE",
"302 602 LINE",
"487 0 LINE",
"564 0 LINE",
"340 700 LINE",
"261 700 LINE",
"36 0 LINE"
);
},
{
closed = 1;
nodes = (
"474 178 LINE",
"453 238 LINE",
"147 238 LINE",
"126 178 LINE"
);
}
);
width = 600;
},
{
anchors = (
{
name = bottom;
position = "{300, 0}";
},
{
name = ogonek;
position = "{572, 0}";
},
{
name = top;
position = "{300, 700}";
}
);
layerId = "AE089E19-69A3-44A1-A715-1879E192462D";
paths = (
{
closed = 1;
nodes = (
"143 0 LINE",
"297 550 LINE",
"303 550 LINE",
"457 0 LINE",
"572 0 LINE",
"363 700 LINE",
"237 700 LINE",
"28 0 LINE"
);
},
{
closed = 1;
nodes = (
"496 168 LINE",
"466 253 LINE",
"134 253 LINE",
"104 168 LINE"
);
}
);
width = 600;
}
);
unicode = 0041;
},
{
glyphname = AE;
lastChange = "2020-03-04 08:53:31 +0000";
layers = (
{
anchors = (
{
name = bottom;
position = "{300, 0}";
},
{
name = top;
position = "{390, 700}";
}
);
layerId = "50E3E9DC-0583-4D82-B33B-3FFFE976497D";
paths = (
{
closed = 1;
nodes = (
"81 0 LINE",
"291 636 LINE",
"321 636 LINE",
"321 700 LINE",
"244 700 LINE",
"4 0 LINE"
);
},
{
closed = 1;
nodes = (
"349 178 LINE",
"328 238 LINE",
"117 238 LINE",
"96 178 LINE"
);
},
{
closed = 1;
nodes = (
"588 0 LINE",
"588 64 LINE",
"374 64 LINE",
"374 320 LINE",
"558 320 LINE",
"558 384 LINE",
"374 384 LINE",
"374 636 LINE",
"588 636 LINE",
"588 700 LINE",
"304 700 LINE",
"304 0 LINE"
);
}
);
width = 600;
},
{
anchors = (
{
name = bottom;
position = "{300, 0}";
},
{
name = top;
position = "{384, 700}";
}
);
layerId = "AE089E19-69A3-44A1-A715-1879E192462D";
paths = (
{
closed = 1;
nodes = (
"115 0 LINE",
"287 605 LINE",
"346 605 LINE",
"346 700 LINE",
"215 700 LINE",
"0 0 LINE"
);
},
{
closed = 1;
nodes = (
"365 168 LINE",
"357 253 LINE",
"107 253 LINE",
"77 168 LINE"
);
},
{
closed = 1;
nodes = (
"594 0 LINE",
"594 95 LINE",
"406 95 LINE",
"406 307 LINE",
"564 307 LINE",
"564 401 LINE",
"406 401 LINE",
"406 605 LINE",
"594 605 LINE",
"594 700 LINE",
"300 700 LINE",
"300 0 LINE"
);
}
);
width = 600;
}
);
unicode = 00C6;
},
{
glyphname = B;
lastChange = "2020-03-04 08:53:31 +0000";
layers = (
{
anchors = (
{
name = bottom;
position = "{300, 0}";
},
{
name = top;
position = "{300, 700}";
}
);
layerId = "50E3E9DC-0583-4D82-B33B-3FFFE976497D";
paths = (
{
closed = 1;
nodes = (
"302 0 LINE SMOOTH",
"449 0 OFFCURVE",
"528 86 OFFCURVE",
"528 191 CURVE SMOOTH",
"528 281 OFFCURVE",
"469 338 OFFCURVE",
"405 359 CURVE",
"405 365 LINE",
"458 387 OFFCURVE",
"512 440 OFFCURVE",
"512 523 CURVE SMOOTH",
"512 626 OFFCURVE",
"441 700 OFFCURVE",
"295 700 CURVE SMOOTH",
"73 700 LINE",
"73 0 LINE"
);
},
{
closed = 1;
nodes = (
"143 330 LINE",
"294 330 LINE SMOOTH",
"394 330 OFFCURVE",
"456 280 OFFCURVE",
"456 197 CURVE SMOOTH",
"456 114 OFFCURVE",
"398 64 OFFCURVE",
"297 64 CURVE SMOOTH",
"143 64 LINE"
);
},
{
closed = 1;
nodes = (
"143 636 LINE",
"290 636 LINE SMOOTH",
"391 636 OFFCURVE",
"440 591 OFFCURVE",
"440 516 CURVE SMOOTH",
"440 438 OFFCURVE",
"388 392 OFFCURVE",
"293 392 CURVE SMOOTH",
"143 392 LINE"
);
}
);
width = 600;
},
{
anchors = (
{
name = bottom;
position = "{300, 0}";
},
{
name = top;
position = "{300, 700}";
}
);
layerId = "AE089E19-69A3-44A1-A715-1879E192462D";
paths = (
{
closed = 1;
nodes = (
"314 0 LINE SMOOTH",
"461 0 OFFCURVE",
"543 86 OFFCURVE",
"543 195 CURVE SMOOTH",
"543 283 OFFCURVE",
"488 336 OFFCURVE",
"421 360 CURVE",
"421 367 LINE",
"477 389 OFFCURVE",
"527 440 OFFCURVE",
"527 521 CURVE SMOOTH",
"527 626 OFFCURVE",
"451 700 OFFCURVE",
"306 700 CURVE SMOOTH",
"56 700 LINE",
"56 0 LINE"
);
},
{
closed = 1;
nodes = (
"162 318 LINE",
"298 318 LINE SMOOTH",
"382 318 OFFCURVE",
"435 279 OFFCURVE",
"435 208 CURVE SMOOTH",
"435 136 OFFCURVE",
"386 98 OFFCURVE",
"300 98 CURVE SMOOTH",
"162 98 LINE"
);
},
{
closed = 1;
nodes = (
"162 606 LINE",
"291 606 LINE SMOOTH",
"376 606 OFFCURVE",
"418 572 OFFCURVE",
"418 507 CURVE SMOOTH",
"418 440 OFFCURVE",
"374 408 OFFCURVE",
"293 408 CURVE SMOOTH",
"162 408 LINE"
);
}
);
width = 600;
}
);
unicode = 0042;
},
{
glyphname = C;
lastChange = "2020-03-04 08:53:31 +0000";
layers = (
{
anchors = (
{
name = bottom;
position = "{306, 0}";
},
{
name = top;
position = "{306, 700}";
}
);
background = {
components = (
{
name = O;
}
);
};
layerId = "50E3E9DC-0583-4D82-B33B-3FFFE976497D";
paths = (
{
closed = 1;
nodes = (
"447 -12 OFFCURVE",
"533 68 OFFCURVE",
"554 198 CURVE",
"476 198 LINE",
"463 114 OFFCURVE",
"408 54 OFFCURVE",
"307 54 CURVE SMOOTH",
"184 54 OFFCURVE",
"107 165 OFFCURVE",
"107 350 CURVE SMOOTH",
"107 535 OFFCURVE",
"184 646 OFFCURVE",
"307 646 CURVE SMOOTH",
"403 646 OFFCURVE",
"462 582 OFFCURVE",
"476 500 CURVE",
"554 500 LINE",
"538 628 OFFCURVE",
"447 712 OFFCURVE",
"307 712 CURVE SMOOTH",
"140 712 OFFCURVE",
"35 571 OFFCURVE",
"35 350 CURVE SMOOTH",
"35 129 OFFCURVE",
"140 -12 OFFCURVE",
"307 -12 CURVE SMOOTH"
);
}
);
width = 600;
},
{
anchors = (
{
name = bottom;
position = "{302, 0}";
},
{
name = top;
position = "{302, 700}";
}
);
layerId = "AE089E19-69A3-44A1-A715-1879E192462D";
paths = (
{
closed = 1;
nodes = (
"451 -12 OFFCURVE",
"538 72 OFFCURVE",
"560 210 CURVE",
"443 210 LINE",
"429 136 OFFCURVE",
"386 88 OFFCURVE",
"301 88 CURVE SMOOTH",
"196 88 OFFCURVE",
"134 186 OFFCURVE",
"134 349 CURVE SMOOTH",
"134 513 OFFCURVE",
"196 612 OFFCURVE",
"301 612 CURVE SMOOTH",
"383 612 OFFCURVE",
"431 557 OFFCURVE",
"443 484 CURVE",
"560 484 LINE",
"545 624 OFFCURVE",
"453 712 OFFCURVE",
"302 712 CURVE SMOOTH",
"127 712 OFFCURVE",
"26 566 OFFCURVE",
"26 349 CURVE SMOOTH",
"26 133 OFFCURVE",
"126 -12 OFFCURVE",
"302 -12 CURVE SMOOTH"
);
}
);
width = 600;
}
);
unicode = 0043;
},
{
glyphname = D;
lastChange = "2020-03-04 08:53:31 +0000";
layers = (
{
anchors = (
{
name = bottom;
position = "{312, 0}";
},
{
name = center;
position = "{312, 350}";
},
{
name = top;
position = "{212, 700}";
}
);
layerId = "50E3E9DC-0583-4D82-B33B-3FFFE976497D";
paths = (
{
closed = 1;
nodes = (
"205 0 LINE SMOOTH",
"438 0 OFFCURVE",
"545 134 OFFCURVE",
"545 350 CURVE SMOOTH",
"545 566 OFFCURVE",
"438 700 OFFCURVE",
"205 700 CURVE SMOOTH",
"72 700 LINE",
"72 0 LINE"
);
},
{
closed = 1;
nodes = (
"142 636 LINE",
"205 636 LINE SMOOTH",
"402 636 OFFCURVE",
"473 524 OFFCURVE",
"473 350 CURVE SMOOTH",
"473 176 OFFCURVE",
"402 64 OFFCURVE",
"205 64 CURVE SMOOTH",
"142 64 LINE"
);
}
);
width = 600;
},
{
anchors = (
{
name = bottom;
position = "{317, 0}";
},
{
name = center;
position = "{317, 350}";
},
{
name = top;
position = "{217, 700}";
}
);
layerId = "AE089E19-69A3-44A1-A715-1879E192462D";
paths = (
{
closed = 1;
nodes = (
"225 0 LINE SMOOTH",
"450 0 OFFCURVE",
"558 133 OFFCURVE",
"558 350 CURVE SMOOTH",
"558 567 OFFCURVE",
"450 700 OFFCURVE",
"225 700 CURVE SMOOTH",
"57 700 LINE",
"57 0 LINE"
);
},
{
closed = 1;
nodes = (
"163 602 LINE",
"221 602 LINE SMOOTH",
"384 602 OFFCURVE",
"451 503 OFFCURVE",
"451 350 CURVE SMOOTH",
"451 197 OFFCURVE",
"384 98 OFFCURVE",
"221 98 CURVE SMOOTH",
"163 98 LINE"
);
}
);
width = 600;
}
);
unicode = 0044;
},
{
glyphname = Eth;
lastChange = "2020-03-04 08:53:31 +0000";
layers = (
{
layerId = "50E3E9DC-0583-4D82-B33B-3FFFE976497D";
paths = (
{
closed = 1;
nodes = (
"205 0 LINE SMOOTH",
"438 0 OFFCURVE",
"545 134 OFFCURVE",
"545 350 CURVE SMOOTH",
"545 566 OFFCURVE",
"438 700 OFFCURVE",
"205 700 CURVE SMOOTH",
"92 700 LINE",
"92 0 LINE"
);
},
{
closed = 1;
nodes = (
"309 319 LINE",
"309 381 LINE",
"9 381 LINE",
"9 319 LINE"
);
},
{
closed = 1;
nodes = (
"162 636 LINE",
"205 636 LINE SMOOTH",
"402 636 OFFCURVE",
"473 524 OFFCURVE",
"473 350 CURVE SMOOTH",
"473 176 OFFCURVE",
"402 64 OFFCURVE",
"205 64 CURVE SMOOTH",
"162 64 LINE"
);
}
);
width = 600;
},
{
layerId = "AE089E19-69A3-44A1-A715-1879E192462D";
paths = (
{
closed = 1;
nodes = (
"225 0 LINE SMOOTH",
"450 0 OFFCURVE",
"558 133 OFFCURVE",
"558 350 CURVE SMOOTH",
"558 567 OFFCURVE",
"450 700 OFFCURVE",
"225 700 CURVE SMOOTH",
"77 700 LINE",
"77 0 LINE"
);
},
{
closed = 1;
nodes = (
"320 305 LINE",
"320 395 LINE",
"5 395 LINE",
"5 305 LINE"
);
},
{
closed = 1;
nodes = (
"183 602 LINE",
"221 602 LINE SMOOTH",
"384 602 OFFCURVE",
"451 503 OFFCURVE",
"451 350 CURVE SMOOTH",
"451 197 OFFCURVE",
"384 98 OFFCURVE",
"221 98 CURVE SMOOTH",
"183 98 LINE"
);
}
);
width = 600;
}
);
unicode = 00D0;
},
{
glyphname = E;
lastChange = "2020-03-04 08:53:31 +0000";
layers = (
{
anchors = (
{
name = bottom;
position = "{305, 0}";
},
{
name = ogonek;
position = "{520, 0}";
},
{
name = top;
position = "{305, 700}";
},
{
name = topleft;
position = "{28, 700}";
}
);
layerId = "50E3E9DC-0583-4D82-B33B-3FFFE976497D";
paths = (
{
closed = 1;
nodes = (
"520 0 LINE",
"520 64 LINE",
"159 64 LINE",
"159 320 LINE",
"490 320 LINE",
"490 384 LINE",
"159 384 LINE",
"159 636 LINE",
"520 636 LINE",
"520 700 LINE",
"89 700 LINE",
"89 0 LINE"
);
}
);
width = 600;
},
{
anchors = (
{
name = bottom;
position = "{304, 0}";
},
{
name = ogonek;
position = "{527, 0}";
},
{
name = top;
position = "{304, 700}";
},
{
name = topleft;
position = "{23, 700}";
}
);
layerId = "AE089E19-69A3-44A1-A715-1879E192462D";
paths = (
{
closed = 1;
nodes = (
"527 0 LINE",
"527 95 LINE",
"186 95 LINE",
"186 307 LINE",
"497 307 LINE",
"497 401 LINE",
"186 401 LINE",
"186 605 LINE",
"527 605 LINE",
"527 700 LINE",
"80 700 LINE",
"80 0 LINE"
);
}
);
width = 600;
}
);
unicode = 0045;
},
{
glyphname = F;
lastChange = "2020-03-04 08:53:31 +0000";
layers = (
{
anchors = (
{
name = bottom;
position = "{300, 0}";
},
{
name = top;
position = "{300, 700}";
}
);
layerId = "50E3E9DC-0583-4D82-B33B-3FFFE976497D";
paths = (
{
closed = 1;
nodes = (
"166 0 LINE",
"166 309 LINE",
"476 309 LINE",
"476 373 LINE",
"166 373 LINE",
"166 636 LINE",
"524 636 LINE",
"524 700 LINE",
"96 700 LINE",
"96 0 LINE"
);
}
);
width = 600;
},
{
anchors = (
{
name = bottom;
position = "{300, 0}";
},
{
name = top;
position = "{300, 700}";
}
);
layerId = "AE089E19-69A3-44A1-A715-1879E192462D";
paths = (
{
closed = 1;
nodes = (
"190 0 LINE",
"190 294 LINE",
"478 294 LINE",
"478 387 LINE",
"190 387 LINE",
"190 601 LINE",
"533 601 LINE",
"533 700 LINE",
"84 700 LINE",
"84 0 LINE"
);
}
);
width = 600;
}
);
unicode = 0046;
},
{
glyphname = G;
lastChange = "2020-03-04 08:53:31 +0000";
layers = (
{
anchors = (
{
name = bottom;
position = "{300, 0}";
},
{
name = top;
position = "{310, 700}";
}
);
layerId = "50E3E9DC-0583-4D82-B33B-3FFFE976497D";
paths = (
{
closed = 1;
nodes = (
"391 -12 OFFCURVE",
"447 36 OFFCURVE",
"475 114 CURVE",
"479 114 LINE",
"485 0 LINE",
"549 0 LINE",
"549 361 LINE",
"314 361 LINE",
"314 299 LINE",
"477 299 LINE",
"473 180 OFFCURVE",
"419 54 OFFCURVE",
"300 54 CURVE SMOOTH",
"191 54 OFFCURVE",
"115 164 OFFCURVE",
"115 350 CURVE SMOOTH",
"115 536 OFFCURVE",
"191 646 OFFCURVE",
"310 646 CURVE SMOOTH",
"397 646 OFFCURVE",
"449 585 OFFCURVE",
"462 500 CURVE",
"540 500 LINE",
"528 627 OFFCURVE",
"438 712 OFFCURVE",
"310 712 CURVE SMOOTH",
"150 712 OFFCURVE",
"43 578 OFFCURVE",
"43 350 CURVE SMOOTH",
"43 122 OFFCURVE",
"149 -12 OFFCURVE",
"295 -12 CURVE SMOOTH"
);
}
);
width = 600;
},
{
anchors = (
{
name = bottom;
position = "{300, 0}";
},
{
name = top;
position = "{304, 700}";
}
);
layerId = "AE089E19-69A3-44A1-A715-1879E192462D";
paths = (
{
closed = 1;
nodes = (
"377 -12 OFFCURVE",
"421 32 OFFCURVE",
"448 94 CURVE",
"454 94 LINE",
"461 0 LINE",
"559 0 LINE",
"559 376 LINE",
"305 376 LINE",
"305 288 LINE",
"452 288 LINE",
"444 186 OFFCURVE",
"399 88 OFFCURVE",
"301 88 CURVE SMOOTH",
"203 88 OFFCURVE",
"137 180 OFFCURVE",
"137 350 CURVE SMOOTH",
"137 513 OFFCURVE",
"196 612 OFFCURVE",
"304 612 CURVE SMOOTH",
"374 612 OFFCURVE",
"421 566 OFFCURVE",
"434 494 CURVE",
"549 494 LINE",
"530 633 OFFCURVE",
"443 712 OFFCURVE",
"304 712 CURVE SMOOTH",
"132 712 OFFCURVE",
"29 567 OFFCURVE",
"29 350 CURVE SMOOTH",
"29 128 OFFCURVE",
"135 -12 OFFCURVE",
"291 -12 CURVE SMOOTH"
);
}
);
width = 600;
}
);
unicode = 0047;
},
{
glyphname = H;
lastChange = "2020-03-04 08:53:31 +0000";
layers = (
{
anchors = (
{
name = bottom;
position = "{300, 0}";
},
{
name = center;
position = "{300, 350}";
},
{
name = top;
position = "{300, 700}";
},
{
name = topleft;
position = "{20, 700}";
}
);
layerId = "50E3E9DC-0583-4D82-B33B-3FFFE976497D";
paths = (
{
closed = 1;
nodes = (
"550 0 LINE",
"550 700 LINE",
"480 700 LINE",
"480 0 LINE"
);
},
{
closed = 1;
nodes = (
"120 0 LINE",
"120 700 LINE",
"50 700 LINE",
"50 0 LINE"
);
},
{
closed = 1;
nodes = (
"500 327 LINE",
"500 391 LINE",
"104 391 LINE",
"104 327 LINE"
);
}
);
width = 600;
},
{
anchors = (
{
name = bottom;
position = "{300, 0}";
},
{
name = center;
position = "{300, 350}";
},
{
name = top;
position = "{300, 700}";
},
{
name = topleft;
position = "{20, 700}";
}
);
layerId = "AE089E19-69A3-44A1-A715-1879E192462D";
paths = (
{
closed = 1;
nodes = (
"559 0 LINE",
"559 700 LINE",
"453 700 LINE",
"453 0 LINE"
);
},
{
closed = 1;
nodes = (
"147 0 LINE",
"147 700 LINE",
"41 700 LINE",
"41 0 LINE"
);
},
{
closed = 1;
nodes = (
"474 313 LINE",
"474 410 LINE",
"130 410 LINE",
"130 313 LINE"
);
}
);
width = 600;
}
);
unicode = 0048;
},
{
glyphname = I;
lastChange = "2020-03-04 08:53:31 +0000";
layers = (
{
anchors = (
{
name = bottom;
position = "{300, 0}";
},
{
name = ogonek;
position = "{499, 0}";
},
{
name = top;
position = "{300, 700}";
},
{
name = topleft;
position = "{20, 700}";
}
);
layerId = "50E3E9DC-0583-4D82-B33B-3FFFE976497D";
paths = (
{
closed = 1;
nodes = (
"335 0 LINE",
"335 700 LINE",
"265 700 LINE",
"265 0 LINE"
);
},
{
closed = 1;
nodes = (
"499 0 LINE",
"499 60 LINE",
"101 60 LINE",
"101 0 LINE"
);
},
{
closed = 1;
nodes = (
"499 640 LINE",
"499 700 LINE",
"101 700 LINE",
"101 640 LINE"
);
}
);
width = 600;
},
{
anchors = (
{
name = bottom;
position = "{300, 0}";
},
{
name = ogonek;
position = "{505, 0}";
},
{
name = top;
position = "{300, 700}";
},
{
name = topleft;
position = "{20, 700}";
}
);
layerId = "AE089E19-69A3-44A1-A715-1879E192462D";
paths = (
{
closed = 1;
nodes = (
"353 0 LINE",
"353 700 LINE",
"247 700 LINE",
"247 0 LINE"
);
},
{
closed = 1;
nodes = (
"505 0 LINE",
"505 94 LINE",
"95 94 LINE",
"95 0 LINE"
);
},
{
closed = 1;
nodes = (
"503 606 LINE",
"503 700 LINE",
"97 700 LINE",
"97 606 LINE"
);
}
);
width = 600;
}
);
unicode = 0049;
},
{
glyphname = J;
lastChange = "2020-03-04 08:53:31 +0000";
layers = (
{
anchors = (
{
name = bottom;
position = "{306, 0}";
},
{
name = top;
position = "{472, 700}";
}
);
layerId = "50E3E9DC-0583-4D82-B33B-3FFFE976497D";
paths = (
{
closed = 1;
nodes = (
"435 -12 OFFCURVE",
"507 64 OFFCURVE",
"507 202 CURVE SMOOTH",
"507 700 LINE",
"437 700 LINE",
"437 202 LINE SMOOTH",
"437 117 OFFCURVE",
"401 54 OFFCURVE",
"307 54 CURVE SMOOTH",
"213 54 OFFCURVE",
"173 122 OFFCURVE",
"172 203 CURVE",
"101 203 LINE",
"101 69 OFFCURVE",
"174 -12 OFFCURVE",
"307 -12 CURVE SMOOTH"
);
}
);
width = 600;
},
{
anchors = (
{
name = bottom;
position = "{307, 0}";
},
{
name = top;
position = "{471, 700}";
}
);
layerId = "AE089E19-69A3-44A1-A715-1879E192462D";
paths = (
{
closed = 1;
nodes = (
"444 -12 OFFCURVE",
"524 69 OFFCURVE",
"524 213 CURVE SMOOTH",
"524 700 LINE",
"418 700 LINE",
"418 213 LINE SMOOTH",
"418 139 OFFCURVE",
"386 84 OFFCURVE",
"308 84 CURVE SMOOTH",
"227 84 OFFCURVE",
"193 141 OFFCURVE",
"192 215 CURVE",
"85 215 LINE",
"85 73 OFFCURVE",
"165 -12 OFFCURVE",
"309 -12 CURVE SMOOTH"
);
}
);
width = 600;
}
);
unicode = 004A;
},
{
glyphname = K;
lastChange = "2020-03-04 08:53:31 +0000";
layers = (
{
anchors = (
{
name = bottom;
position = "{300, 0}";
},
{
name = top;
position = "{300, 700}";
}
);
layerId = "50E3E9DC-0583-4D82-B33B-3FFFE976497D";
paths = (
{
closed = 1;
nodes = (
"541 0 LINE",
"229 348 LINE",
"229 352 LINE",
"538 700 LINE",
"447 700 LINE",
"135 347 LINE",
"447 0 LINE"
);
},
{
closed = 1;
nodes = (
"155 0 LINE",
"155 700 LINE",
"85 700 LINE",
"85 0 LINE"
);
}
);
width = 600;
},
{
anchors = (
{
name = bottom;
position = "{300, 0}";
},
{
name = top;
position = "{300, 700}";
}
);
layerId = "AE089E19-69A3-44A1-A715-1879E192462D";
paths = (
{
closed = 1;
nodes = (
"567 0 LINE",
"287 347 LINE",
"287 353 LINE",
"561 700 LINE",
"430 700 LINE",
"156 347 LINE",
"433 0 LINE"
);
},
{
closed = 1;
nodes = (
"182 0 LINE",
"182 700 LINE",
"76 700 LINE",
"76 0 LINE"
);
}
);
width = 600;
}
);
unicode = 004B;
},
{
glyphname = L;
lastChange = "2020-03-04 08:53:31 +0000";
layers = (
{
anchors = (
{
name = bottom;
position = "{306, 0}";
},
{
name = center;
position = "{300, 350}";
},
{
name = top;
position = "{126, 700}";
},
{
name = topright;
position = "{318, 476}";
}
);
layerId = "50E3E9DC-0583-4D82-B33B-3FFFE976497D";
paths = (
{
closed = 1;
nodes = (
"522 0 LINE",
"522 64 LINE",
"161 64 LINE",
"161 700 LINE",
"91 700 LINE",
"91 0 LINE"
);
}
);
width = 600;
},
{
anchors = (
{
name = bottom;
position = "{307, 0}";
},
{
name = center;
position = "{300, 350}";
},
{
name = top;
position = "{134, 700}";
},
{
name = topright;
position = "{327, 476}";
}
);
layerId = "AE089E19-69A3-44A1-A715-1879E192462D";
paths = (
{
closed = 1;
nodes = (
"532 0 LINE",
"532 95 LINE",
"187 95 LINE",
"187 700 LINE",
"81 700 LINE",
"81 0 LINE"
);
}
);
width = 600;
}
);
unicode = 004C;
},
{
glyphname = Ldot;
lastChange = "2020-03-04 08:53:31 +0000";
layers = (
{
components = (
{
name = L;
}
);
layerId = "50E3E9DC-0583-4D82-B33B-3FFFE976497D";
paths = (
{
closed = 1;
nodes = (
"476 284 OFFCURVE",
"506 314 OFFCURVE",
"506 350 CURVE SMOOTH",
"506 386 OFFCURVE",
"476 416 OFFCURVE",
"440 416 CURVE SMOOTH",
"404 416 OFFCURVE",
"374 386 OFFCURVE",
"374 350 CURVE SMOOTH",
"374 314 OFFCURVE",
"404 284 OFFCURVE",
"440 284 CURVE SMOOTH"
);
}
);
width = 600;
},
{
components = (
{
alignment = -1;
name = L;
}
);
layerId = "AE089E19-69A3-44A1-A715-1879E192462D";
paths = (
{
closed = 1;
nodes = (
"480 269 OFFCURVE",
"516 304 OFFCURVE",
"516 347 CURVE SMOOTH",
"516 391 OFFCURVE",
"480 425 OFFCURVE",
"433 425 CURVE SMOOTH",
"387 425 OFFCURVE",
"351 391 OFFCURVE",
"351 347 CURVE SMOOTH",
"351 304 OFFCURVE",
"387 269 OFFCURVE",
"433 269 CURVE SMOOTH"
);
}
);
width = 600;
}
);
unicode = 013F;
},
{
glyphname = Lslash;
lastChange = "2020-03-04 08:53:31 +0000";
layers = (
{
components = (
{
name = L;
transform = "{1, 0, 0, 1, 26, 0}";
}
);
layerId = "50E3E9DC-0583-4D82-B33B-3FFFE976497D";
paths = (
{
closed = 1;
nodes = (
"321 332 LINE",
"321 394 LINE",
"20 274 LINE",
"20 212 LINE"
);
}
);
width = 600;
},
{
components = (
{
alignment = -1;
name = L;
transform = "{1, 0, 0, 1, 25, 0}";
}
);
layerId = "AE089E19-69A3-44A1-A715-1879E192462D";
paths = (
{
closed = 1;
nodes = (
"340 327 LINE",
"340 419 LINE",
"20 291 LINE",
"20 199 LINE"
);
}
);
width = 600;
}
);
unicode = 0141;
},
{
glyphname = M;
lastChange = "2020-03-04 08:53:31 +0000";
layers = (
{
anchors = (
{
name = bottom;
position = "{300, 0}";
},
{
name = top;
position = "{300, 700}";
}
);
layerId = "50E3E9DC-0583-4D82-B33B-3FFFE976497D";
paths = (
{
closed = 1;
nodes = (
"124 0 LINE",
"124 562 LINE",
"274 260 LINE",
"326 260 LINE",
"476 563 LINE",
"476 0 LINE",
"546 0 LINE",
"546 700 LINE",
"469 700 LINE",
"300 356 LINE",
"130 700 LINE",
"54 700 LINE",
"54 0 LINE"
);
}
);
width = 600;
},
{
anchors = (
{
name = bottom;
position = "{300, 0}";
},
{
name = top;
position = "{300, 700}";
}
);
layerId = "AE089E19-69A3-44A1-A715-1879E192462D";
paths = (
{
closed = 1;
nodes = (
"144 0 LINE",
"144 497 LINE",
"258 248 LINE",
"342 248 LINE",
"456 498 LINE",
"456 0 LINE",
"557 0 LINE",
"557 700 LINE",
"445 700 LINE",
"300 384 LINE",
"155 700 LINE",
"43 700 LINE",
"43 0 LINE"
);
}
);
width = 600;
}
);
unicode = 004D;
},
{
glyphname = N;
lastChange = "2020-03-04 08:53:31 +0000";
layers = (
{
anchors = (
{
name = bottom;
position = "{300, 0}";
},
{
name = top;
position = "{300, 700}";
}
);
layerId = "50E3E9DC-0583-4D82-B33B-3FFFE976497D";
paths = (
{
closed = 1;
nodes = (
"130 0 LINE",
"130 579 LINE",
"464 0 LINE",
"540 0 LINE",
"540 700 LINE",
"470 700 LINE",
"470 122 LINE",
"136 700 LINE",
"60 700 LINE",
"60 0 LINE"
);
}
);
width = 600;
},
{
anchors = (
{
name = bottom;
position = "{300, 0}";
},
{
name = top;
position = "{300, 700}";
}
);
layerId = "AE089E19-69A3-44A1-A715-1879E192462D";
paths = (
{
closed = 1;
nodes = (
"152 0 LINE",
"152 513 LINE",
"445 0 LINE",
"549 0 LINE",
"549 700 LINE",
"448 700 LINE",
"448 187 LINE",
"155 700 LINE",
"51 700 LINE",
"51 0 LINE"
);
}
);
width = 600;
}
);
unicode = 004E;
},
{
glyphname = O;
lastChange = "2020-03-04 08:53:31 +0000";
layers = (
{
anchors = (
{
name = bottom;
position = "{300, 0}";
},
{
name = center;
position = "{300, 350}";
},
{
name = ogonek;
position = "{380, 0}";
},
{
name = top;
position = "{300, 700}";
},
{
name = topleft;
position = "{20, 700}";
},
{
name = topright;
position = "{580, 700}";
}
);
layerId = "50E3E9DC-0583-4D82-B33B-3FFFE976497D";
paths = (
{
closed = 1;
nodes = (
"469 -12 OFFCURVE",
"570 135 OFFCURVE",
"570 350 CURVE SMOOTH",
"570 564 OFFCURVE",
"469 712 OFFCURVE",
"300 712 CURVE SMOOTH",
"131 712 OFFCURVE",
"30 564 OFFCURVE",
"30 350 CURVE SMOOTH",
"30 135 OFFCURVE",
"131 -12 OFFCURVE",
"300 -12 CURVE SMOOTH"
);
},
{
closed = 1;
nodes = (
"182 54 OFFCURVE",
"102 162 OFFCURVE",
"102 350 CURVE SMOOTH",
"102 538 OFFCURVE",
"182 646 OFFCURVE",
"300 646 CURVE SMOOTH",
"418 646 OFFCURVE",
"498 538 OFFCURVE",
"498 350 CURVE SMOOTH",
"498 162 OFFCURVE",
"418 54 OFFCURVE",
"300 54 CURVE SMOOTH"
);
}
);
width = 600;
},
{
anchors = (
{
name = bottom;
position = "{300, 0}";
},
{
name = center;
position = "{300, 350}";
},
{
name = ogonek;
position = "{384, 0}";
},
{
name = top;
position = "{300, 700}";
},
{
name = topleft;
position = "{20, 700}";
},
{
name = topright;
position = "{580, 700}";
}
);
layerId = "AE089E19-69A3-44A1-A715-1879E192462D";
paths = (
{
closed = 1;
nodes = (
"471 -12 OFFCURVE",
"575 126 OFFCURVE",
"575 350 CURVE SMOOTH",
"575 573 OFFCURVE",
"471 712 OFFCURVE",
"300 712 CURVE SMOOTH",
"129 712 OFFCURVE",
"25 573 OFFCURVE",
"25 350 CURVE SMOOTH",
"25 126 OFFCURVE",
"129 -12 OFFCURVE",
"300 -12 CURVE SMOOTH"
);
},
{
closed = 1;
nodes = (
"199 88 OFFCURVE",
"133 181 OFFCURVE",
"133 350 CURVE SMOOTH",
"133 519 OFFCURVE",
"199 612 OFFCURVE",
"300 612 CURVE SMOOTH",
"400 612 OFFCURVE",
"467 519 OFFCURVE",
"467 350 CURVE SMOOTH",
"467 181 OFFCURVE",
"400 88 OFFCURVE",
"300 88 CURVE SMOOTH"
);
}
);
width = 600;
}
);
unicode = 004F;
},
{
glyphname = Oslash;
lastChange = "2020-03-04 08:53:31 +0000";
layers = (
{
components = (
{
name = O;
}
);
layerId = "50E3E9DC-0583-4D82-B33B-3FFFE976497D";
paths = (
{
closed = 1;
nodes = (
"105 -20 LINE",
"572 720 LINE",
"497 720 LINE",
"29 -20 LINE"
);
}
);
width = 600;
},
{
components = (
{
alignment = -1;
name = O;
}
);
layerId = "AE089E19-69A3-44A1-A715-1879E192462D";
paths = (
{
closed = 1;
nodes = (
"124 -20 LINE",
"578 720 LINE",
"477 720 LINE",
"23 -20 LINE"
);
}
);
width = 600;
}
);
unicode = 00D8;
},
{
glyphname = OE;
lastChange = "2020-03-04 08:53:31 +0000";
layers = (
{
anchors = (
{
name = bottom;
position = "{300, 0}";
},
{
name = top;
position = "{300, 700}";
}
);
layerId = "50E3E9DC-0583-4D82-B33B-3FFFE976497D";
paths = (
{
closed = 1;
nodes = (
"257 -12 OFFCURVE",
"290 19 OFFCURVE",
"313 73 CURVE",
"317 73 LINE",
"317 0 LINE",
"588 0 LINE",
"588 64 LINE",
"387 64 LINE",
"387 320 LINE",
"558 320 LINE",
"558 384 LINE",
"387 384 LINE",
"387 636 LINE",
"588 636 LINE",
"588 700 LINE",
"317 700 LINE",
"317 638 LINE",
"313 638 LINE",
"289 690 OFFCURVE",
"248 712 OFFCURVE",
"195 712 CURVE SMOOTH",
"95 712 OFFCURVE",
"23 609 OFFCURVE",
"23 350 CURVE SMOOTH",
"23 91 OFFCURVE",
"95 -12 OFFCURVE",
"195 -12 CURVE SMOOTH"
);
},
{
closed = 1;
nodes = (
"131 53 OFFCURVE",
"95 138 OFFCURVE",
"95 350 CURVE SMOOTH",
"95 562 OFFCURVE",
"131 646 OFFCURVE",
"205 646 CURVE SMOOTH",
"279 646 OFFCURVE",
"321 562 OFFCURVE",
"321 350 CURVE SMOOTH",
"321 138 OFFCURVE",
"279 53 OFFCURVE",
"205 53 CURVE SMOOTH"
);
}
);
width = 600;
},
{
anchors = (
{
name = bottom;
position = "{312, 0}";
},
{
name = top;
position = "{312, 700}";
}
);
layerId = "AE089E19-69A3-44A1-A715-1879E192462D";
paths = (
{
closed = 1;
nodes = (
"253 -12 OFFCURVE",
"280 11 OFFCURVE",
"304 54 CURVE",
"310 54 LINE",
"310 0 LINE",
"593 0 LINE",
"593 95 LINE",
"413 95 LINE",
"413 307 LINE",
"563 307 LINE",
"563 401 LINE",
"413 401 LINE",
"413 605 LINE",
"593 605 LINE",
"593 700 LINE",
"310 700 LINE",
"310 650 LINE",
"304 650 LINE",
"279 692 OFFCURVE",
"247 712 OFFCURVE",
"200 712 CURVE SMOOTH",
"88 712 OFFCURVE",
"17 607 OFFCURVE",
"17 350 CURVE SMOOTH",
"17 93 OFFCURVE",
"86 -12 OFFCURVE",
"199 -12 CURVE SMOOTH"
);
},
{
closed = 1;
nodes = (
"154 81 OFFCURVE",
"119 150 OFFCURVE",
"119 350 CURVE SMOOTH",
"119 550 OFFCURVE",
"154 619 OFFCURVE",
"214 619 CURVE SMOOTH",
"275 619 OFFCURVE",
"315 550 OFFCURVE",
"315 350 CURVE SMOOTH",
"315 150 OFFCURVE",
"275 81 OFFCURVE",
"214 81 CURVE SMOOTH"
);
}
);
width = 600;
}
);
unicode = 0152;
},
{
glyphname = P;
lastChange = "2020-03-04 08:53:31 +0000";
layers = (
{
anchors = (
{
name = bottom;
position = "{300, 0}";
},
{
name = top;
position = "{300, 700}";
}
);
layerId = "50E3E9DC-0583-4D82-B33B-3FFFE976497D";
paths = (
{
closed = 1;
nodes = (
"146 0 LINE",
"146 278 LINE",
"306 278 LINE SMOOTH",
"467 278 OFFCURVE",
"533 378 OFFCURVE",
"533 489 CURVE SMOOTH",
"533 600 OFFCURVE",
"467 700 OFFCURVE",
"306 700 CURVE SMOOTH",
"76 700 LINE",
"76 0 LINE"
);
},
{
closed = 1;
nodes = (
"146 636 LINE",
"306 636 LINE SMOOTH",
"409 636 OFFCURVE",
"461 575 OFFCURVE",
"461 489 CURVE SMOOTH",
"461 403 OFFCURVE",
"409 342 OFFCURVE",
"306 342 CURVE SMOOTH",
"146 342 LINE"
);
}
);
width = 600;
},
{
anchors = (
{
name = bottom;
position = "{300, 0}";
},
{
name = top;
position = "{300, 700}";
}
);
layerId = "AE089E19-69A3-44A1-A715-1879E192462D";
paths = (
{
closed = 1;
nodes = (
"177 0 LINE",
"177 274 LINE",
"308 274 LINE SMOOTH",
"468 274 OFFCURVE",
"542 363 OFFCURVE",
"542 487 CURVE SMOOTH",
"542 610 OFFCURVE",
"468 700 OFFCURVE",
"308 700 CURVE SMOOTH",
"71 700 LINE",
"71 0 LINE"
);
},
{
closed = 1;
nodes = (
"177 605 LINE",
"303 605 LINE SMOOTH",
"394 605 OFFCURVE",
"434 558 OFFCURVE",
"434 487 CURVE SMOOTH",
"434 415 OFFCURVE",
"394 369 OFFCURVE",
"303 369 CURVE SMOOTH",
"177 369 LINE"
);
}
);
width = 600;
}
);
unicode = 0050;
},
{
glyphname = Thorn;
lastChange = "2020-03-04 08:53:31 +0000";
layers = (
{
anchors = (
{
name = bottom;
position = "{300, 0}";
},
{
name = top;
position = "{300, 700}";
}
);
layerId = "50E3E9DC-0583-4D82-B33B-3FFFE976497D";
paths = (
{
closed = 1;
nodes = (
"146 0 LINE",
"146 139 LINE",
"306 139 LINE SMOOTH",
"467 139 OFFCURVE",
"533 239 OFFCURVE",
"533 350 CURVE SMOOTH",
"533 461 OFFCURVE",
"467 561 OFFCURVE",
"306 561 CURVE SMOOTH",
"146 561 LINE",
"146 700 LINE",
"76 700 LINE",
"76 0 LINE"
);
},
{
closed = 1;
nodes = (
"146 497 LINE",
"306 497 LINE SMOOTH",
"409 497 OFFCURVE",
"461 436 OFFCURVE",
"461 350 CURVE SMOOTH",
"461 264 OFFCURVE",
"409 203 OFFCURVE",
"306 203 CURVE SMOOTH",
"146 203 LINE"
);
}
);
width = 600;
},
{
anchors = (
{
name = bottom;
position = "{300, 0}";
},
{
name = top;
position = "{300, 700}";
}
);
layerId = "AE089E19-69A3-44A1-A715-1879E192462D";
paths = (
{
closed = 1;
nodes = (
"177 0 LINE",
"177 137 LINE",
"308 137 LINE SMOOTH",
"468 137 OFFCURVE",
"542 227 OFFCURVE",
"542 350 CURVE SMOOTH",
"542 473 OFFCURVE",
"468 563 OFFCURVE",
"308 563 CURVE SMOOTH",
"177 563 LINE",
"177 700 LINE",
"71 700 LINE",
"71 0 LINE"
);
},
{
closed = 1;
nodes = (
"177 468 LINE",
"303 468 LINE SMOOTH",
"394 468 OFFCURVE",
"434 422 OFFCURVE",
"434 350 CURVE SMOOTH",
"434 279 OFFCURVE",
"394 232 OFFCURVE",
"303 232 CURVE SMOOTH",
"177 232 LINE"
);
}
);
width = 600;
}
);
unicode = 00DE;
},
{
glyphname = Q;
lastChange = "2020-03-04 08:53:31 +0000";
layers = (
{
anchors = (
{
name = bottom;
position = "{300, 0}";
},
{
name = top;
position = "{300, 700}";
}
);
components = (
{
alignment = -1;
name = O;
}
);
layerId = "50E3E9DC-0583-4D82-B33B-3FFFE976497D";
paths = (
{
closed = 1;
nodes = (
"552 -147 LINE",
"368 42 LINE",
"285 33 LINE",
"458 -147 LINE"
);
}
);
width = 600;
},
{
anchors = (
{
name = bottom;
position = "{300, 0}";
},
{
name = top;
position = "{300, 700}";
}
);
components = (
{
alignment = -1;
name = O;
}
);
layerId = "AE089E19-69A3-44A1-A715-1879E192462D";
paths = (
{
closed = 1;
nodes = (
"571 -153 LINE",
"382 59 LINE",
"270 33 LINE",
"436 -153 LINE"
);
}
);
width = 600;
}
);
unicode = 0051;
},
{
glyphname = R;
lastChange = "2020-03-04 08:53:31 +0000";
layers = (
{
anchors = (
{
name = bottom;
position = "{300, 0}";
},
{
name = top;
position = "{300, 700}";
}
);
layerId = "50E3E9DC-0583-4D82-B33B-3FFFE976497D";
paths = (
{
closed = 1;
nodes = (
"156 0 LINE",
"156 293 LINE",
"293 293 LINE SMOOTH",
"453 293 OFFCURVE",
"528 380 OFFCURVE",
"528 497 CURVE SMOOTH",
"528 614 OFFCURVE",
"453 700 OFFCURVE",
"293 700 CURVE SMOOTH",
"86 700 LINE",
"86 0 LINE"
);
},
{
closed = 1;
nodes = (
"536 0 LINE",
"375 315 LINE",
"295 315 LINE",
"452 0 LINE"
);
},
{
closed = 1;
nodes = (
"156 636 LINE",
"290 636 LINE SMOOTH",
"408 636 OFFCURVE",
"456 582 OFFCURVE",
"456 497 CURVE SMOOTH",
"456 417 OFFCURVE",
"405 358 OFFCURVE",
"291 358 CURVE SMOOTH",
"156 358 LINE"
);
}
);
width = 600;
},
{
anchors = (
{
name = bottom;
position = "{300, 0}";
},
{
name = top;
position = "{300, 700}";
}
);
layerId = "AE089E19-69A3-44A1-A715-1879E192462D";
paths = (
{
closed = 1;
nodes = (
"181 0 LINE",
"181 277 LINE",
"302 277 LINE SMOOTH",
"467 277 OFFCURVE",
"546 370 OFFCURVE",
"546 489 CURVE SMOOTH",
"546 608 OFFCURVE",
"467 700 OFFCURVE",
"304 700 CURVE SMOOTH",
"75 700 LINE",
"75 0 LINE"
);
},
{
closed = 1;
nodes = (
"553 0 LINE",
"397 311 LINE",
"280 311 LINE",
"430 0 LINE"
);
},
{
closed = 1;
nodes = (
"181 605 LINE",
"297 605 LINE SMOOTH",
"396 605 OFFCURVE",
"437 560 OFFCURVE",
"437 489 CURVE SMOOTH",
"437 420 OFFCURVE",
"394 373 OFFCURVE",
"298 373 CURVE SMOOTH",
"181 373 LINE"
);
}
);
width = 600;
}
);
unicode = 0052;
},
{
glyphname = S;
lastChange = "2020-03-04 08:53:31 +0000";
layers = (
{
anchors = (
{
name = bottom;
position = "{300, 0}";
},
{
name = top;
position = "{300, 700}";
}
);
layerId = "50E3E9DC-0583-4D82-B33B-3FFFE976497D";
paths = (
{
closed = 1;
nodes = (
"440 -12 OFFCURVE",
"535 68 OFFCURVE",
"535 180 CURVE SMOOTH",
"535 295 OFFCURVE",
"466 346 OFFCURVE",
"336 390 CURVE SMOOTH",
"199 436 OFFCURVE",
"158 468 OFFCURVE",
"158 540 CURVE SMOOTH",
"158 608 OFFCURVE",
"218 648 OFFCURVE",
"298 648 CURVE SMOOTH",
"399 648 OFFCURVE",
"446 580 OFFCURVE",
"446 520 CURVE",
"518 520 LINE",
"518 630 OFFCURVE",
"433 712 OFFCURVE",
"302 712 CURVE SMOOTH",
"163 712 OFFCURVE",
"86 636 OFFCURVE",
"86 541 CURVE SMOOTH",
"86 441 OFFCURVE",
"144 377 OFFCURVE",
"279 336 CURVE SMOOTH",
"420 293 OFFCURVE",
"463 255 OFFCURVE",
"463 176 CURVE SMOOTH",
"463 110 OFFCURVE",
"408 52 OFFCURVE",
"307 52 CURVE SMOOTH",
"198 52 OFFCURVE",
"141 125 OFFCURVE",
"141 211 CURVE",
"68 211 LINE",
"68 79 OFFCURVE",
"160 -12 OFFCURVE",
"307 -12 CURVE SMOOTH"
);
}
);
width = 600;
},
{
anchors = (
{
name = bottom;
position = "{300, 0}";
},
{
name = top;
position = "{300, 700}";
}
);
layerId = "AE089E19-69A3-44A1-A715-1879E192462D";
paths = (
{
closed = 1;
nodes = (
"454 -12 OFFCURVE",
"542 77 OFFCURVE",
"542 189 CURVE SMOOTH",
"542 310 OFFCURVE",
"462 362 OFFCURVE",
"353 398 CURVE SMOOTH",
"235 437 OFFCURVE",
"187 465 OFFCURVE",
"187 531 CURVE SMOOTH",
"187 584 OFFCURVE",
"235 618 OFFCURVE",
"298 617 CURVE SMOOTH",
"374 616 OFFCURVE",
"415 563 OFFCURVE",
"416 514 CURVE",
"529 514 LINE",
"526 638 OFFCURVE",
"437 712 OFFCURVE",
"301 712 CURVE SMOOTH",
"161 712 OFFCURVE",
"76 637 OFFCURVE",
"76 527 CURVE SMOOTH",
"76 431 OFFCURVE",
"129 365 OFFCURVE",
"245 328 CURVE SMOOTH",
"375 285 OFFCURVE",
"431 255 OFFCURVE",
"431 182 CURVE SMOOTH",
"431 123 OFFCURVE",
"384 83 OFFCURVE",
"306 83 CURVE SMOOTH",
"220 83 OFFCURVE",
"171 140 OFFCURVE",
"170 211 CURVE",
"58 211 LINE",
"60 73 OFFCURVE",
"159 -12 OFFCURVE",
"307 -12 CURVE SMOOTH"
);
}
);
width = 600;
}
);
unicode = 0053;
},
{
glyphname = Schwa;
lastChange = "2020-03-04 08:53:31 +0000";
layers = (
{
anchors = (
{
name = bottom;
position = "{300, 0}";
},
{
name = top;
position = "{300, 700}";
}
);
layerId = "50E3E9DC-0583-4D82-B33B-3FFFE976497D";
paths = (
{
closed = 1;
nodes = (
"456 -12 OFFCURVE",
"570 132 OFFCURVE",
"570 357 CURVE SMOOTH",
"570 572 OFFCURVE",
"467 712 OFFCURVE",
"298 712 CURVE SMOOTH",
"155 712 OFFCURVE",
"77 614 OFFCURVE",
"55 515 CURVE",
"127 515 LINE",
"146 593 OFFCURVE",
"210 646 OFFCURVE",
"298 646 CURVE SMOOTH",
"401 646 OFFCURVE",
"498 554 OFFCURVE",
"498 359 CURVE SMOOTH",
"498 332 LINE SMOOTH",
"498 157 OFFCURVE",
"403 52 OFFCURVE",
"288 52 CURVE SMOOTH",
"169 52 OFFCURVE",
"117 152 OFFCURVE",
"114 309 CURVE",
"516 309 LINE",
"516 375 LINE",
"44 375 LINE",
"42 357 OFFCURVE",
"42 341 OFFCURVE",
"42 327 CURVE SMOOTH",
"42 151 OFFCURVE",
"111 -12 OFFCURVE",
"285 -12 CURVE SMOOTH"
);
}
);
width = 600;
},
{
anchors = (
{
name = bottom;
position = "{300, 0}";
},
{
name = top;
position = "{300, 700}";
}
);
layerId = "AE089E19-69A3-44A1-A715-1879E192462D";
paths = (
{
closed = 1;
nodes = (
"463 -12 OFFCURVE",
"569 123 OFFCURVE",
"569 353 CURVE SMOOTH",
"569 579 OFFCURVE",
"468 712 OFFCURVE",
"296 712 CURVE SMOOTH",
"154 712 OFFCURVE",
"67 621 OFFCURVE",
"43 498 CURVE",
"152 498 LINE",
"172 569 OFFCURVE",
"226 612 OFFCURVE",
"296 612 CURVE SMOOTH",
"385 612 OFFCURVE",
"461 524 OFFCURVE",
"461 361 CURVE SMOOTH",
"461 333 LINE SMOOTH",
"461 172 OFFCURVE",
"388 87 OFFCURVE",
"291 87 CURVE SMOOTH",
"194 87 OFFCURVE",
"144 169 OFFCURVE",
"142 296 CURVE",
"476 296 LINE",
"476 384 LINE",
"36 384 LINE",
"35 366 OFFCURVE",
"34 350 OFFCURVE",
"34 336 CURVE SMOOTH",
"34 145 OFFCURVE",
"111 -12 OFFCURVE",
"290 -12 CURVE SMOOTH"
);
}
);
width = 600;
}
);
unicode = 018F;
},
{
glyphname = T;
lastChange = "2020-03-04 08:53:31 +0000";
layers = (
{
anchors = (
{
name = bottom;
position = "{300, 0}";
},
{
name = center;
position = "{300, 350}";
},
{
name = top;
position = "{300, 700}";
}
);
layerId = "50E3E9DC-0583-4D82-B33B-3FFFE976497D";
paths = (
{
closed = 1;
nodes = (
"335 0 LINE",
"335 700 LINE",
"265 700 LINE",
"265 0 LINE"
);
},
{
closed = 1;
nodes = (
"523 636 LINE",
"523 700 LINE",
"77 700 LINE",
"77 636 LINE"
);
}
);
width = 600;
},
{
anchors = (
{
name = bottom;
position = "{300, 0}";
},
{
name = center;
position = "{300, 350}";
},
{
name = top;
position = "{300, 700}";
}
);
layerId = "AE089E19-69A3-44A1-A715-1879E192462D";
paths = (
{
closed = 1;
nodes = (
"353 0 LINE",
"353 700 LINE",
"247 700 LINE",
"247 0 LINE"
);
},
{
closed = 1;
nodes = (
"541 605 LINE",
"541 700 LINE",
"59 700 LINE",
"59 605 LINE"
);
}
);
width = 600;
}
);
unicode = 0054;
},
{
glyphname = U;
lastChange = "2020-03-04 08:53:31 +0000";
layers = (
{
anchors = (
{
name = bottom;
position = "{300, 0}";
},
{
name = ogonek;
position = "{382, 0}";
},
{
name = top;
position = "{300, 700}";
},
{
name = topright;
position = "{580, 700}";
}
);
layerId = "50E3E9DC-0583-4D82-B33B-3FFFE976497D";
paths = (
{
closed = 1;
nodes = (
"438 -12 OFFCURVE",
"540 75 OFFCURVE",
"540 255 CURVE SMOOTH",
"540 700 LINE",
"470 700 LINE",
"470 254 LINE SMOOTH",
"470 124 OFFCURVE",
"402 52 OFFCURVE",
"301 52 CURVE SMOOTH",
"200 52 OFFCURVE",
"130 124 OFFCURVE",
"130 254 CURVE SMOOTH",
"130 700 LINE",
"60 700 LINE",
"60 255 LINE SMOOTH",
"60 75 OFFCURVE",
"162 -12 OFFCURVE",
"300 -12 CURVE SMOOTH"
);
}
);
width = 600;
},
{
anchors = (
{
name = bottom;
position = "{300, 0}";
},
{
name = ogonek;
position = "{384, 0}";
},
{
name = top;
position = "{300, 700}";
},
{
name = topright;
position = "{580, 700}";
}
);
layerId = "AE089E19-69A3-44A1-A715-1879E192462D";
paths = (
{
closed = 1;
nodes = (
"440 -12 OFFCURVE",
"548 74 OFFCURVE",
"548 256 CURVE SMOOTH",
"548 700 LINE",
"442 700 LINE",
"442 250 LINE SMOOTH",
"442 143 OFFCURVE",
"388 83 OFFCURVE",
"300 83 CURVE SMOOTH",
"212 83 OFFCURVE",
"158 143 OFFCURVE",
"158 250 CURVE SMOOTH",
"158 700 LINE",
"52 700 LINE",
"52 256 LINE SMOOTH",
"52 74 OFFCURVE",
"156 -12 OFFCURVE",
"298 -12 CURVE SMOOTH"
);
}
);
width = 600;
}
);
unicode = 0055;
},
{
glyphname = V;
lastChange = "2020-03-04 08:53:31 +0000";
layers = (
{
anchors = (
{
name = bottom;
position = "{300, 0}";
},
{
name = top;
position = "{300, 700}";
}
);
layerId = "50E3E9DC-0583-4D82-B33B-3FFFE976497D";
paths = (
{
closed = 1;
nodes = (
"342 0 LINE",
"570 700 LINE",
"494 700 LINE",
"300 90 LINE",
"106 700 LINE",
"30 700 LINE",
"258 0 LINE"
);
}
);
width = 600;
},
{
anchors = (
{
name = bottom;
position = "{300, 0}";
},
{
name = top;
position = "{300, 700}";
}
);
layerId = "AE089E19-69A3-44A1-A715-1879E192462D";
paths = (
{
closed = 1;
nodes = (
"363 0 LINE",
"579 700 LINE",
"465 700 LINE",
"300 140 LINE",
"135 700 LINE",
"21 700 LINE",
"237 0 LINE"
);
}
);
width = 600;
}
);
unicode = 0056;
},
{
glyphname = W;
lastChange = "2020-03-04 08:53:31 +0000";
layers = (
{
anchors = (
{
name = bottom;
position = "{300, 0}";
},
{
name = top;
position = "{300, 700}";
}
);
layerId = "50E3E9DC-0583-4D82-B33B-3FFFE976497D";
paths = (
{
closed = 1;
nodes = (
"195 0 LINE",
"300 566 LINE",
"405 0 LINE",
"484 0 LINE",
"597 700 LINE",
"524 700 LINE",
"444 141 LINE",
"337 700 LINE",
"263 700 LINE",
"156 141 LINE",
"76 700 LINE",
"3 700 LINE",
"116 0 LINE"
);
}
);
width = 600;
},
{
anchors = (
{
name = bottom;
position = "{300, 0}";
},
{
name = top;
position = "{300, 700}";
}
);
layerId = "AE089E19-69A3-44A1-A715-1879E192462D";
paths = (
{
closed = 1;
nodes = (
"220 0 LINE",
"300 495 LINE",
"380 0 LINE",
"503 0 LINE",
"599 700 LINE",
"496 700 LINE",
"438 191 LINE",
"352 700 LINE",
"248 700 LINE",
"162 191 LINE",
"104 700 LINE",
"1 700 LINE",
"97 0 LINE"
);
}
);
width = 600;
}
);
unicode = 0057;
},
{
glyphname = X;
lastChange = "2020-03-04 08:53:31 +0000";
layers = (
{
anchors = (
{
name = bottom;
position = "{300, 0}";
},
{
name = top;
position = "{300, 700}";
}
);
layerId = "50E3E9DC-0583-4D82-B33B-3FFFE976497D";
paths = (
{
closed = 1;
nodes = (
"551 0 LINE",
"128 700 LINE",
"48 700 LINE",
"472 0 LINE"
);
},
{
closed = 1;
nodes = (
"128 0 LINE",
"313 315 LINE",
"273 370 LINE",
"48 0 LINE"
);
},
{
closed = 1;
nodes = (
"552 700 LINE",
"472 700 LINE",
"286 385 LINE",
"328 331 LINE"
);
}
);
width = 600;
},
{
anchors = (
{
name = bottom;
position = "{300, 0}";
},
{
name = top;
position = "{300, 700}";
}
);
layerId = "AE089E19-69A3-44A1-A715-1879E192462D";
paths = (
{
closed = 1;
nodes = (
"571 0 LINE",
"152 700 LINE",
"29 700 LINE",
"450 0 LINE"
);
},
{
closed = 1;
nodes = (
"152 0 LINE",
"320 295 LINE",
"257 379 LINE",
"31 0 LINE"
);
},
{
closed = 1;
nodes = (
"569 700 LINE",
"450 700 LINE",
"279 407 LINE",
"342 323 LINE"
);
}
);
width = 600;
}
);
unicode = 0058;
},
{
glyphname = Y;
lastChange = "2020-03-04 08:53:31 +0000";
layers = (
{
anchors = (
{
name = bottom;
position = "{300, 0}";
},
{
name = top;
position = "{300, 700}";
},
{
name = topleft;
position = "{20, 700}";
}
);
layerId = "50E3E9DC-0583-4D82-B33B-3FFFE976497D";
paths = (
{
closed = 1;
nodes = (
"335 0 LINE",
"335 280 LINE",
"560 700 LINE",
"481 700 LINE",
"300 349 LINE",
"119 700 LINE",
"40 700 LINE",
"265 280 LINE",
"265 0 LINE"
);
}
);
width = 600;
},
{
anchors = (
{
name = bottom;
position = "{300, 0}";
},
{
name = top;
position = "{300, 700}";
},
{
name = topleft;
position = "{20, 700}";
}
);
layerId = "AE089E19-69A3-44A1-A715-1879E192462D";
paths = (
{
closed = 1;
nodes = (
"353 0 LINE",
"353 266 LINE",
"584 700 LINE",
"463 700 LINE",
"300 378 LINE",
"137 700 LINE",
"16 700 LINE",
"247 266 LINE",
"247 0 LINE"
);
}
);
width = 600;
}
);
unicode = 0059;
},
{
glyphname = Z;
lastChange = "2020-03-04 08:53:31 +0000";
layers = (
{
anchors = (
{
name = bottom;
position = "{300, 0}";
},
{
name = center;
position = "{300, 350}";
},
{
name = top;
position = "{300, 700}";
}
);
layerId = "50E3E9DC-0583-4D82-B33B-3FFFE976497D";
paths = (
{
closed = 1;
nodes = (
"528 0 LINE",
"528 64 LINE",
"153 64 LINE",
"523 642 LINE",
"523 700 LINE",
"79 700 LINE",
"79 636 LINE",
"443 636 LINE",
"73 58 LINE",
"73 0 LINE"
);
}
);
width = 600;
},
{
anchors = (
{
name = bottom;
position = "{300, 0}";
},
{
name = center;
position = "{300, 350}";
},
{
name = top;
position = "{300, 700}";
}
);
layerId = "AE089E19-69A3-44A1-A715-1879E192462D";
paths = (
{
closed = 1;
nodes = (
"539 0 LINE",
"539 95 LINE",
"185 95 LINE",
"535 613 LINE",
"535 700 LINE",
"67 700 LINE",
"67 605 LINE",
"412 605 LINE",
"62 87 LINE",
"62 0 LINE"
);
}
);
width = 600;
}
);
unicode = 005A;
},
{
glyphname = a;
lastChange = "2020-03-04 08:53:31 +0000";
layers = (
{
anchors = (
{
name = bottom;
position = "{300, 0}";
},
{
name = ogonek;
position = "{502, 0}";
},
{
name = top;
position = "{303, 496}";
}
);
layerId = "50E3E9DC-0583-4D82-B33B-3FFFE976497D";
paths = (
{
closed = 1;
nodes = (
"352 -12 OFFCURVE",
"400 30 OFFCURVE",
"429 80 CURVE",
"435 80 LINE",
"442 0 LINE",
"502 0 LINE",
"502 305 LINE SMOOTH",
"502 425 OFFCURVE",
"442 508 OFFCURVE",
"303 508 CURVE SMOOTH",
"199 508 OFFCURVE",
"111 453 OFFCURVE",
"101 353 CURVE",
"175 353 LINE",
"187 417 OFFCURVE",
"234 446 OFFCURVE",
"303 446 CURVE SMOOTH",
"386 446 OFFCURVE",
"432 398 OFFCURVE",
"432 305 CURVE SMOOTH",
"432 226 LINE SMOOTH",
"432 138 OFFCURVE",
"371 52 OFFCURVE",
"271 52 CURVE SMOOTH",
"198 52 OFFCURVE",
"160 87 OFFCURVE",
"160 143 CURVE SMOOTH",
"160 198 OFFCURVE",
"196 236 OFFCURVE",
"295 236 CURVE SMOOTH",
"447 236 LINE",
"447 296 LINE",
"290 296 LINE SMOOTH",
"172 296 OFFCURVE",
"87 245 OFFCURVE",
"87 141 CURVE SMOOTH",
"87 59 OFFCURVE",
"141 -12 OFFCURVE",
"260 -12 CURVE SMOOTH"
);
}
);
width = 600;
},
{
anchors = (
{
name = bottom;
position = "{300, 0}";
},
{
name = ogonek;
position = "{515, 0}";
},
{
name = top;
position = "{305, 496}";
}
);
layerId = "AE089E19-69A3-44A1-A715-1879E192462D";
paths = (
{
closed = 1;
nodes = (
"343 -12 OFFCURVE",
"380 26 OFFCURVE",
"409 73 CURVE",
"416 73 LINE",
"425 0 LINE",
"515 0 LINE",
"515 305 LINE SMOOTH",
"515 431 OFFCURVE",
"452 508 OFFCURVE",
"305 508 CURVE SMOOTH",
"183 508 OFFCURVE",
"97 443 OFFCURVE",
"87 339 CURVE",
"193 339 LINE",
"206 393 OFFCURVE",
"248 417 OFFCURVE",
"305 417 CURVE SMOOTH",
"375 417 OFFCURVE",
"409 379 OFFCURVE",
"409 305 CURVE SMOOTH",
"409 235 LINE SMOOTH",
"409 144 OFFCURVE",
"368 77 OFFCURVE",
"275 77 CURVE SMOOTH",
"221 77 OFFCURVE",
"188 103 OFFCURVE",
"188 147 CURVE SMOOTH",
"188 191 OFFCURVE",
"216 217 OFFCURVE",
"292 217 CURVE SMOOTH",
"425 217 LINE",
"425 294 LINE",
"281 294 LINE SMOOTH",
"150 294 OFFCURVE",
"76 236 OFFCURVE",
"76 139 CURVE SMOOTH",
"76 57 OFFCURVE",
"136 -12 OFFCURVE",
"255 -12 CURVE SMOOTH"
);
}
);
width = 600;
}
);
unicode = 0061;
},
{
glyphname = ae;
lastChange = "2020-03-04 08:53:31 +0000";
layers = (
{
anchors = (
{
name = bottom;
position = "{300, 0}";
},
{
name = top;
position = "{300, 496}";
}
);
layerId = "50E3E9DC-0583-4D82-B33B-3FFFE976497D";
paths = (
{
closed = 1;
nodes = (
"212 -12 OFFCURVE",
"274 21 OFFCURVE",
"296 84 CURVE",
"299 84 LINE",
"315 35 OFFCURVE",
"359 -12 OFFCURVE",
"424 -12 CURVE SMOOTH",
"515 -12 OFFCURVE",
"563 59 OFFCURVE",
"574 149 CURVE",
"506 149 LINE",
"493 83 OFFCURVE",
"470 54 OFFCURVE",
"429 54 CURVE SMOOTH",
"380 54 OFFCURVE",
"337 112 OFFCURVE",
"334 233 CURVE",
"583 233 LINE",
"584 247 OFFCURVE",
"585 269 OFFCURVE",
"585 283 CURVE SMOOTH",
"585 433 OFFCURVE",
"533 508 OFFCURVE",
"432 508 CURVE SMOOTH",
"373 508 OFFCURVE",
"331 473 OFFCURVE",
"308 432 CURVE",
"289 478 OFFCURVE",
"249 508 OFFCURVE",
"182 508 CURVE SMOOTH",
"106 508 OFFCURVE",
"45 454 OFFCURVE",
"39 363 CURVE",
"110 363 LINE",
"113 417 OFFCURVE",
"142 446 OFFCURVE",
"184 446 CURVE SMOOTH",
"233 446 OFFCURVE",
"264 415 OFFCURVE",
"264 348 CURVE SMOOTH",
"264 297 LINE",
"206 297 LINE SMOOTH",
"101 297 OFFCURVE",
"21 243 OFFCURVE",
"21 134 CURVE SMOOTH",
"21 56 OFFCURVE",
"70 -12 OFFCURVE",
"158 -12 CURVE SMOOTH"
);
},
{
closed = 1;
nodes = (
"119 52 OFFCURVE",
"94 84 OFFCURVE",
"94 136 CURVE SMOOTH",
"94 195 OFFCURVE",
"129 233 OFFCURVE",
"209 233 CURVE SMOOTH",
"264 233 LINE",
"264 176 LINE SMOOTH",
"264 95 OFFCURVE",
"222 52 OFFCURVE",
"167 52 CURVE SMOOTH"
);
},
{
closed = 1;
nodes = (
"341 389 OFFCURVE",
"371 444 OFFCURVE",
"429 444 CURVE SMOOTH",
"485 444 OFFCURVE",
"513 390 OFFCURVE",
"516 297 CURVE",
"335 297 LINE"
);
}
);
width = 600;
},
{
anchors = (
{
name = bottom;
position = "{300, 0}";
},
{
name = top;
position = "{300, 496}";
}
);
layerId = "AE089E19-69A3-44A1-A715-1879E192462D";
paths = (
{
closed = 1;
nodes = (
"218 -12 OFFCURVE",
"267 23 OFFCURVE",
"290 75 CURVE",
"295 75 LINE",
"314 26 OFFCURVE",
"363 -12 OFFCURVE",
"420 -12 CURVE SMOOTH",
"524 -12 OFFCURVE",
"569 61 OFFCURVE",
"580 156 CURVE",
"482 156 LINE",
"474 108 OFFCURVE",
"455 83 OFFCURVE",
"420 83 CURVE SMOOTH",
"380 83 OFFCURVE",
"350 132 OFFCURVE",
"350 224 CURVE",
"590 224 LINE",
"591 240 OFFCURVE",
"592 258 OFFCURVE",
"592 272 CURVE SMOOTH",
"592 414 OFFCURVE",
"540 508 OFFCURVE",
"424 508 CURVE SMOOTH",
"373 508 OFFCURVE",
"333 483 OFFCURVE",
"306 446 CURVE",
"282 485 OFFCURVE",
"243 508 OFFCURVE",
"188 508 CURVE SMOOTH",
"96 508 OFFCURVE",
"31 445 OFFCURVE",
"27 349 CURVE",
"125 349 LINE",
"128 395 OFFCURVE",
"153 417 OFFCURVE",
"188 417 CURVE SMOOTH",
"224 417 OFFCURVE",
"248 392 OFFCURVE",
"248 340 CURVE SMOOTH",
"248 302 LINE",
"199 302 LINE SMOOTH",
"81 302 OFFCURVE",
"14 239 OFFCURVE",
"14 136 CURVE SMOOTH",
"14 56 OFFCURVE",
"66 -12 OFFCURVE",
"153 -12 CURVE SMOOTH"
);
},
{
closed = 1;
nodes = (
"140 77 OFFCURVE",
"119 102 OFFCURVE",
"119 144 CURVE SMOOTH",
"119 194 OFFCURVE",
"151 224 OFFCURVE",
"211 224 CURVE SMOOTH",
"248 224 LINE",
"248 173 LINE SMOOTH",
"248 112 OFFCURVE",
"216 77 OFFCURVE",
"177 77 CURVE SMOOTH"
);
},
{
closed = 1;
nodes = (
"355 374 OFFCURVE",
"381 416 OFFCURVE",
"423 416 CURVE SMOOTH",
"466 416 OFFCURVE",
"489 374 OFFCURVE",
"492 302 CURVE",
"352 302 LINE"
);
}
);
width = 600;
}
);
unicode = 00E6;
},
{
glyphname = b;
lastChange = "2020-03-04 08:53:31 +0000";
layers = (
{
anchors = (
{
name = bottom;
position = "{300, 0}";
},
{
name = top;
position = "{118, 720}";
}
);
layerId = "50E3E9DC-0583-4D82-B33B-3FFFE976497D";
paths = (
{
closed = 1;
nodes = (
"439 -12 OFFCURVE",
"530 83 OFFCURVE",
"530 249 CURVE SMOOTH",
"530 415 OFFCURVE",
"440 508 OFFCURVE",
"311 508 CURVE SMOOTH",
"236 508 OFFCURVE",
"179 467 OFFCURVE",
"153 420 CURVE",
"153 720 LINE",
"83 720 LINE",
"83 0 LINE",
"137 0 LINE",
"147 78 LINE",
"153 78 LINE",
"178 23 OFFCURVE",
"234 -12 OFFCURVE",
"311 -12 CURVE SMOOTH"
);
},
{
closed = 1;
nodes = (
"217 54 OFFCURVE",
"153 117 OFFCURVE",
"153 248 CURVE SMOOTH",
"153 379 OFFCURVE",
"217 442 OFFCURVE",
"306 442 CURVE SMOOTH",
"395 442 OFFCURVE",
"459 379 OFFCURVE",
"459 248 CURVE SMOOTH",
"459 117 OFFCURVE",
"395 54 OFFCURVE",
"306 54 CURVE SMOOTH"
);
}
);
width = 600;
},
{
anchors = (
{
name = bottom;
position = "{300, 0}";
},
{
name = top;
position = "{124, 720}";
}
);
layerId = "AE089E19-69A3-44A1-A715-1879E192462D";
paths = (
{
closed = 1;
nodes = (
"450 -12 OFFCURVE",
"544 77 OFFCURVE",
"544 248 CURVE SMOOTH",
"544 418 OFFCURVE",
"450 508 OFFCURVE",
"327 508 CURVE SMOOTH",
"255 508 OFFCURVE",
"201 472 OFFCURVE",
"177 432 CURVE",
"177 720 LINE",
"71 720 LINE",
"71 0 LINE",
"162 0 LINE",
"171 73 LINE",
"177 73 LINE",
"203 19 OFFCURVE",
"253 -12 OFFCURVE",
"327 -12 CURVE SMOOTH"
);
},
{
closed = 1;
nodes = (
"229 89 OFFCURVE",
"173 142 OFFCURVE",
"173 248 CURVE SMOOTH",
"173 354 OFFCURVE",
"229 407 OFFCURVE",
"305 407 CURVE SMOOTH",
"381 407 OFFCURVE",
"437 354 OFFCURVE",
"437 247 CURVE SMOOTH",
"437 141 OFFCURVE",
"381 89 OFFCURVE",
"305 89 CURVE SMOOTH"
);
}
);
width = 600;
}
);
unicode = 0062;
},
{
glyphname = c;
lastChange = "2020-03-04 08:53:31 +0000";
layers = (
{
anchors = (
{
name = bottom;
position = "{308, 0}";
},
{
name = top;
position = "{308, 496}";
}
);
layerId = "50E3E9DC-0583-4D82-B33B-3FFFE976497D";
paths = (
{
closed = 1;
nodes = (
"420 -12 OFFCURVE",
"495 49 OFFCURVE",
"519 152 CURVE",
"449 152 LINE",
"433 93 OFFCURVE",
"386 53 OFFCURVE",
"308 53 CURVE SMOOTH",
"226 53 OFFCURVE",
"150 115 OFFCURVE",
"150 248 CURVE SMOOTH",
"150 381 OFFCURVE",
"226 442 OFFCURVE",
"308 442 CURVE SMOOTH",
"381 442 OFFCURVE",
"431 404 OFFCURVE",
"449 344 CURVE",
"519 344 LINE",
"499 443 OFFCURVE",
"429 508 OFFCURVE",
"308 508 CURVE SMOOTH",
"183 508 OFFCURVE",
"78 414 OFFCURVE",
"78 248 CURVE SMOOTH",
"78 82 OFFCURVE",
"180 -12 OFFCURVE",
"308 -12 CURVE SMOOTH"
);
}
);
width = 600;
},
{
anchors = (
{
name = bottom;
position = "{307, 0}";
},
{
name = top;
position = "{307, 496}";
}
);
layerId = "AE089E19-69A3-44A1-A715-1879E192462D";
paths = (
{
closed = 1;
nodes = (
"430 -12 OFFCURVE",
"508 57 OFFCURVE",
"535 166 CURVE",
"424 166 LINE",
"408 117 OFFCURVE",
"370 87 OFFCURVE",
"306 87 CURVE SMOOTH",
"237 87 OFFCURVE",
"174 143 OFFCURVE",
"174 248 CURVE SMOOTH",
"174 353 OFFCURVE",
"237 408 OFFCURVE",
"306 408 CURVE SMOOTH",
"369 408 OFFCURVE",
"411 378 OFFCURVE",
"424 330 CURVE",
"535 330 LINE",
"514 441 OFFCURVE",
"433 508 OFFCURVE",
"307 508 CURVE SMOOTH",
"169 508 OFFCURVE",
"67 405 OFFCURVE",
"67 248 CURVE SMOOTH",
"67 90 OFFCURVE",
"168 -12 OFFCURVE",
"307 -12 CURVE SMOOTH"
);
}
);
width = 600;
}
);
unicode = 0063;
},
{
glyphname = d;
lastChange = "2020-03-04 08:53:31 +0000";
layers = (
{
anchors = (
{
name = bottom;
position = "{300, 0}";
},
{
name = center;
position = "{300, 248}";
},
{
name = top;
position = "{482, 720}";
},
{
name = topright;
position = "{517, 496}";
}
);
layerId = "50E3E9DC-0583-4D82-B33B-3FFFE976497D";
paths = (
{
closed = 1;
nodes = (
"366 -12 OFFCURVE",
"421 23 OFFCURVE",
"447 79 CURVE",
"453 79 LINE",
"463 0 LINE",
"517 0 LINE",
"517 720 LINE",
"447 720 LINE",
"447 420 LINE",
"421 473 OFFCURVE",
"370 508 OFFCURVE",
"289 508 CURVE SMOOTH",
"160 508 OFFCURVE",
"70 415 OFFCURVE",
"70 249 CURVE SMOOTH",
"70 83 OFFCURVE",
"161 -12 OFFCURVE",
"289 -12 CURVE SMOOTH"
);
},
{
closed = 1;
nodes = (
"205 54 OFFCURVE",
"141 117 OFFCURVE",
"141 248 CURVE SMOOTH",
"141 379 OFFCURVE",
"205 442 OFFCURVE",
"294 442 CURVE SMOOTH",
"383 442 OFFCURVE",
"447 379 OFFCURVE",
"447 248 CURVE SMOOTH",
"447 117 OFFCURVE",
"383 54 OFFCURVE",
"294 54 CURVE SMOOTH"
);
}
);
width = 600;
},
{
anchors = (
{
name = bottom;
position = "{300, 0}";
},
{
name = center;
position = "{300, 248}";
},
{
name = top;
position = "{476, 720}";
},
{
name = topright;
position = "{529, 496}";
}
);
layerId = "AE089E19-69A3-44A1-A715-1879E192462D";
paths = (
{
closed = 1;
nodes = (
"349 -12 OFFCURVE",
"396 21 OFFCURVE",
"423 73 CURVE",
"429 73 LINE",
"438 0 LINE",
"529 0 LINE",
"529 720 LINE",
"423 720 LINE",
"423 432 LINE",
"399 476 OFFCURVE",
"350 508 OFFCURVE",
"274 508 CURVE SMOOTH",
"151 508 OFFCURVE",
"56 418 OFFCURVE",
"56 248 CURVE SMOOTH",
"56 77 OFFCURVE",
"149 -12 OFFCURVE",
"273 -12 CURVE SMOOTH"
);
},
{
closed = 1;
nodes = (
"219 89 OFFCURVE",
"163 141 OFFCURVE",
"163 247 CURVE SMOOTH",
"163 354 OFFCURVE",
"219 407 OFFCURVE",
"295 407 CURVE SMOOTH",
"371 407 OFFCURVE",
"427 354 OFFCURVE",
"427 248 CURVE SMOOTH",
"427 142 OFFCURVE",
"371 89 OFFCURVE",
"295 89 CURVE SMOOTH"
);
}
);
width = 600;
}
);
unicode = 0064;
},
{
glyphname = eth;
lastChange = "2020-03-04 08:53:31 +0000";
layers = (
{
layerId = "50E3E9DC-0583-4D82-B33B-3FFFE976497D";
paths = (
{
closed = 1;
nodes = (
"459 -12 OFFCURVE",
"552 104 OFFCURVE",
"552 266 CURVE SMOOTH",
"552 463 OFFCURVE",
"473 612 OFFCURVE",
"323 720 CURVE",
"230 720 LINE",
"375 609 OFFCURVE",
"429 541 OFFCURVE",
"475 419 CURVE",
"471 419 LINE",
"431 484 OFFCURVE",
"369 508 OFFCURVE",
"302 508 CURVE SMOOTH",
"168 508 OFFCURVE",
"64 399 OFFCURVE",
"64 247 CURVE SMOOTH",
"64 104 OFFCURVE",
"162 -12 OFFCURVE",
"306 -12 CURVE SMOOTH"
);
},
{
closed = 1;
nodes = (
"217 52 OFFCURVE",
"135 128 OFFCURVE",
"135 249 CURVE SMOOTH",
"135 368 OFFCURVE",
"217 444 OFFCURVE",
"308 444 CURVE SMOOTH",
"399 444 OFFCURVE",
"481 368 OFFCURVE",
"481 249 CURVE SMOOTH",
"481 128 OFFCURVE",
"399 52 OFFCURVE",
"308 52 CURVE SMOOTH"
);
},
{
closed = 1;
nodes = (
"514 652 LINE",
"514 708 LINE",
"203 606 LINE",
"203 550 LINE"
);
}
);
width = 600;
},
{
layerId = "AE089E19-69A3-44A1-A715-1879E192462D";
paths = (
{
closed = 1;
nodes = (
"460 -12 OFFCURVE",
"563 97 OFFCURVE",
"563 280 CURVE SMOOTH",
"563 470 OFFCURVE",
"485 618 OFFCURVE",
"354 720 CURVE",
"231 720 LINE",
"340 634 OFFCURVE",
"409 551 OFFCURVE",
"451 434 CURVE",
"445 434 LINE",
"406 486 OFFCURVE",
"352 505 OFFCURVE",
"291 505 CURVE SMOOTH",
"154 505 OFFCURVE",
"50 396 OFFCURVE",
"50 246 CURVE SMOOTH",
"50 102 OFFCURVE",
"155 -12 OFFCURVE",
"304 -12 CURVE SMOOTH"
);
},
{
closed = 1;
nodes = (
"225 88 OFFCURVE",
"159 148 OFFCURVE",
"159 247 CURVE SMOOTH",
"159 345 OFFCURVE",
"225 405 OFFCURVE",
"307 405 CURVE SMOOTH",
"388 405 OFFCURVE",
"454 345 OFFCURVE",
"454 247 CURVE SMOOTH",
"454 148 OFFCURVE",
"388 88 OFFCURVE",
"307 88 CURVE SMOOTH"
);
},
{
closed = 1;
nodes = (
"523 636 LINE",
"523 709 LINE",
"224 611 LINE",
"224 538 LINE"
);
}
);
width = 600;
}
);
unicode = 00F0;
},
{
glyphname = dcroat;
lastChange = "2020-03-04 08:53:31 +0000";
layers = (
{
components = (
{
name = d;
}
);
layerId = "50E3E9DC-0583-4D82-B33B-3FFFE976497D";
paths = (
{
closed = 1;
nodes = (
"583 594 LINE",
"583 654 LINE",
"272 654 LINE",
"272 594 LINE"
);
}
);
width = 600;
},
{
components = (
{
alignment = -1;
name = d;
}
);
layerId = "AE089E19-69A3-44A1-A715-1879E192462D";
paths = (
{
closed = 1;
nodes = (
"589 575 LINE",
"589 660 LINE",
"263 660 LINE",
"263 575 LINE"
);
}
);
width = 600;
}
);
unicode = 0111;
},
{
glyphname = e;
lastChange = "2020-03-04 08:53:31 +0000";
layers = (
{
anchors = (
{
name = bottom;
position = "{306, 0}";
},
{
name = ogonek;
position = "{384, 0}";
},
{
name = top;
position = "{306, 496}";
}
);
layerId = "50E3E9DC-0583-4D82-B33B-3FFFE976497D";
paths = (
{
closed = 1;
nodes = (
"426 -12 OFFCURVE",
"496 59 OFFCURVE",
"517 149 CURVE",
"449 149 LINE",
"427 90 OFFCURVE",
"386 54 OFFCURVE",
"305 54 CURVE SMOOTH",
"219 54 OFFCURVE",
"137 116 OFFCURVE",
"137 247 CURVE SMOOTH",
"137 274 LINE SMOOTH",
"137 380 OFFCURVE",
"213 444 OFFCURVE",
"304 444 CURVE SMOOTH",
"395 444 OFFCURVE",
"458 390 OFFCURVE",
"463 297 CURVE",
"123 297 LINE",
"123 233 LINE",
"530 233 LINE",
"531 252 OFFCURVE",
"531 265 OFFCURVE",
"531 279 CURVE SMOOTH",
"531 398 OFFCURVE",
"451 508 OFFCURVE",
"307 508 CURVE SMOOTH",
"165 508 OFFCURVE",
"69 407 OFFCURVE",
"69 249 CURVE SMOOTH",
"69 91 OFFCURVE",
"167 -12 OFFCURVE",
"305 -12 CURVE SMOOTH"
);
}
);
width = 600;
},
{
anchors = (
{
name = bottom;
position = "{305, 0}";
},
{
name = ogonek;
position = "{384, 0}";
},
{
name = top;
position = "{305, 496}";
}
);
layerId = "AE089E19-69A3-44A1-A715-1879E192462D";
paths = (
{
closed = 1;
nodes = (
"425 -12 OFFCURVE",
"503 61 OFFCURVE",
"527 156 CURVE",
"420 156 LINE",
"402 110 OFFCURVE",
"367 83 OFFCURVE",
"305 83 CURVE SMOOTH",
"230 83 OFFCURVE",
"166 136 OFFCURVE",
"166 237 CURVE SMOOTH",
"166 265 LINE SMOOTH",
"166 360 OFFCURVE",
"229 416 OFFCURVE",
"306 416 CURVE SMOOTH",
"378 416 OFFCURVE",
"429 370 OFFCURVE",
"434 304 CURVE",
"139 304 LINE",
"139 223 LINE",
"539 223 LINE",
"540 241 OFFCURVE",
"540 256 OFFCURVE",
"540 270 CURVE SMOOTH",
"540 400 OFFCURVE",
"450 508 OFFCURVE",
"307 508 CURVE SMOOTH",
"160 508 OFFCURVE",
"62 402 OFFCURVE",
"62 246 CURVE SMOOTH",
"62 92 OFFCURVE",
"163 -12 OFFCURVE",
"306 -12 CURVE SMOOTH"
);
}
);
width = 600;
}
);
unicode = 0065;
},
{
glyphname = schwa;
lastChange = "2020-03-04 08:53:31 +0000";
layers = (
{
layerId = "50E3E9DC-0583-4D82-B33B-3FFFE976497D";
paths = (
{
closed = 1;
nodes = (
"435 -12 OFFCURVE",
"531 89 OFFCURVE",
"531 247 CURVE SMOOTH",
"531 405 OFFCURVE",
"433 508 OFFCURVE",
"295 508 CURVE SMOOTH",
"174 508 OFFCURVE",
"104 437 OFFCURVE",
"83 347 CURVE",
"151 347 LINE",
"173 406 OFFCURVE",
"214 442 OFFCURVE",
"295 442 CURVE SMOOTH",
"381 442 OFFCURVE",
"463 380 OFFCURVE",
"463 249 CURVE SMOOTH",
"463 222 LINE SMOOTH",
"463 116 OFFCURVE",
"387 52 OFFCURVE",
"296 52 CURVE SMOOTH",
"205 52 OFFCURVE",
"142 106 OFFCURVE",
"137 199 CURVE",
"477 199 LINE",
"477 263 LINE",
"70 263 LINE",
"69 244 OFFCURVE",
"69 231 OFFCURVE",
"69 217 CURVE SMOOTH",
"69 98 OFFCURVE",
"149 -12 OFFCURVE",
"293 -12 CURVE SMOOTH"
);
}
);
width = 600;
},
{
layerId = "AE089E19-69A3-44A1-A715-1879E192462D";
paths = (
{
closed = 1;
nodes = (
"440 -12 OFFCURVE",
"538 94 OFFCURVE",
"538 250 CURVE SMOOTH",
"538 404 OFFCURVE",
"437 508 OFFCURVE",
"294 508 CURVE SMOOTH",
"175 508 OFFCURVE",
"97 435 OFFCURVE",
"73 340 CURVE",
"180 340 LINE",
"198 386 OFFCURVE",
"233 413 OFFCURVE",
"295 413 CURVE SMOOTH",
"370 413 OFFCURVE",
"434 360 OFFCURVE",
"434 259 CURVE SMOOTH",
"434 231 LINE SMOOTH",
"434 136 OFFCURVE",
"371 80 OFFCURVE",
"294 80 CURVE SMOOTH",
"222 80 OFFCURVE",
"171 126 OFFCURVE",
"166 192 CURVE",
"461 192 LINE",
"461 273 LINE",
"61 273 LINE",
"60 255 OFFCURVE",
"60 240 OFFCURVE",
"60 226 CURVE SMOOTH",
"60 96 OFFCURVE",
"150 -12 OFFCURVE",
"293 -12 CURVE SMOOTH"
);
}
);
width = 600;
}
);
unicode = 0259;
},
{
glyphname = f;
lastChange = "2020-03-04 08:53:31 +0000";
layers = (
{
anchors = (
{
name = bottom;
position = "{300, -220}";
},
{
name = top;
position = "{300, 720}";
}
);
layerId = "50E3E9DC-0583-4D82-B33B-3FFFE976497D";
paths = (
{
closed = 1;
nodes = (
"156 -220 LINE SMOOTH",
"254 -220 OFFCURVE",
"298 -179 OFFCURVE",
"298 -82 CURVE SMOOTH",
"298 582 LINE SMOOTH",
"298 635 OFFCURVE",
"319 654 OFFCURVE",
"371 654 CURVE SMOOTH",
"489 654 LINE",
"489 720 LINE",
"370 720 LINE SMOOTH",
"272 720 OFFCURVE",
"228 679 OFFCURVE",
"228 582 CURVE SMOOTH",
"228 -82 LINE SMOOTH",
"228 -135 OFFCURVE",
"207 -154 OFFCURVE",
"155 -154 CURVE SMOOTH",
"107 -154 LINE",
"107 -220 LINE"
);
},
{
closed = 1;
nodes = (
"489 436 LINE",
"489 496 LINE",
"107 496 LINE",
"107 436 LINE"
);
}
);
width = 600;
},
{
associatedMasterId = "50E3E9DC-0583-4D82-B33B-3FFFE976497D";
layerId = "99D55DCD-A671-43EC-B481-7C7193190F90";
name = "Feb 13 20, 15:50";
paths = (
{
closed = 1;
nodes = (
"298 0 LINE",
"298 582 LINE SMOOTH",
"298 635 OFFCURVE",
"319 654 OFFCURVE",
"371 654 CURVE SMOOTH",
"489 654 LINE",
"489 720 LINE",
"370 720 LINE SMOOTH",
"272 720 OFFCURVE",
"228 679 OFFCURVE",
"228 582 CURVE SMOOTH",
"228 0 LINE"
);
},
{
closed = 1;
nodes = (
"489 0 LINE",
"489 60 LINE",
"107 60 LINE",
"107 0 LINE"
);
},
{
closed = 1;
nodes = (
"489 436 LINE",
"489 496 LINE",
"107 496 LINE",
"107 436 LINE"
);
}
);
width = 600;
},
{
anchors = (
{
name = bottom;
position = "{300, -208}";
},
{
name = top;
position = "{300, 720}";
}
);
layerId = "AE089E19-69A3-44A1-A715-1879E192462D";
paths = (
{
closed = 1;
nodes = (
"163 -220 LINE SMOOTH",
"265 -220 OFFCURVE",
"322 -176 OFFCURVE",
"322 -65 CURVE SMOOTH",
"322 564 LINE SMOOTH",
"322 610 OFFCURVE",
"340 627 OFFCURVE",
"387 627 CURVE SMOOTH",
"495 627 LINE",
"495 720 LINE",
"374 720 LINE SMOOTH",
"273 720 OFFCURVE",
"216 676 OFFCURVE",
"216 565 CURVE SMOOTH",
"216 -64 LINE SMOOTH",
"216 -110 OFFCURVE",
"197 -127 OFFCURVE",
"150 -127 CURVE SMOOTH",
"69 -127 LINE",
"69 -220 LINE"
);
},
{
closed = 1;
nodes = (
"495 406 LINE",
"495 496 LINE",
"90 496 LINE",
"90 406 LINE"
);
}
);
width = 600;
}
);
unicode = 0066;
},
{
glyphname = g;
lastChange = "2020-03-04 08:53:31 +0000";
layers = (
{
associatedMasterId = "50E3E9DC-0583-4D82-B33B-3FFFE976497D";
layerId = "5D86B679-E279-4269-A229-B1A7716C8F2D";
name = "Feb 13 20, 15:26";
paths = (
{
closed = 1;
nodes = (
"467 -232 OFFCURVE",
"532 -152 OFFCURVE",
"532 -66 CURVE SMOOTH",
"532 33 OFFCURVE",
"460 76 OFFCURVE",
"330 76 CURVE SMOOTH",
"218 76 OFFCURVE",
"188 92 OFFCURVE",
"165 120 CURVE",
"165 95 LINE",
"266 169 LINE",
"204 193 LINE",
"91 110 LINE",
"91 72 LINE",
"130 47 OFFCURVE",
"166 14 OFFCURVE",
"319 14 CURVE SMOOTH",
"429 14 OFFCURVE",
"460 -24 OFFCURVE",
"460 -69 CURVE SMOOTH",
"460 -128 OFFCURVE",
"398 -168 OFFCURVE",
"314 -168 CURVE SMOOTH",
"221 -168 OFFCURVE",
"158 -136 OFFCURVE",
"158 -74 CURVE SMOOTH",
"158 -27 OFFCURVE",
"193 12 OFFCURVE",
"240 31 CURVE",
"182 55 LINE",
"134 33 OFFCURVE",
"86 -15 OFFCURVE",
"86 -74 CURVE SMOOTH",
"86 -181 OFFCURVE",
"175 -232 OFFCURVE",
"314 -232 CURVE SMOOTH"
);
},
{
closed = 1;
nodes = (
"437 148 OFFCURVE",
"507 233 OFFCURVE",
"507 328 CURVE SMOOTH",
"507 423 OFFCURVE",
"437 508 OFFCURVE",
"312 508 CURVE SMOOTH",
"186 508 OFFCURVE",
"116 423 OFFCURVE",
"116 328 CURVE SMOOTH",
"116 233 OFFCURVE",
"186 148 OFFCURVE",
"312 148 CURVE SMOOTH"
);
},
{
closed = 1;
nodes = (
"240 212 OFFCURVE",
"187 254 OFFCURVE",
"187 328 CURVE SMOOTH",
"187 402 OFFCURVE",
"240 444 OFFCURVE",
"312 444 CURVE SMOOTH",
"384 444 OFFCURVE",
"436 402 OFFCURVE",
"436 328 CURVE SMOOTH",
"436 254 OFFCURVE",
"384 212 OFFCURVE",
"312 212 CURVE SMOOTH"
);
},
{
closed = 1;
nodes = (
"476 435 LINE",
"571 438 LINE",
"571 496 LINE",
"366 496 LINE",
"476 419 LINE"
);
}
);
width = 600;
},
{
associatedMasterId = "50E3E9DC-0583-4D82-B33B-3FFFE976497D";
layerId = "8B88229D-D0A0-42E2-9B39-E88A12FC4299";
name = "Feb 13 20, 15:31";
paths = (
{
closed = 1;
nodes = (
"467 -232 OFFCURVE",
"532 -152 OFFCURVE",
"532 -66 CURVE SMOOTH",
"532 36 OFFCURVE",
"450 76 OFFCURVE",
"330 76 CURVE SMOOTH",
"218 76 OFFCURVE",
"190 92 OFFCURVE",
"165 120 CURVE",
"160 95 LINE",
"248 187 LINE",
"186 211 LINE",
"91 110 LINE",
"91 86 LINE",
"130 51 OFFCURVE",
"166 14 OFFCURVE",
"319 14 CURVE SMOOTH",
"429 14 OFFCURVE",
"460 -24 OFFCURVE",
"460 -69 CURVE SMOOTH",
"460 -128 OFFCURVE",
"398 -168 OFFCURVE",
"314 -168 CURVE SMOOTH",
"221 -168 OFFCURVE",
"158 -136 OFFCURVE",
"158 -74 CURVE SMOOTH",
"158 -27 OFFCURVE",
"187 10 OFFCURVE",
"240 31 CURVE",
"182 55 LINE",
"134 28 OFFCURVE",
"86 -15 OFFCURVE",
"86 -74 CURVE SMOOTH",
"86 -181 OFFCURVE",
"175 -232 OFFCURVE",
"314 -232 CURVE SMOOTH"
);
},
{
closed = 1;
nodes = (
"437 148 OFFCURVE",
"507 233 OFFCURVE",
"507 328 CURVE SMOOTH",
"507 423 OFFCURVE",
"437 508 OFFCURVE",
"312 508 CURVE SMOOTH",
"186 508 OFFCURVE",
"116 423 OFFCURVE",
"116 328 CURVE SMOOTH",
"116 233 OFFCURVE",
"186 148 OFFCURVE",
"312 148 CURVE SMOOTH"
);
},
{
closed = 1;
nodes = (
"240 212 OFFCURVE",
"187 254 OFFCURVE",
"187 328 CURVE SMOOTH",
"187 402 OFFCURVE",
"240 444 OFFCURVE",
"312 444 CURVE SMOOTH",
"384 444 OFFCURVE",
"436 402 OFFCURVE",
"436 328 CURVE SMOOTH",
"436 254 OFFCURVE",
"384 212 OFFCURVE",
"312 212 CURVE SMOOTH"
);
},
{
closed = 1;
nodes = (
"476 435 LINE",
"571 438 LINE",
"571 496 LINE",
"366 496 LINE",
"476 419 LINE"
);
}
);
width = 600;
},
{
anchors = (
{
name = bottom;
position = "{292, -220}";
},
{
name = top;
position = "{292, 496}";
}
);
layerId = "50E3E9DC-0583-4D82-B33B-3FFFE976497D";
paths = (
{
closed = 1;
nodes = (
"447 -232 OFFCURVE",
"512 -152 OFFCURVE",
"512 -66 CURVE SMOOTH",
"512 36 OFFCURVE",
"430 76 OFFCURVE",
"310 76 CURVE SMOOTH",
"179 76 LINE SMOOTH",
"147 76 OFFCURVE",
"140 101 OFFCURVE",
"155 121 CURVE SMOOTH",
"207 187 LINE",
"153 211 LINE",
"102 148 LINE SMOOTH",
"53 87 OFFCURVE",
"92 14 OFFCURVE",
"164 14 CURVE SMOOTH",
"299 14 LINE SMOOTH",
"409 14 OFFCURVE",
"440 -24 OFFCURVE",
"440 -69 CURVE SMOOTH",
"440 -128 OFFCURVE",
"378 -168 OFFCURVE",
"294 -168 CURVE SMOOTH",
"201 -168 OFFCURVE",
"138 -136 OFFCURVE",
"138 -74 CURVE SMOOTH",
"138 -27 OFFCURVE",
"167 10 OFFCURVE",
"220 31 CURVE",
"162 55 LINE",
"114 28 OFFCURVE",
"66 -15 OFFCURVE",
"66 -74 CURVE SMOOTH",
"66 -181 OFFCURVE",
"155 -232 OFFCURVE",
"294 -232 CURVE SMOOTH"
);
},
{
closed = 1;
nodes = (
"414 148 OFFCURVE",
"483 233 OFFCURVE",
"483 328 CURVE SMOOTH",
"483 423 OFFCURVE",
"414 508 OFFCURVE",
"292 508 CURVE SMOOTH",
"169 508 OFFCURVE",
"100 423 OFFCURVE",
"100 328 CURVE SMOOTH",
"100 233 OFFCURVE",
"169 148 OFFCURVE",
"292 148 CURVE SMOOTH"
);
},
{
closed = 1;
nodes = (
"222 212 OFFCURVE",
"171 254 OFFCURVE",
"171 328 CURVE SMOOTH",
"171 402 OFFCURVE",
"222 444 OFFCURVE",
"292 444 CURVE SMOOTH",
"362 444 OFFCURVE",
"412 402 OFFCURVE",
"412 328 CURVE SMOOTH",
"412 254 OFFCURVE",
"362 212 OFFCURVE",
"292 212 CURVE SMOOTH"
);
},
{
closed = 1;
nodes = (
"453 435 LINE",
"551 438 LINE",
"551 496 LINE",
"346 496 LINE",
"453 419 LINE"
);
}
);
width = 600;
},
{
anchors = (
{
name = bottom;
position = "{290, -220}";
},
{
name = top;
position = "{290, 496}";
}
);
layerId = "AE089E19-69A3-44A1-A715-1879E192462D";
paths = (
{
closed = 1;
nodes = (
"457 -232 OFFCURVE",
"524 -156 OFFCURVE",
"524 -62 CURVE SMOOTH",
"524 38 OFFCURVE",
"446 86 OFFCURVE",
"330 86 CURVE SMOOTH",
"199 86 LINE SMOOTH",
"171 86 OFFCURVE",
"163 108 OFFCURVE",
"179 128 CURVE SMOOTH",
"229 188 LINE",
"149 218 LINE",
"93 147 LINE SMOOTH",
"44 86 OFFCURVE",
"81 5 OFFCURVE",
"153 5 CURVE SMOOTH",
"310 5 LINE SMOOTH",
"393 5 OFFCURVE",
"424 -22 OFFCURVE",
"424 -64 CURVE SMOOTH",
"424 -115 OFFCURVE",
"372 -144 OFFCURVE",
"290 -144 CURVE SMOOTH",
"213 -144 OFFCURVE",
"155 -120 OFFCURVE",
"155 -66 CURVE SMOOTH",
"155 -28 OFFCURVE",
"182 6 OFFCURVE",
"233 28 CURVE",
"179 63 LINE",
"110 36 OFFCURVE",
"55 -11 OFFCURVE",
"55 -74 CURVE SMOOTH",
"55 -180 OFFCURVE",
"149 -232 OFFCURVE",
"290 -232 CURVE SMOOTH"
);
},
{
closed = 1;
nodes = (
"413 143 OFFCURVE",
"486 227 OFFCURVE",
"486 326 CURVE SMOOTH",
"486 424 OFFCURVE",
"413 508 OFFCURVE",
"289 508 CURVE SMOOTH",
"163 508 OFFCURVE",
"90 424 OFFCURVE",
"90 326 CURVE SMOOTH",
"90 227 OFFCURVE",
"163 143 OFFCURVE",
"289 143 CURVE SMOOTH"
);
},
{
closed = 1;
nodes = (
"229 228 OFFCURVE",
"187 265 OFFCURVE",
"187 326 CURVE SMOOTH",
"187 385 OFFCURVE",
"229 422 OFFCURVE",
"289 422 CURVE SMOOTH",
"348 422 OFFCURVE",
"390 385 OFFCURVE",
"390 326 CURVE SMOOTH",
"390 265 OFFCURVE",
"348 228 OFFCURVE",
"289 228 CURVE SMOOTH"
);
},
{
closed = 1;
nodes = (
"465 421 LINE",
"552 426 LINE",
"552 496 LINE",
"345 496 LINE",
"465 401 LINE"
);
}
);
width = 600;
}
);
unicode = 0067;
},
{
glyphname = h;
lastChange = "2020-03-04 08:53:31 +0000";
layers = (
{
anchors = (
{
name = bottom;
position = "{302, 0}";
},
{
name = center;
position = "{302, 360}";
},
{
name = top;
position = "{125, 720}";
}
);
layerId = "50E3E9DC-0583-4D82-B33B-3FFFE976497D";
paths = (
{
closed = 1;
nodes = (
"160 0 LINE",
"160 277 LINE SMOOTH",
"160 384 OFFCURVE",
"231 442 OFFCURVE",
"314 442 CURVE SMOOTH",
"396 442 OFFCURVE",
"444 387 OFFCURVE",
"444 295 CURVE SMOOTH",
"444 0 LINE",
"514 0 LINE",
"514 303 LINE SMOOTH",
"514 430 OFFCURVE",
"450 508 OFFCURVE",
"329 508 CURVE SMOOTH",
"255 508 OFFCURVE",
"187 471 OFFCURVE",
"160 421 CURVE",
"160 720 LINE",
"90 720 LINE",
"90 0 LINE"
);
}
);
width = 600;
},
{
anchors = (
{
name = bottom;
position = "{301, 0}";
},
{
name = center;
position = "{301, 360}";
},
{
name = top;
position = "{126, 720}";
}
);
layerId = "AE089E19-69A3-44A1-A715-1879E192462D";
paths = (
{
closed = 1;
nodes = (
"179 0 LINE",
"179 264 LINE SMOOTH",
"179 357 OFFCURVE",
"238 408 OFFCURVE",
"311 408 CURVE SMOOTH",
"382 408 OFFCURVE",
"424 361 OFFCURVE",
"424 278 CURVE SMOOTH",
"424 0 LINE",
"530 0 LINE",
"530 293 LINE SMOOTH",
"530 431 OFFCURVE",
"464 508 OFFCURVE",
"342 508 CURVE SMOOTH",
"269 508 OFFCURVE",
"205 471 OFFCURVE",
"179 422 CURVE",
"179 720 LINE",
"73 720 LINE",
"73 0 LINE"
);
}
);
width = 600;
}
);
unicode = 0068;
},
{
glyphname = i;
lastChange = "2020-03-04 08:53:31 +0000";
layers = (
{
layerId = "50E3E9DC-0583-4D82-B33B-3FFFE976497D";
paths = (
{
closed = 1;
nodes = (
"495 0 LINE",
"495 60 LINE",
"335 60 LINE",
"335 426 LINE SMOOTH",
"335 471 OFFCURVE",
"310 496 OFFCURVE",
"265 496 CURVE SMOOTH",
"125 496 LINE",
"125 436 LINE",
"245 436 LINE SMOOTH",
"258 436 OFFCURVE",
"265 429 OFFCURVE",
"265 416 CURVE SMOOTH",
"265 60 LINE",
"105 60 LINE",
"105 0 LINE"
);
},
{
closed = 1;
nodes = (
"330 592 OFFCURVE",
"358 620 OFFCURVE",
"358 654 CURVE SMOOTH",
"358 688 OFFCURVE",
"330 716 OFFCURVE",
"296 716 CURVE SMOOTH",
"262 716 OFFCURVE",
"234 688 OFFCURVE",
"234 654 CURVE SMOOTH",
"234 620 OFFCURVE",
"262 592 OFFCURVE",
"296 592 CURVE SMOOTH"
);
}
);
width = 600;
},
{
associatedMasterId = "50E3E9DC-0583-4D82-B33B-3FFFE976497D";
layerId = "4A3ECE48-F12B-4F2F-8B69-2B221B2BAA77";
name = "Feb 12 20, 16:09";
paths = (
{
closed = 1;
nodes = (
"404 592 OFFCURVE",
"432 620 OFFCURVE",
"432 654 CURVE SMOOTH",
"432 688 OFFCURVE",
"404 716 OFFCURVE",
"370 716 CURVE SMOOTH",
"336 716 OFFCURVE",
"308 688 OFFCURVE",
"308 654 CURVE SMOOTH",
"308 620 OFFCURVE",
"336 592 OFFCURVE",
"370 592 CURVE SMOOTH"
);
},
{
closed = 1;
nodes = (
"310 60 OFFCURVE",
"305 67 OFFCURVE",
"307 80 CURVE SMOOTH",
"367 414 LINE SMOOTH",
"377 471 OFFCURVE",
"356 496 OFFCURVE",
"304 496 CURVE SMOOTH",
"151 496 LINE",
"141 436 LINE",
"281 436 LINE SMOOTH",
"294 436 OFFCURVE",
"299 429 OFFCURVE",
"297 416 CURVE SMOOTH",
"237 80 LINE SMOOTH",
"228 32 OFFCURVE",
"254 0 OFFCURVE",
"303 0 CURVE SMOOTH",
"473 0 LINE",
"483 60 LINE",
"323 60 LINE SMOOTH"
);
}
);
width = 600;
},
{
layerId = "AE089E19-69A3-44A1-A715-1879E192462D";
paths = (
{
closed = 1;
nodes = (
"509 0 LINE",
"509 92 LINE",
"353 92 LINE",
"353 377 LINE SMOOTH",
"353 460 OFFCURVE",
"317 496 OFFCURVE",
"234 496 CURVE SMOOTH",
"105 496 LINE",
"105 404 LINE",
"215 404 LINE SMOOTH",
"236 404 OFFCURVE",
"247 392 OFFCURVE",
"247 371 CURVE SMOOTH",
"247 92 LINE",
"91 92 LINE",
"91 0 LINE"
);
},
{
closed = 1;
nodes = (
"338 572 OFFCURVE",
"373 606 OFFCURVE",
"373 650 CURVE SMOOTH",
"373 694 OFFCURVE",
"338 727 OFFCURVE",
"290 727 CURVE SMOOTH",
"243 727 OFFCURVE",
"208 694 OFFCURVE",
"208 650 CURVE SMOOTH",
"208 606 OFFCURVE",
"243 572 OFFCURVE",
"290 572 CURVE SMOOTH"
);
}
);
width = 600;
}
);
unicode = 0069;
},
{
glyphname = idotless;
lastChange = "2020-03-04 08:53:31 +0000";
layers = (
{
anchors = (
{
name = bottom;
position = "{300, 0}";
},
{
name = ogonek;
position = "{495, 0}";
},
{
name = top;
position = "{300, 496}";
}
);
layerId = "50E3E9DC-0583-4D82-B33B-3FFFE976497D";
paths = (
{
closed = 1;
nodes = (
"495 0 LINE",
"495 60 LINE",
"335 60 LINE",
"335 426 LINE SMOOTH",
"335 471 OFFCURVE",
"310 496 OFFCURVE",
"265 496 CURVE SMOOTH",
"125 496 LINE",
"125 436 LINE",
"245 436 LINE SMOOTH",
"258 436 OFFCURVE",
"265 429 OFFCURVE",
"265 416 CURVE SMOOTH",
"265 60 LINE",
"105 60 LINE",
"105 0 LINE"
);
}
);
width = 600;
},
{
anchors = (
{
name = bottom;
position = "{300, 0}";
},
{
name = ogonek;
position = "{509, 0}";
},
{
name = top;
position = "{300, 496}";
}
);
layerId = "AE089E19-69A3-44A1-A715-1879E192462D";
paths = (
{
closed = 1;
nodes = (
"509 0 LINE",
"509 92 LINE",
"353 92 LINE",
"353 377 LINE SMOOTH",
"353 460 OFFCURVE",
"317 496 OFFCURVE",
"234 496 CURVE SMOOTH",
"105 496 LINE",
"105 404 LINE",
"215 404 LINE SMOOTH",
"236 404 OFFCURVE",
"247 392 OFFCURVE",
"247 371 CURVE SMOOTH",
"247 92 LINE",
"91 92 LINE",
"91 0 LINE"
);
}
);
width = 600;
}
);
unicode = 0131;
},
{
glyphname = j;
lastChange = "2020-03-04 08:53:31 +0000";
layers = (
{
background = {
paths = (
{
closed = 1;
nodes = (
"222 -220 LINE SMOOTH",
"310 -220 OFFCURVE",
"354 -179 OFFCURVE",
"354 -91 CURVE SMOOTH",
"354 496 LINE",
"284 496 LINE",
"284 -88 LINE SMOOTH",
"284 -141 OFFCURVE",
"263 -160 OFFCURVE",
"211 -160 CURVE SMOOTH",
"173 -160 LINE",
"173 -220 LINE"
);
},
{
closed = 1;
nodes = (
"348 617 OFFCURVE",
"370 639 OFFCURVE",
"370 669 CURVE SMOOTH",
"370 699 OFFCURVE",
"348 720 OFFCURVE",
"320 720 CURVE SMOOTH",
"292 720 OFFCURVE",
"269 699 OFFCURVE",
"269 669 CURVE SMOOTH",
"269 639 OFFCURVE",
"292 617 OFFCURVE",
"320 617 CURVE SMOOTH"
);
}
);
};
layerId = "50E3E9DC-0583-4D82-B33B-3FFFE976497D";
paths = (
{
closed = 1;
nodes = (
"284 -220 LINE SMOOTH",
"329 -220 OFFCURVE",
"354 -195 OFFCURVE",
"354 -150 CURVE SMOOTH",
"354 426 LINE SMOOTH",
"354 471 OFFCURVE",
"329 496 OFFCURVE",
"284 496 CURVE SMOOTH",
"144 496 LINE",
"144 436 LINE",
"264 436 LINE SMOOTH",
"277 436 OFFCURVE",
"284 429 OFFCURVE",
"284 416 CURVE SMOOTH",
"284 -140 LINE SMOOTH",
"284 -153 OFFCURVE",
"277 -160 OFFCURVE",
"264 -160 CURVE SMOOTH",
"64 -160 LINE",
"64 -220 LINE"
);
},
{
closed = 1;
nodes = (
"349 592 OFFCURVE",
"377 620 OFFCURVE",
"377 654 CURVE SMOOTH",
"377 688 OFFCURVE",
"349 716 OFFCURVE",
"315 716 CURVE SMOOTH",
"281 716 OFFCURVE",
"253 688 OFFCURVE",
"253 654 CURVE SMOOTH",
"253 620 OFFCURVE",
"281 592 OFFCURVE",
"315 592 CURVE SMOOTH"
);
}
);
width = 600;
},
{
layerId = "AE089E19-69A3-44A1-A715-1879E192462D";
paths = (
{
closed = 1;
nodes = (
"272 -220 LINE SMOOTH",
"354 -220 OFFCURVE",
"391 -184 OFFCURVE",
"391 -101 CURVE SMOOTH",
"391 377 LINE SMOOTH",
"391 460 OFFCURVE",
"354 496 OFFCURVE",
"272 496 CURVE SMOOTH",
"130 496 LINE",
"130 404 LINE",
"252 404 LINE SMOOTH",
"273 404 OFFCURVE",
"285 392 OFFCURVE",
"285 371 CURVE SMOOTH",
"285 -95 LINE SMOOTH",
"285 -116 OFFCURVE",
"273 -128 OFFCURVE",
"252 -128 CURVE SMOOTH",
"56 -128 LINE",
"56 -220 LINE"
);
},
{
closed = 1;
nodes = (
"376 572 OFFCURVE",
"411 606 OFFCURVE",
"411 650 CURVE SMOOTH",
"411 694 OFFCURVE",
"376 727 OFFCURVE",
"328 727 CURVE SMOOTH",
"281 727 OFFCURVE",
"246 694 OFFCURVE",
"246 650 CURVE SMOOTH",
"246 606 OFFCURVE",
"281 572 OFFCURVE",
"328 572 CURVE SMOOTH"
);
}
);
width = 600;
}
);
unicode = 006A;
},
{
glyphname = k;
lastChange = "2020-03-04 08:53:31 +0000";
layers = (
{
anchors = (
{
name = bottom;
position = "{300, 0}";
},
{
name = top;
position = "{155, 720}";
}
);
layerId = "50E3E9DC-0583-4D82-B33B-3FFFE976497D";
paths = (
{
closed = 1;
nodes = (
"524 0 LINE",
"268 269 LINE",
"268 275 LINE",
"497 496 LINE",
"407 496 LINE",
"178 273 LINE",
"437 0 LINE"
);
},
{
closed = 1;
nodes = (
"190 0 LINE",
"190 720 LINE",
"120 720 LINE",
"120 0 LINE"
);
}
);
width = 600;
},
{
anchors = (
{
name = bottom;
position = "{308, 0}";
},
{
name = top;
position = "{151, 720}";
}
);
layerId = "AE089E19-69A3-44A1-A715-1879E192462D";
paths = (
{
closed = 1;
nodes = (
"554 0 LINE",
"320 268 LINE",
"320 276 LINE",
"527 496 LINE",
"394 496 LINE",
"189 272 LINE",
"425 0 LINE"
);
},
{
closed = 1;
nodes = (
"204 0 LINE",
"204 720 LINE",
"98 720 LINE",
"98 0 LINE"
);
}
);
width = 600;
}
);
unicode = 006B;
},
{
glyphname = l;
lastChange = "2020-03-04 08:53:31 +0000";
layers = (
{
anchors = (
{
name = bottom;
position = "{300, 0}";
},
{
name = center;
position = "{300, 360}";
},
{
name = top;
position = "{300, 720}";
},
{
name = topright;
position = "{366, 496}";
}
);
layerId = "50E3E9DC-0583-4D82-B33B-3FFFE976497D";
paths = (
{
closed = 1;
nodes = (
"490 0 LINE",
"490 60 LINE",
"320 60 LINE",
"320 650 LINE SMOOTH",
"320 695 OFFCURVE",
"295 720 OFFCURVE",
"250 720 CURVE SMOOTH",
"100 720 LINE",
"100 660 LINE",
"230 660 LINE SMOOTH",
"243 660 OFFCURVE",
"250 653 OFFCURVE",
"250 640 CURVE SMOOTH",
"250 60 LINE",
"80 60 LINE",
"80 0 LINE"
);
}
);
width = 600;
},
{
anchors = (
{
name = bottom;
position = "{300, 0}";
},
{
name = center;
position = "{300, 360}";
},
{
name = top;
position = "{300, 720}";
},
{
name = topright;
position = "{376, 491}";
}
);
layerId = "AE089E19-69A3-44A1-A715-1879E192462D";
paths = (
{
closed = 1;
nodes = (
"507 0 LINE",
"507 92 LINE",
"340 92 LINE",
"340 601 LINE SMOOTH",
"340 678 OFFCURVE",
"298 720 OFFCURVE",
"221 720 CURVE SMOOTH",
"82 720 LINE",
"82 628 LINE",
"202 628 LINE SMOOTH",
"223 628 OFFCURVE",
"234 616 OFFCURVE",
"234 595 CURVE SMOOTH",
"234 92 LINE",
"68 92 LINE",
"68 0 LINE"
);
}
);
width = 600;
}
);
unicode = 006C;
},
{
glyphname = lslash;
lastChange = "2020-03-04 08:53:31 +0000";
layers = (
{
background = {
paths = (
{
closed = 1;
nodes = (
"395 439 LINE",
"395 494 LINE",
"174 398 LINE",
"174 343 LINE"
);
}
);
};
components = (
{
name = l;
}
);
layerId = "50E3E9DC-0583-4D82-B33B-3FFFE976497D";
paths = (
{
closed = 1;
nodes = (
"425 399 LINE",
"425 461 LINE",
"144 339 LINE",
"144 277 LINE"
);
}
);
width = 600;
},
{
components = (
{
alignment = -1;
name = l;
}
);
layerId = "AE089E19-69A3-44A1-A715-1879E192462D";
paths = (
{
closed = 1;
nodes = (
"446 393 LINE",
"446 485 LINE",
"128 349 LINE",
"128 257 LINE"
);
}
);
width = 600;
}
);
unicode = 0142;
},
{
glyphname = m;
lastChange = "2020-03-04 08:53:31 +0000";
layers = (
{
anchors = (
{
name = bottom;
position = "{300, 0}";
},
{
name = top;
position = "{300, 496}";
}
);
layerId = "50E3E9DC-0583-4D82-B33B-3FFFE976497D";
paths = (
{
closed = 1;
nodes = (
"115 0 LINE",
"115 337 LINE SMOOTH",
"115 405 OFFCURVE",
"151 442 OFFCURVE",
"199 442 CURVE SMOOTH",
"247 442 OFFCURVE",
"265 410 OFFCURVE",
"265 357 CURVE SMOOTH",
"265 0 LINE",
"335 0 LINE",
"335 337 LINE SMOOTH",
"335 405 OFFCURVE",
"371 442 OFFCURVE",
"419 442 CURVE SMOOTH",
"467 442 OFFCURVE",
"485 410 OFFCURVE",
"485 357 CURVE SMOOTH",
"485 0 LINE",
"555 0 LINE",
"555 365 LINE SMOOTH",
"555 450 OFFCURVE",
"517 508 OFFCURVE",
"439 508 CURVE SMOOTH",
"385 508 OFFCURVE",
"344 477 OFFCURVE",
"326 438 CURVE",
"323 438 LINE",
"306 481 OFFCURVE",
"272 508 OFFCURVE",
"219 508 CURVE SMOOTH",
"168 508 OFFCURVE",
"134 477 OFFCURVE",
"115 438 CURVE",
"111 438 LINE",
"102 496 LINE",
"45 496 LINE",
"45 0 LINE"
);
}
);
width = 600;
},
{
anchors = (
{
name = bottom;
position = "{300, 0}";
},
{
name = top;
position = "{300, 496}";
}
);
layerId = "AE089E19-69A3-44A1-A715-1879E192462D";
paths = (
{
closed = 1;
nodes = (
"127 0 LINE",
"127 335 LINE SMOOTH",
"127 385 OFFCURVE",
"154 415 OFFCURVE",
"190 415 CURVE SMOOTH",
"226 415 OFFCURVE",
"241 390 OFFCURVE",
"241 350 CURVE SMOOTH",
"241 0 LINE",
"344 0 LINE",
"344 335 LINE SMOOTH",
"344 385 OFFCURVE",
"370 415 OFFCURVE",
"406 415 CURVE SMOOTH",
"442 415 OFFCURVE",
"458 390 OFFCURVE",
"458 350 CURVE SMOOTH",
"458 0 LINE",
"560 0 LINE",
"560 371 LINE SMOOTH",
"560 457 OFFCURVE",
"521 508 OFFCURVE",
"448 508 CURVE SMOOTH",
"393 508 OFFCURVE",
"355 478 OFFCURVE",
"338 438 CURVE",
"334 438 LINE",
"317 483 OFFCURVE",
"279 508 OFFCURVE",
"231 508 CURVE SMOOTH",
"182 508 OFFCURVE",
"144 479 OFFCURVE",
"127 438 CURVE",
"122 438 LINE",
"113 496 LINE",
"25 496 LINE",
"25 0 LINE"
);
}
);
width = 600;
}
);
unicode = 006D;
},
{
glyphname = n;
lastChange = "2020-03-04 08:53:31 +0000";
layers = (
{
anchors = (
{
name = bottom;
position = "{302, 0}";
},
{
name = top;
position = "{319, 496}";
}
);
layerId = "50E3E9DC-0583-4D82-B33B-3FFFE976497D";
paths = (
{
closed = 1;
nodes = (
"164 0 LINE",
"164 277 LINE SMOOTH",
"164 384 OFFCURVE",
"231 442 OFFCURVE",
"314 442 CURVE SMOOTH",
"399 442 OFFCURVE",
"440 387 OFFCURVE",
"440 295 CURVE SMOOTH",
"440 0 LINE",
"510 0 LINE",
"510 303 LINE SMOOTH",
"510 434 OFFCURVE",
"450 508 OFFCURVE",
"329 508 CURVE SMOOTH",
"252 508 OFFCURVE",
"191 468 OFFCURVE",
"164 421 CURVE",
"160 421 LINE",
"151 496 LINE",
"94 496 LINE",
"94 0 LINE"
);
}
);
width = 600;
},
{
associatedMasterId = "50E3E9DC-0583-4D82-B33B-3FFFE976497D";
layerId = "8F75DBBD-AEA6-43A9-967C-7705087BB282";
name = "Feb 12 20, 15:49";
paths = (
{
closed = 1;
nodes = (
"140 0 LINE",
"140 277 LINE SMOOTH",
"140 384 OFFCURVE",
"207 447 OFFCURVE",
"290 447 CURVE SMOOTH",
"381 447 OFFCURVE",
"416 387 OFFCURVE",
"416 295 CURVE SMOOTH",
"416 0 LINE",
"486 0 LINE",
"486 303 LINE SMOOTH",
"486 434 OFFCURVE",
"431 508 OFFCURVE",
"305 508 CURVE SMOOTH",
"228 508 OFFCURVE",
"167 468 OFFCURVE",
"140 421 CURVE",
"136 421 LINE",
"127 496 LINE",
"70 496 LINE",
"70 0 LINE"
);
}
);
width = 600;
},
{
associatedMasterId = "50E3E9DC-0583-4D82-B33B-3FFFE976497D";
layerId = "400AB77B-B23C-4DBD-9F7C-FD64F8A83469";
name = "Feb 12 20, 16:02";
paths = (
{
closed = 1;
nodes = (
"110 0 LINE",
"159 277 LINE SMOOTH",
"178 384 OFFCURVE",
"248 447 OFFCURVE",
"333 447 CURVE SMOOTH",
"420 447 OFFCURVE",
"453 380 OFFCURVE",
"438 295 CURVE SMOOTH",
"386 0 LINE",
"456 0 LINE",
"510 303 LINE SMOOTH",
"530 414 OFFCURVE",
"480 508 OFFCURVE",
"353 508 CURVE SMOOTH",
"272 508 OFFCURVE",
"216 468 OFFCURVE",
"185 421 CURVE",
"181 421 LINE",
"181 445 LINE SMOOTH",
"181 478 OFFCURVE",
"161 496 OFFCURVE",
"128 496 CURVE SMOOTH",
"51 496 LINE",
"40 436 LINE",
"92 436 LINE SMOOTH",
"108 436 OFFCURVE",
"116 426 OFFCURVE",
"113 411 CURVE SMOOTH",
"40 0 LINE"
);
}
);
width = 600;
},
{
anchors = (
{
name = bottom;
position = "{302, 0}";
},
{
name = top;
position = "{325, 496}";
}
);
layerId = "AE089E19-69A3-44A1-A715-1879E192462D";
paths = (
{
closed = 1;
nodes = (
"184 0 LINE",
"184 264 LINE SMOOTH",
"184 357 OFFCURVE",
"239 408 OFFCURVE",
"312 408 CURVE SMOOTH",
"386 408 OFFCURVE",
"420 360 OFFCURVE",
"420 278 CURVE SMOOTH",
"420 0 LINE",
"526 0 LINE",
"526 291 LINE SMOOTH",
"526 433 OFFCURVE",
"464 508 OFFCURVE",
"343 508 CURVE SMOOTH",
"269 508 OFFCURVE",
"210 470 OFFCURVE",
"184 422 CURVE",
"179 422 LINE",
"170 496 LINE",
"78 496 LINE",
"78 0 LINE"
);
}
);
width = 600;
}
);
unicode = 006E;
},
{
glyphname = o;
lastChange = "2020-03-04 08:53:31 +0000";
layers = (
{
anchors = (
{
name = bottom;
position = "{300, 0}";
},
{
name = center;
position = "{300, 248}";
},
{
name = ogonek;
position = "{377, 0}";
},
{
name = top;
position = "{300, 496}";
},
{
name = topright;
position = "{580, 496}";
}
);
layerId = "50E3E9DC-0583-4D82-B33B-3FFFE976497D";
paths = (
{
closed = 1;
nodes = (
"437 -12 OFFCURVE",
"535 89 OFFCURVE",
"535 248 CURVE SMOOTH",
"535 407 OFFCURVE",
"437 508 OFFCURVE",
"300 508 CURVE SMOOTH",
"162 508 OFFCURVE",
"65 407 OFFCURVE",
"65 248 CURVE SMOOTH",
"65 89 OFFCURVE",
"162 -12 OFFCURVE",
"300 -12 CURVE SMOOTH"
);
},
{
closed = 1;
nodes = (
"209 54 OFFCURVE",
"137 115 OFFCURVE",
"137 248 CURVE SMOOTH",
"137 381 OFFCURVE",
"209 442 OFFCURVE",
"300 442 CURVE SMOOTH",
"391 442 OFFCURVE",
"463 381 OFFCURVE",
"463 248 CURVE SMOOTH",
"463 115 OFFCURVE",
"391 54 OFFCURVE",
"300 54 CURVE SMOOTH"
);
}
);
width = 600;
},
{
anchors = (
{
name = bottom;
position = "{300, 0}";
},
{
name = center;
position = "{300, 248}";
},
{
name = ogonek;
position = "{381, 0}";
},
{
name = top;
position = "{300, 496}";
},
{
name = topright;
position = "{580, 496}";
}
);
layerId = "AE089E19-69A3-44A1-A715-1879E192462D";
paths = (
{
closed = 1;
nodes = (
"443 -12 OFFCURVE",
"547 90 OFFCURVE",
"547 248 CURVE SMOOTH",
"547 406 OFFCURVE",
"444 508 OFFCURVE",
"301 508 CURVE SMOOTH",
"157 508 OFFCURVE",
"53 406 OFFCURVE",
"53 248 CURVE SMOOTH",
"53 90 OFFCURVE",
"157 -12 OFFCURVE",
"300 -12 CURVE SMOOTH"
);
},
{
closed = 1;
nodes = (
"224 89 OFFCURVE",
"160 139 OFFCURVE",
"160 248 CURVE SMOOTH",
"160 357 OFFCURVE",
"225 407 OFFCURVE",
"301 407 CURVE SMOOTH",
"376 407 OFFCURVE",
"441 357 OFFCURVE",
"441 248 CURVE SMOOTH",
"441 139 OFFCURVE",
"376 89 OFFCURVE",
"300 89 CURVE SMOOTH"
);
}
);
width = 600;
}
);
unicode = 006F;
},
{
glyphname = oslash;
lastChange = "2020-03-04 08:53:31 +0000";
layers = (
{
components = (
{
name = o;
}
);
layerId = "50E3E9DC-0583-4D82-B33B-3FFFE976497D";
paths = (
{
closed = 1;
nodes = (
"126 -20 LINE",
"551 516 LINE",
"473 516 LINE",
"47 -20 LINE"
);
}
);
width = 600;
},
{
components = (
{
alignment = -1;
name = o;
}
);
layerId = "AE089E19-69A3-44A1-A715-1879E192462D";
paths = (
{
closed = 1;
nodes = (
"135 -20 LINE",
"559 516 LINE",
"464 516 LINE",
"40 -20 LINE"
);
}
);
width = 600;
}
);
unicode = 00F8;
},
{
glyphname = oe;
lastChange = "2020-03-04 08:53:31 +0000";
layers = (
{
anchors = (
{
name = bottom;
position = "{300, 0}";
},
{
name = top;
position = "{300, 496}";
}
);
layerId = "50E3E9DC-0583-4D82-B33B-3FFFE976497D";
paths = (
{
closed = 1;
nodes = (
"232 -12 OFFCURVE",
"274 21 OFFCURVE",
"301 82 CURVE",
"326 19 OFFCURVE",
"370 -12 OFFCURVE",
"428 -12 CURVE SMOOTH",
"503 -12 OFFCURVE",
"554 59 OFFCURVE",
"566 149 CURVE",
"498 149 LINE",
"487 90 OFFCURVE",
"464 54 OFFCURVE",
"428 54 CURVE SMOOTH",
"376 54 OFFCURVE",
"340 116 OFFCURVE",
"340 247 CURVE SMOOTH",
"340 274 LINE SMOOTH",
"340 380 OFFCURVE",
"380 444 OFFCURVE",
"427 444 CURVE SMOOTH",
"472 444 OFFCURVE",
"504 390 OFFCURVE",
"506 297 CURVE",
"326 297 LINE",
"326 233 LINE",
"573 233 LINE",
"574 257 OFFCURVE",
"574 274 OFFCURVE",
"574 292 CURVE SMOOTH",
"574 427 OFFCURVE",
"523 508 OFFCURVE",
"434 508 CURVE SMOOTH",
"375 508 OFFCURVE",
"324 471 OFFCURVE",
"305 412 CURVE",
"283 484 OFFCURVE",
"232 508 OFFCURVE",
"178 508 CURVE SMOOTH",
"82 508 OFFCURVE",
"25 407 OFFCURVE",
"25 248 CURVE SMOOTH",
"25 89 OFFCURVE",
"82 -12 OFFCURVE",
"178 -12 CURVE SMOOTH"
);
},
{
closed = 1;
nodes = (
"130 54 OFFCURVE",
"97 115 OFFCURVE",
"97 248 CURVE SMOOTH",
"97 381 OFFCURVE",
"130 442 OFFCURVE",
"184 442 CURVE SMOOTH",
"238 442 OFFCURVE",
"271 381 OFFCURVE",
"271 248 CURVE SMOOTH",
"271 115 OFFCURVE",
"238 54 OFFCURVE",
"184 54 CURVE SMOOTH"
);
}
);
width = 600;
},
{
anchors = (
{
name = bottom;
position = "{300, 0}";
},
{
name = top;
position = "{300, 496}";
}
);
layerId = "AE089E19-69A3-44A1-A715-1879E192462D";
paths = (
{
closed = 1;
nodes = (
"237 -12 OFFCURVE",
"273 18 OFFCURVE",
"302 65 CURVE",
"327 17 OFFCURVE",
"371 -12 OFFCURVE",
"423 -12 CURVE SMOOTH",
"512 -12 OFFCURVE",
"558 60 OFFCURVE",
"570 156 CURVE",
"474 156 LINE",
"468 110 OFFCURVE",
"453 83 OFFCURVE",
"422 83 CURVE SMOOTH",
"383 83 OFFCURVE",
"358 136 OFFCURVE",
"358 237 CURVE SMOOTH",
"358 265 LINE SMOOTH",
"358 360 OFFCURVE",
"387 416 OFFCURVE",
"426 416 CURVE SMOOTH",
"458 416 OFFCURVE",
"482 378 OFFCURVE",
"484 304 CURVE",
"315 304 LINE",
"315 223 LINE",
"579 223 LINE",
"580 243 OFFCURVE",
"581 260 OFFCURVE",
"581 275 CURVE SMOOTH",
"581 411 OFFCURVE",
"540 508 OFFCURVE",
"430 508 CURVE SMOOTH",
"374 508 OFFCURVE",
"329 475 OFFCURVE",
"308 428 CURVE",
"282 484 OFFCURVE",
"240 508 OFFCURVE",
"184 508 CURVE SMOOTH",
"86 508 OFFCURVE",
"19 406 OFFCURVE",
"19 248 CURVE SMOOTH",
"19 90 OFFCURVE",
"83 -12 OFFCURVE",
"184 -12 CURVE SMOOTH"
);
},
{
closed = 1;
nodes = (
"146 84 OFFCURVE",
"121 134 OFFCURVE",
"121 248 CURVE SMOOTH",
"121 362 OFFCURVE",
"146 412 OFFCURVE",
"191 412 CURVE SMOOTH",
"237 412 OFFCURVE",
"262 362 OFFCURVE",
"262 248 CURVE SMOOTH",
"262 134 OFFCURVE",
"236 84 OFFCURVE",
"191 84 CURVE SMOOTH"
);
}
);
width = 600;
}
);
unicode = 0153;
},
{
glyphname = p;
lastChange = "2020-03-04 08:53:31 +0000";
layers = (
{
anchors = (
{
name = bottom;
position = "{300, 0}";
},
{
name = top;
position = "{300, 496}";
}
);
layerId = "50E3E9DC-0583-4D82-B33B-3FFFE976497D";
paths = (
{
closed = 1;
nodes = (
"153 -220 LINE",
"153 76 LINE",
"176 29 OFFCURVE",
"232 -12 OFFCURVE",
"311 -12 CURVE SMOOTH",
"440 -12 OFFCURVE",
"530 81 OFFCURVE",
"530 247 CURVE SMOOTH",
"530 413 OFFCURVE",
"439 508 OFFCURVE",
"316 508 CURVE SMOOTH",
"238 508 OFFCURVE",
"178 466 OFFCURVE",
"153 410 CURVE",
"147 410 LINE",
"137 496 LINE",
"83 496 LINE",
"83 -220 LINE"
);
},
{
closed = 1;
nodes = (
"217 54 OFFCURVE",
"153 117 OFFCURVE",
"153 248 CURVE SMOOTH",
"153 379 OFFCURVE",
"217 442 OFFCURVE",
"306 442 CURVE SMOOTH",
"395 442 OFFCURVE",
"459 379 OFFCURVE",
"459 248 CURVE SMOOTH",
"459 117 OFFCURVE",
"395 54 OFFCURVE",
"306 54 CURVE SMOOTH"
);
}
);
width = 600;
},
{
anchors = (
{
name = bottom;
position = "{300, 0}";
},
{
name = top;
position = "{300, 496}";
}
);
layerId = "AE089E19-69A3-44A1-A715-1879E192462D";
paths = (
{
closed = 1;
nodes = (
"175 -220 LINE",
"175 60 LINE",
"199 22 OFFCURVE",
"249 -12 OFFCURVE",
"322 -12 CURVE SMOOTH",
"446 -12 OFFCURVE",
"543 78 OFFCURVE",
"543 248 CURVE SMOOTH",
"543 419 OFFCURVE",
"448 508 OFFCURVE",
"332 508 CURVE SMOOTH",
"257 508 OFFCURVE",
"202 469 OFFCURVE",
"175 420 CURVE",
"169 420 LINE",
"161 496 LINE",
"69 496 LINE",
"69 -220 LINE"
);
},
{
closed = 1;
nodes = (
"228 89 OFFCURVE",
"172 142 OFFCURVE",
"172 248 CURVE SMOOTH",
"172 354 OFFCURVE",
"228 407 OFFCURVE",
"304 407 CURVE SMOOTH",
"379 407 OFFCURVE",
"435 355 OFFCURVE",
"435 249 CURVE SMOOTH",
"435 142 OFFCURVE",
"379 89 OFFCURVE",
"304 89 CURVE SMOOTH"
);
}
);
width = 600;
}
);
unicode = 0070;
},
{
glyphname = thorn;
lastChange = "2020-03-04 08:53:31 +0000";
layers = (
{
anchors = (
{
name = bottom;
position = "{300, 0}";
},
{
name = top;
position = "{300, 496}";
}
);
layerId = "50E3E9DC-0583-4D82-B33B-3FFFE976497D";
paths = (
{
closed = 1;
nodes = (
"153 -220 LINE",
"153 76 LINE",
"176 29 OFFCURVE",
"232 -12 OFFCURVE",
"311 -12 CURVE SMOOTH",
"440 -12 OFFCURVE",
"530 81 OFFCURVE",
"530 247 CURVE SMOOTH",
"530 413 OFFCURVE",
"439 508 OFFCURVE",
"316 508 CURVE SMOOTH",
"238 508 OFFCURVE",
"178 466 OFFCURVE",
"153 410 CURVE",
"153 720 LINE",
"83 720 LINE",
"83 -220 LINE"
);
},
{
closed = 1;
nodes = (
"217 54 OFFCURVE",
"153 117 OFFCURVE",
"153 248 CURVE SMOOTH",
"153 379 OFFCURVE",
"217 442 OFFCURVE",
"306 442 CURVE SMOOTH",
"395 442 OFFCURVE",
"459 379 OFFCURVE",
"459 248 CURVE SMOOTH",
"459 117 OFFCURVE",
"395 54 OFFCURVE",
"306 54 CURVE SMOOTH"
);
}
);
width = 600;
},
{
anchors = (
{
name = bottom;
position = "{300, 0}";
},
{
name = top;
position = "{300, 496}";
}
);
layerId = "AE089E19-69A3-44A1-A715-1879E192462D";
paths = (
{
closed = 1;
nodes = (
"175 -220 LINE",
"175 60 LINE",
"199 22 OFFCURVE",
"249 -12 OFFCURVE",
"322 -12 CURVE SMOOTH",
"446 -12 OFFCURVE",
"543 78 OFFCURVE",
"543 248 CURVE SMOOTH",
"543 419 OFFCURVE",
"448 508 OFFCURVE",
"332 508 CURVE SMOOTH",
"257 508 OFFCURVE",
"202 469 OFFCURVE",
"175 420 CURVE",
"175 720 LINE",
"69 720 LINE",
"69 -220 LINE"
);
},
{
closed = 1;
nodes = (
"228 89 OFFCURVE",
"172 142 OFFCURVE",
"172 248 CURVE SMOOTH",
"172 354 OFFCURVE",
"228 407 OFFCURVE",
"304 407 CURVE SMOOTH",
"379 407 OFFCURVE",
"435 355 OFFCURVE",
"435 249 CURVE SMOOTH",
"435 142 OFFCURVE",
"379 89 OFFCURVE",
"304 89 CURVE SMOOTH"
);
}
);
width = 600;
}
);
unicode = 00FE;
},
{
glyphname = q;
lastChange = "2020-03-04 08:53:31 +0000";
layers = (
{
anchors = (
{
name = bottom;
position = "{300, 0}";
},
{
name = top;
position = "{300, 496}";
}
);
layerId = "50E3E9DC-0583-4D82-B33B-3FFFE976497D";
paths = (
{
closed = 1;
nodes = (
"517 -220 LINE",
"517 496 LINE",
"463 496 LINE",
"453 416 LINE",
"447 416 LINE",
"420 469 OFFCURVE",
"364 508 OFFCURVE",
"284 508 CURVE SMOOTH",
"161 508 OFFCURVE",
"70 413 OFFCURVE",
"70 247 CURVE SMOOTH",
"70 81 OFFCURVE",
"160 -12 OFFCURVE",
"289 -12 CURVE SMOOTH",
"374 -12 OFFCURVE",
"420 29 OFFCURVE",
"447 80 CURVE",
"447 -220 LINE"
);
},
{
closed = 1;
nodes = (
"205 54 OFFCURVE",
"141 117 OFFCURVE",
"141 248 CURVE SMOOTH",
"141 379 OFFCURVE",
"205 442 OFFCURVE",
"294 442 CURVE SMOOTH",
"383 442 OFFCURVE",
"447 379 OFFCURVE",
"447 248 CURVE SMOOTH",
"447 117 OFFCURVE",
"383 54 OFFCURVE",
"294 54 CURVE SMOOTH"
);
}
);
width = 600;
},
{
anchors = (
{
name = bottom;
position = "{300, 0}";
},
{
name = top;
position = "{300, 496}";
}
);
layerId = "AE089E19-69A3-44A1-A715-1879E192462D";
paths = (
{
closed = 1;
nodes = (
"538 -220 LINE",
"538 496 LINE",
"447 496 LINE",
"438 425 LINE",
"432 425 LINE",
"404 475 OFFCURVE",
"357 508 OFFCURVE",
"278 508 CURVE SMOOTH",
"163 508 OFFCURVE",
"64 419 OFFCURVE",
"64 248 CURVE SMOOTH",
"64 78 OFFCURVE",
"162 -12 OFFCURVE",
"285 -12 CURVE SMOOTH",
"362 -12 OFFCURVE",
"407 22 OFFCURVE",
"432 64 CURVE",
"432 -220 LINE"
);
},
{
closed = 1;
nodes = (
"228 89 OFFCURVE",
"172 142 OFFCURVE",
"172 249 CURVE SMOOTH",
"172 355 OFFCURVE",
"228 407 OFFCURVE",
"304 407 CURVE SMOOTH",
"380 407 OFFCURVE",
"436 354 OFFCURVE",
"436 248 CURVE SMOOTH",
"436 142 OFFCURVE",
"380 89 OFFCURVE",
"304 89 CURVE SMOOTH"
);
}
);
width = 600;
}
);
unicode = 0071;
},
{
glyphname = r;
lastChange = "2020-03-11 08:56:44 +0000";
layers = (
{
anchors = (
{
name = bottom;
position = "{255, 0}";
},
{
name = top;
position = "{360, 496}";
}
);
layerId = "50E3E9DC-0583-4D82-B33B-3FFFE976497D";
paths = (
{
closed = 1;
nodes = (
"447 0 LINE",
"447 60 LINE",
"290 60 LINE",
"290 287 LINE SMOOTH",
"290 376 OFFCURVE",
"337 434 OFFCURVE",
"418 434 CURVE SMOOTH",
"518 434 LINE",
"518 508 LINE",
"418 508 LINE SMOOTH",
"348 508 OFFCURVE",
"305 472 OFFCURVE",
"290 409 CURVE",
"286 409 LINE",
"286 437 LINE SMOOTH",
"286 476 OFFCURVE",
"263 496 OFFCURVE",
"225 496 CURVE SMOOTH",
"103 496 LINE",
"103 436 LINE",
"200 436 LINE SMOOTH",
"211 436 OFFCURVE",
"220 427 OFFCURVE",
"220 416 CURVE SMOOTH",
"220 60 LINE",
"88 60 LINE",
"88 0 LINE"
);
}
);
width = 600;
},
{
anchors = (
{
name = bottom;
position = "{251, 0}";
},
{
name = top;
position = "{360, 496}";
}
);
layerId = "AE089E19-69A3-44A1-A715-1879E192462D";
paths = (
{
closed = 1;
nodes = (
"458 0 LINE",
"458 92 LINE",
"304 92 LINE",
"304 257 LINE SMOOTH",
"304 333 OFFCURVE",
"348 396 OFFCURVE",
"427 396 CURVE SMOOTH",
"535 396 LINE",
"535 508 LINE",
"458 508 LINE SMOOTH",
"365 508 OFFCURVE",
"319 469 OFFCURVE",
"304 395 CURVE",
"299 395 LINE",
"299 407 LINE SMOOTH",
"299 463 OFFCURVE",
"261 496 OFFCURVE",
"206 496 CURVE SMOOTH",
"87 496 LINE",
"87 404 LINE",
"166 404 LINE SMOOTH",
"186 404 OFFCURVE",
"198 392 OFFCURVE",
"198 371 CURVE SMOOTH",
"198 92 LINE",
"77 92 LINE",
"77 0 LINE"
);
}
);
width = 600;
}
);
unicode = 0072;
},
{
glyphname = s;
lastChange = "2020-03-04 08:53:31 +0000";
layers = (
{
anchors = (
{
name = bottom;
position = "{300, 0}";
},
{
name = top;
position = "{300, 496}";
}
);
layerId = "50E3E9DC-0583-4D82-B33B-3FFFE976497D";
paths = (
{
closed = 1;
nodes = (
"421 -12 OFFCURVE",
"501 54 OFFCURVE",
"500 143 CURVE SMOOTH",
"499 251 OFFCURVE",
"415 279 OFFCURVE",
"311 289 CURVE SMOOTH",
"218 298 OFFCURVE",
"177 328 OFFCURVE",
"177 370 CURVE SMOOTH",
"177 416 OFFCURVE",
"218 444 OFFCURVE",
"290 444 CURVE SMOOTH",
"358 444 OFFCURVE",
"409 409 OFFCURVE",
"412 357 CURVE",
"483 357 LINE",
"475 455 OFFCURVE",
"406 508 OFFCURVE",
"292 508 CURVE SMOOTH",
"177 508 OFFCURVE",
"105 448 OFFCURVE",
"105 369 CURVE SMOOTH",
"105 280 OFFCURVE",
"180 238 OFFCURVE",
"288 226 CURVE SMOOTH",
"382 215 OFFCURVE",
"428 201 OFFCURVE",
"428 140 CURVE SMOOTH",
"428 96 OFFCURVE",
"390 52 OFFCURVE",
"308 52 CURVE SMOOTH",
"222 52 OFFCURVE",
"169 95 OFFCURVE",
"161 154 CURVE",
"88 154 LINE",
"97 50 OFFCURVE",
"182 -12 OFFCURVE",
"306 -12 CURVE SMOOTH"
);
}
);
width = 600;
},
{
anchors = (
{
name = bottom;
position = "{300, 0}";
},
{
name = top;
position = "{300, 496}";
}
);
layerId = "AE089E19-69A3-44A1-A715-1879E192462D";
paths = (
{
closed = 1;
nodes = (
"427 -12 OFFCURVE",
"512 56 OFFCURVE",
"511 147 CURVE SMOOTH",
"510 256 OFFCURVE",
"429 286 OFFCURVE",
"320 298 CURVE SMOOTH",
"243 306 OFFCURVE",
"204 329 OFFCURVE",
"204 364 CURVE SMOOTH",
"204 397 OFFCURVE",
"238 420 OFFCURVE",
"293 420 CURVE SMOOTH",
"346 420 OFFCURVE",
"385 395 OFFCURVE",
"391 355 CURVE",
"493 355 LINE",
"482 450 OFFCURVE",
"415 508 OFFCURVE",
"294 508 CURVE SMOOTH",
"173 508 OFFCURVE",
"101 449 OFFCURVE",
"101 363 CURVE SMOOTH",
"101 271 OFFCURVE",
"180 227 OFFCURVE",
"283 215 CURVE SMOOTH",
"361 206 OFFCURVE",
"403 192 OFFCURVE",
"403 142 CURVE SMOOTH",
"403 107 OFFCURVE",
"367 77 OFFCURVE",
"305 77 CURVE SMOOTH",
"239 77 OFFCURVE",
"199 109 OFFCURVE",
"191 156 CURVE",
"82 156 LINE",
"92 54 OFFCURVE",
"173 -12 OFFCURVE",
"304 -12 CURVE SMOOTH"
);
}
);
width = 600;
}
);
unicode = 0073;
},
{
glyphname = germandbls;
lastChange = "2020-03-04 08:53:31 +0000";
layers = (
{
layerId = "50E3E9DC-0583-4D82-B33B-3FFFE976497D";
paths = (
{
closed = 1;
nodes = (
"502 -12 OFFCURVE",
"569 62 OFFCURVE",
"569 155 CURVE SMOOTH",
"569 240 OFFCURVE",
"526 287 OFFCURVE",
"443 314 CURVE SMOOTH",
"370 338 OFFCURVE",
"351 355 OFFCURVE",
"351 388 CURVE SMOOTH",
"351 450 OFFCURVE",
"464 449 OFFCURVE",
"464 561 CURVE SMOOTH",
"464 650 OFFCURVE",
"398 720 OFFCURVE",
"274 720 CURVE SMOOTH",
"137 720 OFFCURVE",
"72 631 OFFCURVE",
"72 512 CURVE SMOOTH",
"72 0 LINE",
"142 0 LINE",
"142 504 LINE SMOOTH",
"142 598 OFFCURVE",
"183 656 OFFCURVE",
"273 656 CURVE SMOOTH",
"348 656 OFFCURVE",
"394 617 OFFCURVE",
"394 556 CURVE SMOOTH",
"394 478 OFFCURVE",
"280 475 OFFCURVE",
"280 387 CURVE SMOOTH",
"280 319 OFFCURVE",
"330 283 OFFCURVE",
"401 261 CURVE SMOOTH",
"469 239 OFFCURVE",
"497 210 OFFCURVE",
"497 150 CURVE SMOOTH",
"497 91 OFFCURVE",
"457 52 OFFCURVE",
"389 52 CURVE SMOOTH",
"320 52 OFFCURVE",
"282 97 OFFCURVE",
"277 167 CURVE",
"202 167 LINE",
"209 54 OFFCURVE",
"276 -12 OFFCURVE",
"389 -12 CURVE SMOOTH"
);
}
);
width = 600;
},
{
layerId = "AE089E19-69A3-44A1-A715-1879E192462D";
paths = (
{
closed = 1;
nodes = (
"508 -12 OFFCURVE",
"578 64 OFFCURVE",
"578 164 CURVE SMOOTH",
"578 244 OFFCURVE",
"540 293 OFFCURVE",
"461 321 CURVE SMOOTH",
"395 345 OFFCURVE",
"375 361 OFFCURVE",
"375 387 CURVE SMOOTH",
"375 438 OFFCURVE",
"475 440 OFFCURVE",
"475 553 CURVE SMOOTH",
"475 649 OFFCURVE",
"401 720 OFFCURVE",
"272 720 CURVE SMOOTH",
"125 720 OFFCURVE",
"53 625 OFFCURVE",
"53 503 CURVE SMOOTH",
"53 0 LINE",
"159 0 LINE",
"159 503 LINE SMOOTH",
"159 579 OFFCURVE",
"196 625 OFFCURVE",
"271 625 CURVE SMOOTH",
"331 625 OFFCURVE",
"370 592 OFFCURVE",
"370 543 CURVE SMOOTH",
"370 472 OFFCURVE",
"268 477 OFFCURVE",
"268 376 CURVE SMOOTH",
"268 313 OFFCURVE",
"314 276 OFFCURVE",
"381 252 CURVE SMOOTH",
"447 228 OFFCURVE",
"473 203 OFFCURVE",
"473 157 CURVE SMOOTH",
"473 110 OFFCURVE",
"441 81 OFFCURVE",
"391 81 CURVE SMOOTH",
"338 81 OFFCURVE",
"307 118 OFFCURVE",
"304 172 CURVE",
"201 172 LINE",
"206 56 OFFCURVE",
"272 -12 OFFCURVE",
"388 -12 CURVE SMOOTH"
);
}
);
width = 600;
}
);
unicode = 00DF;
},
{
glyphname = t;
lastChange = "2020-03-04 08:53:31 +0000";
layers = (
{
anchors = (
{
name = bottom;
position = "{324, 0}";
},
{
name = center;
position = "{300, 248}";
},
{
name = top;
position = "{300, 496}";
},
{
name = topright;
position = "{300, 596}";
}
);
layerId = "50E3E9DC-0583-4D82-B33B-3FFFE976497D";
paths = (
{
closed = 1;
nodes = (
"483 0 LINE",
"483 64 LINE",
"375 64 LINE SMOOTH",
"307 64 OFFCURVE",
"283 85 OFFCURVE",
"283 145 CURVE SMOOTH",
"283 436 LINE",
"483 436 LINE",
"483 496 LINE",
"283 496 LINE",
"283 621 LINE",
"233 621 LINE",
"221 546 LINE SMOOTH",
"216 512 OFFCURVE",
"195 496 OFFCURVE",
"162 496 CURVE SMOOTH",
"87 496 LINE",
"87 436 LINE",
"213 436 LINE",
"213 145 LINE SMOOTH",
"213 36 OFFCURVE",
"264 0 OFFCURVE",
"351 0 CURVE SMOOTH"
);
}
);
width = 600;
},
{
anchors = (
{
name = bottom;
position = "{329, 0}";
},
{
name = center;
position = "{300, 248}";
},
{
name = top;
position = "{300, 496}";
},
{
name = topright;
position = "{355, 596}";
}
);
layerId = "AE089E19-69A3-44A1-A715-1879E192462D";
paths = (
{
closed = 1;
nodes = (
"495 0 LINE",
"495 94 LINE",
"379 94 LINE SMOOTH",
"322 94 OFFCURVE",
"301 112 OFFCURVE",
"301 164 CURVE SMOOTH",
"301 406 LINE",
"497 406 LINE",
"497 496 LINE",
"301 496 LINE",
"301 626 LINE",
"219 626 LINE",
"204 546 LINE SMOOTH",
"198 512 OFFCURVE",
"178 496 OFFCURVE",
"144 496 CURVE SMOOTH",
"70 496 LINE",
"70 406 LINE",
"195 406 LINE",
"195 162 LINE SMOOTH",
"195 40 OFFCURVE",
"257 0 OFFCURVE",
"354 0 CURVE SMOOTH"
);
}
);
width = 600;
}
);
unicode = 0074;
},
{
glyphname = u;
lastChange = "2020-03-04 08:53:31 +0000";
layers = (
{
anchors = (
{
name = bottom;
position = "{300, 0}";
},
{
name = ogonek;
position = "{506, 0}";
},
{
name = top;
position = "{298, 496}";
},
{
name = topright;
position = "{580, 496}";
}
);
layerId = "50E3E9DC-0583-4D82-B33B-3FFFE976497D";
paths = (
{
closed = 1;
nodes = (
"348 -12 OFFCURVE",
"409 28 OFFCURVE",
"436 75 CURVE",
"440 75 LINE",
"449 0 LINE",
"506 0 LINE",
"506 496 LINE",
"436 496 LINE",
"436 219 LINE SMOOTH",
"436 112 OFFCURVE",
"369 54 OFFCURVE",
"286 54 CURVE SMOOTH",
"201 54 OFFCURVE",
"160 109 OFFCURVE",
"160 201 CURVE SMOOTH",
"160 496 LINE",
"90 496 LINE",
"90 193 LINE SMOOTH",
"90 62 OFFCURVE",
"150 -12 OFFCURVE",
"271 -12 CURVE SMOOTH"
);
}
);
width = 600;
},
{
associatedMasterId = "50E3E9DC-0583-4D82-B33B-3FFFE976497D";
layerId = "C4F3C86A-9FAC-40F0-81D0-C01BE4D9EBB4";
name = "Feb 13 20, 16:05";
paths = (
{
closed = 1;
nodes = (
"328 -12 OFFCURVE",
"389 28 OFFCURVE",
"416 75 CURVE",
"420 75 LINE",
"420 30 OFFCURVE",
"441 0 OFFCURVE",
"486 0 CURVE SMOOTH",
"556 0 LINE",
"556 60 LINE",
"506 60 LINE SMOOTH",
"493 60 OFFCURVE",
"486 67 OFFCURVE",
"486 80 CURVE SMOOTH",
"486 496 LINE",
"416 496 LINE",
"416 219 LINE SMOOTH",
"416 112 OFFCURVE",
"349 54 OFFCURVE",
"266 54 CURVE SMOOTH",
"181 54 OFFCURVE",
"140 109 OFFCURVE",
"140 201 CURVE SMOOTH",
"140 496 LINE",
"70 496 LINE",
"70 193 LINE SMOOTH",
"70 62 OFFCURVE",
"130 -12 OFFCURVE",
"251 -12 CURVE SMOOTH"
);
}
);
width = 600;
},
{
anchors = (
{
name = bottom;
position = "{300, 0}";
},
{
name = ogonek;
position = "{522, 0}";
},
{
name = top;
position = "{297, 496}";
},
{
name = topright;
position = "{580, 496}";
}
);
layerId = "AE089E19-69A3-44A1-A715-1879E192462D";
paths = (
{
closed = 1;
nodes = (
"330 -12 OFFCURVE",
"389 26 OFFCURVE",
"416 74 CURVE",
"421 74 LINE",
"430 0 LINE",
"522 0 LINE",
"522 496 LINE",
"416 496 LINE",
"416 232 LINE SMOOTH",
"416 139 OFFCURVE",
"360 88 OFFCURVE",
"287 88 CURVE SMOOTH",
"213 88 OFFCURVE",
"179 136 OFFCURVE",
"179 218 CURVE SMOOTH",
"179 496 LINE",
"73 496 LINE",
"73 205 LINE SMOOTH",
"73 63 OFFCURVE",
"136 -12 OFFCURVE",
"256 -12 CURVE SMOOTH"
);
}
);
width = 600;
}
);
unicode = 0075;
},
{
glyphname = v;
lastChange = "2020-03-04 08:53:31 +0000";
layers = (
{
anchors = (
{
name = bottom;
position = "{300, 0}";
},
{
name = top;
position = "{300, 496}";
}
);
layerId = "50E3E9DC-0583-4D82-B33B-3FFFE976497D";
paths = (
{
closed = 1;
nodes = (
"339 0 LINE",
"560 496 LINE",
"479 496 LINE",
"300 80 LINE",
"122 496 LINE",
"40 496 LINE",
"260 0 LINE"
);
}
);
width = 600;
},
{
anchors = (
{
name = bottom;
position = "{300, 0}";
},
{
name = top;
position = "{300, 496}";
}
);
layerId = "AE089E19-69A3-44A1-A715-1879E192462D";
paths = (
{
closed = 1;
nodes = (
"363 0 LINE",
"579 496 LINE",
"460 496 LINE",
"300 112 LINE",
"141 496 LINE",
"21 496 LINE",
"236 0 LINE"
);
}
);
width = 600;
}
);
unicode = 0076;
},
{
glyphname = w;
lastChange = "2020-03-04 08:53:31 +0000";
layers = (
{
anchors = (
{
name = bottom;
position = "{300, 0}";
},
{
name = top;
position = "{300, 496}";
}
);
layerId = "50E3E9DC-0583-4D82-B33B-3FFFE976497D";
paths = (
{
closed = 1;
nodes = (
"200 0 LINE",
"300 402 LINE",
"400 0 LINE",
"471 0 LINE",
"583 496 LINE",
"512 496 LINE",
"434 111 LINE",
"340 496 LINE",
"260 496 LINE",
"166 111 LINE",
"88 496 LINE",
"17 496 LINE",
"129 0 LINE"
);
}
);
width = 600;
},
{
anchors = (
{
name = bottom;
position = "{300, 0}";
},
{
name = top;
position = "{300, 496}";
}
);
layerId = "AE089E19-69A3-44A1-A715-1879E192462D";
paths = (
{
closed = 1;
nodes = (
"225 0 LINE",
"300 358 LINE",
"375 0 LINE",
"484 0 LINE",
"592 496 LINE",
"488 496 LINE",
"428 148 LINE",
"357 496 LINE",
"243 496 LINE",
"172 148 LINE",
"112 496 LINE",
"8 496 LINE",
"116 0 LINE"
);
}
);
width = 600;
}
);
unicode = 0077;
},
{
glyphname = x;
lastChange = "2020-03-04 08:53:31 +0000";
layers = (
{
anchors = (
{
name = bottom;
position = "{300, 0}";
},
{
name = top;
position = "{300, 496}";
}
);
layerId = "50E3E9DC-0583-4D82-B33B-3FFFE976497D";
paths = (
{
closed = 1;
nodes = (
"158 0 LINE",
"300 211 LINE",
"442 0 LINE",
"519 0 LINE",
"350 248 LINE",
"522 496 LINE",
"444 496 LINE",
"300 286 LINE",
"156 496 LINE",
"78 496 LINE",
"250 248 LINE",
"81 0 LINE"
);
}
);
width = 600;
},
{
anchors = (
{
name = bottom;
position = "{300, 0}";
},
{
name = top;
position = "{300, 496}";
}
);
layerId = "AE089E19-69A3-44A1-A715-1879E192462D";
paths = (
{
closed = 1;
nodes = (
"177 0 LINE",
"300 185 LINE",
"422 0 LINE",
"540 0 LINE",
"370 248 LINE",
"546 496 LINE",
"428 496 LINE",
"300 311 LINE",
"172 496 LINE",
"54 496 LINE",
"230 248 LINE",
"60 0 LINE"
);
}
);
width = 600;
}
);
unicode = 0078;
},
{
glyphname = y;
lastChange = "2020-03-04 08:53:31 +0000";
layers = (
{
anchors = (
{
name = bottom;
position = "{300, 0}";
},
{
name = top;
position = "{300, 496}";
}
);
layerId = "50E3E9DC-0583-4D82-B33B-3FFFE976497D";
paths = (
{
closed = 1;
nodes = (
"225 -220 LINE",
"553 496 LINE",
"481 496 LINE",
"298 98 LINE",
"126 496 LINE",
"50 496 LINE",
"249 53 LINE",
"277 53 LINE",
"152 -220 LINE"
);
}
);
width = 600;
},
{
anchors = (
{
name = bottom;
position = "{304, 0}";
},
{
name = top;
position = "{304, 496}";
}
);
layerId = "AE089E19-69A3-44A1-A715-1879E192462D";
paths = (
{
closed = 1;
nodes = (
"255 -220 LINE",
"570 496 LINE",
"459 496 LINE",
"302 133 LINE",
"154 496 LINE",
"39 496 LINE",
"232 41 LINE",
"261 41 LINE",
"143 -220 LINE"
);
}
);
width = 600;
}
);
unicode = 0079;
},
{
glyphname = z;
lastChange = "2020-03-04 08:53:31 +0000";
layers = (
{
anchors = (
{
name = bottom;
position = "{300, 0}";
},
{
name = center;
position = "{300, 248}";
},
{
name = top;
position = "{300, 496}";
}
);
layerId = "50E3E9DC-0583-4D82-B33B-3FFFE976497D";
paths = (
{
closed = 1;
nodes = (
"493 0 LINE",
"493 66 LINE",
"185 66 LINE",
"488 430 LINE",
"488 496 LINE",
"112 496 LINE",
"112 430 LINE",
"410 430 LINE",
"107 66 LINE",
"107 0 LINE"
);
}
);
width = 600;
},
{
anchors = (
{
name = bottom;
position = "{300, 0}";
},
{
name = center;
position = "{300, 248}";
},
{
name = top;
position = "{300, 496}";
}
);
layerId = "AE089E19-69A3-44A1-A715-1879E192462D";
paths = (
{
closed = 1;
nodes = (
"506 0 LINE",
"506 97 LINE",
"223 97 LINE",
"501 401 LINE",
"501 496 LINE",
"98 496 LINE",
"98 399 LINE",
"369 399 LINE",
"94 95 LINE",
"94 0 LINE"
);
}
);
width = 600;
}
);
unicode = 007A;
},
{
glyphname = a.ss02;
lastChange = "2020-03-04 08:53:31 +0000";
layers = (
{
anchors = (
{
name = bottom;
position = "{300, 0}";
},
{
name = ogonek;
position = "{517, 0}";
},
{
name = top;
position = "{300, 496}";
}
);
layerId = "50E3E9DC-0583-4D82-B33B-3FFFE976497D";
paths = (
{
closed = 1;
nodes = (
"366 -12 OFFCURVE",
"421 23 OFFCURVE",
"447 79 CURVE",
"453 79 LINE",
"463 0 LINE",
"517 0 LINE",
"517 496 LINE",
"456 496 LINE",
"447 425 LINE",
"443 425 LINE",
"417 475 OFFCURVE",
"367 508 OFFCURVE",
"289 508 CURVE SMOOTH",
"160 508 OFFCURVE",
"70 415 OFFCURVE",
"70 249 CURVE SMOOTH",
"70 83 OFFCURVE",
"161 -12 OFFCURVE",
"289 -12 CURVE SMOOTH"
);
},
{
closed = 1;
nodes = (
"205 54 OFFCURVE",
"141 117 OFFCURVE",
"141 248 CURVE SMOOTH",
"141 379 OFFCURVE",
"205 442 OFFCURVE",
"294 442 CURVE SMOOTH",
"383 442 OFFCURVE",
"447 379 OFFCURVE",
"447 248 CURVE SMOOTH",
"447 117 OFFCURVE",
"383 54 OFFCURVE",
"294 54 CURVE SMOOTH"
);
}
);
width = 600;
},
{
anchors = (
{
name = bottom;
position = "{300, 0}";
},
{
name = ogonek;
position = "{529, 0}";
},
{
name = top;
position = "{300, 496}";
}
);
layerId = "AE089E19-69A3-44A1-A715-1879E192462D";
paths = (
{
closed = 1;
nodes = (
"349 -12 OFFCURVE",
"396 21 OFFCURVE",
"423 73 CURVE",
"429 73 LINE",
"438 0 LINE",
"529 0 LINE",
"529 496 LINE",
"436 496 LINE",
"427 434 LINE",
"422 434 LINE",
"393 480 OFFCURVE",
"350 508 OFFCURVE",
"274 508 CURVE SMOOTH",
"151 508 OFFCURVE",
"56 418 OFFCURVE",
"56 248 CURVE SMOOTH",
"56 77 OFFCURVE",
"149 -12 OFFCURVE",
"273 -12 CURVE SMOOTH"
);
},
{
closed = 1;
nodes = (
"219 89 OFFCURVE",
"163 141 OFFCURVE",
"163 247 CURVE SMOOTH",
"163 354 OFFCURVE",
"219 407 OFFCURVE",
"295 407 CURVE SMOOTH",
"371 407 OFFCURVE",
"427 354 OFFCURVE",
"427 248 CURVE SMOOTH",
"427 142 OFFCURVE",
"371 89 OFFCURVE",
"295 89 CURVE SMOOTH"
);
}
);
width = 600;
}
);
},
{
glyphname = ae.ss02;
lastChange = "2020-03-04 08:53:31 +0000";
layers = (
{
anchors = (
{
name = bottom;
position = "{300, 0}";
},
{
name = top;
position = "{300, 496}";
}
);
layerId = "50E3E9DC-0583-4D82-B33B-3FFFE976497D";
paths = (
{
closed = 1;
nodes = (
"215 -12 OFFCURVE",
"247 4 OFFCURVE",
"272 34 CURVE",
"272 0 LINE",
"337 0 LINE",
"337 34 LINE",
"357 4 OFFCURVE",
"393 -12 OFFCURVE",
"431 -12 CURVE SMOOTH",
"506 -12 OFFCURVE",
"554 59 OFFCURVE",
"566 149 CURVE",
"498 149 LINE",
"487 90 OFFCURVE",
"464 54 OFFCURVE",
"428 54 CURVE SMOOTH",
"378 54 OFFCURVE",
"343 112 OFFCURVE",
"340 233 CURVE",
"573 233 LINE",
"574 257 OFFCURVE",
"574 274 OFFCURVE",
"574 292 CURVE SMOOTH",
"574 427 OFFCURVE",
"523 508 OFFCURVE",
"434 508 CURVE SMOOTH",
"396 508 OFFCURVE",
"358 490 OFFCURVE",
"337 459 CURVE",
"337 496 LINE",
"272 496 LINE",
"272 467 LINE",
"247 498 OFFCURVE",
"213 508 OFFCURVE",
"178 508 CURVE SMOOTH",
"82 508 OFFCURVE",
"25 407 OFFCURVE",
"25 248 CURVE SMOOTH",
"25 89 OFFCURVE",
"82 -12 OFFCURVE",
"178 -12 CURVE SMOOTH"
);
},
{
closed = 1;
nodes = (
"130 54 OFFCURVE",
"97 115 OFFCURVE",
"97 248 CURVE SMOOTH",
"97 381 OFFCURVE",
"130 442 OFFCURVE",
"184 442 CURVE SMOOTH",
"238 442 OFFCURVE",
"271 381 OFFCURVE",
"271 248 CURVE SMOOTH",
"271 115 OFFCURVE",
"238 54 OFFCURVE",
"184 54 CURVE SMOOTH"
);
},
{
closed = 1;
nodes = (
"346 389 OFFCURVE",
"384 444 OFFCURVE",
"427 444 CURVE SMOOTH",
"472 444 OFFCURVE",
"504 390 OFFCURVE",
"506 297 CURVE",
"341 297 LINE"
);
}
);
width = 600;
},
{
anchors = (
{
name = bottom;
position = "{308, 0}";
},
{
name = top;
position = "{308, 496}";
}
);
layerId = "AE089E19-69A3-44A1-A715-1879E192462D";
paths = (
{
closed = 1;
nodes = (
"213 -12 OFFCURVE",
"240 2 OFFCURVE",
"262 30 CURVE",
"262 0 LINE",
"354 0 LINE",
"354 30 LINE",
"373 2 OFFCURVE",
"404 -12 OFFCURVE",
"440 -12 CURVE SMOOTH",
"518 -12 OFFCURVE",
"559 60 OFFCURVE",
"570 156 CURVE",
"474 156 LINE",
"468 110 OFFCURVE",
"453 83 OFFCURVE",
"422 83 CURVE SMOOTH",
"385 83 OFFCURVE",
"360 131 OFFCURVE",
"358 223 CURVE",
"579 223 LINE",
"580 243 OFFCURVE",
"581 260 OFFCURVE",
"581 275 CURVE SMOOTH",
"581 411 OFFCURVE",
"540 508 OFFCURVE",
"442 508 CURVE SMOOTH",
"406 508 OFFCURVE",
"372 491 OFFCURVE",
"354 463 CURVE",
"354 496 LINE",
"262 496 LINE",
"262 466 LINE",
"240 495 OFFCURVE",
"212 508 OFFCURVE",
"174 508 CURVE SMOOTH",
"81 508 OFFCURVE",
"19 406 OFFCURVE",
"19 248 CURVE SMOOTH",
"19 90 OFFCURVE",
"80 -12 OFFCURVE",
"176 -12 CURVE SMOOTH"
);
},
{
closed = 1;
nodes = (
"146 84 OFFCURVE",
"121 134 OFFCURVE",
"121 248 CURVE SMOOTH",
"121 362 OFFCURVE",
"146 412 OFFCURVE",
"191 412 CURVE SMOOTH",
"237 412 OFFCURVE",
"262 362 OFFCURVE",
"262 248 CURVE SMOOTH",
"262 134 OFFCURVE",
"236 84 OFFCURVE",
"191 84 CURVE SMOOTH"
);
},
{
closed = 1;
nodes = (
"366 375 OFFCURVE",
"393 416 OFFCURVE",
"426 416 CURVE SMOOTH",
"458 416 OFFCURVE",
"482 378 OFFCURVE",
"484 304 CURVE",
"360 304 LINE"
);
}
);
width = 600;
}
);
},
{
glyphname = g.ss03;
lastChange = "2020-03-04 08:53:31 +0000";
layers = (
{
anchors = (
{
name = bottom;
position = "{300, 0}";
},
{
name = top;
position = "{300, 496}";
}
);
layerId = "50E3E9DC-0583-4D82-B33B-3FFFE976497D";
paths = (
{
closed = 1;
nodes = (
"448 -232 OFFCURVE",
"517 -141 OFFCURVE",
"517 -10 CURVE SMOOTH",
"517 496 LINE",
"463 496 LINE",
"453 416 LINE",
"447 416 LINE",
"420 469 OFFCURVE",
"364 508 OFFCURVE",
"284 508 CURVE SMOOTH",
"161 508 OFFCURVE",
"70 413 OFFCURVE",
"70 248 CURVE SMOOTH",
"70 81 OFFCURVE",
"160 -12 OFFCURVE",
"289 -12 CURVE SMOOTH",
"374 -12 OFFCURVE",
"420 29 OFFCURVE",
"447 80 CURVE",
"447 -6 LINE SMOOTH",
"447 -118 OFFCURVE",
"396 -166 OFFCURVE",
"295 -166 CURVE SMOOTH",
"218 -166 OFFCURVE",
"163 -124 OFFCURVE",
"153 -55 CURVE",
"80 -55 LINE",
"85 -140 OFFCURVE",
"158 -232 OFFCURVE",
"295 -232 CURVE SMOOTH"
);
},
{
closed = 1;
nodes = (
"205 54 OFFCURVE",
"141 117 OFFCURVE",
"141 248 CURVE SMOOTH",
"141 379 OFFCURVE",
"205 442 OFFCURVE",
"294 442 CURVE SMOOTH",
"383 442 OFFCURVE",
"447 379 OFFCURVE",
"447 248 CURVE SMOOTH",
"447 117 OFFCURVE",
"383 54 OFFCURVE",
"294 54 CURVE SMOOTH"
);
}
);
width = 600;
},
{
anchors = (
{
name = bottom;
position = "{300, 0}";
},
{
name = top;
position = "{300, 496}";
}
);
layerId = "AE089E19-69A3-44A1-A715-1879E192462D";
paths = (
{
closed = 1;
nodes = (
"465 -232 OFFCURVE",
"538 -132 OFFCURVE",
"538 -2 CURVE SMOOTH",
"538 496 LINE",
"447 496 LINE",
"438 425 LINE",
"432 425 LINE",
"404 475 OFFCURVE",
"357 508 OFFCURVE",
"278 508 CURVE SMOOTH",
"160 508 OFFCURVE",
"58 419 OFFCURVE",
"58 249 CURVE SMOOTH",
"58 78 OFFCURVE",
"159 -12 OFFCURVE",
"285 -12 CURVE SMOOTH",
"362 -12 OFFCURVE",
"407 22 OFFCURVE",
"432 64 CURVE",
"432 -5 LINE SMOOTH",
"432 -88 OFFCURVE",
"388 -135 OFFCURVE",
"303 -135 CURVE SMOOTH",
"230 -135 OFFCURVE",
"193 -105 OFFCURVE",
"179 -52 CURVE",
"68 -52 LINE",
"77 -155 OFFCURVE",
"162 -232 OFFCURVE",
"303 -232 CURVE SMOOTH"
);
},
{
closed = 1;
nodes = (
"223 89 OFFCURVE",
"166 142 OFFCURVE",
"166 249 CURVE SMOOTH",
"166 355 OFFCURVE",
"223 407 OFFCURVE",
"301 407 CURVE SMOOTH",
"379 407 OFFCURVE",
"436 354 OFFCURVE",
"436 248 CURVE SMOOTH",
"436 142 OFFCURVE",
"379 89 OFFCURVE",
"301 89 CURVE SMOOTH"
);
}
);
width = 600;
}
);
},
{
glyphname = f.ss05;
lastChange = "2020-03-04 11:18:16 +0000";
layers = (
{
anchors = (
{
name = bottom;
position = "{263, 0}";
},
{
name = top;
position = "{300, 720}";
}
);
layerId = "50E3E9DC-0583-4D82-B33B-3FFFE976497D";
paths = (
{
closed = 1;
nodes = (
"298 0 LINE",
"298 582 LINE SMOOTH",
"298 635 OFFCURVE",
"319 654 OFFCURVE",
"371 654 CURVE SMOOTH",
"489 654 LINE",
"489 720 LINE",
"370 720 LINE SMOOTH",
"272 720 OFFCURVE",
"228 679 OFFCURVE",
"228 582 CURVE SMOOTH",
"228 0 LINE"
);
},
{
closed = 1;
nodes = (
"489 436 LINE",
"489 496 LINE",
"107 496 LINE",
"107 436 LINE"
);
}
);
width = 600;
},
{
anchors = (
{
name = bottom;
position = "{269, 0}";
},
{
name = top;
position = "{300, 720}";
}
);
layerId = "AE089E19-69A3-44A1-A715-1879E192462D";
paths = (
{
closed = 1;
nodes = (
"322 0 LINE",
"322 564 LINE SMOOTH",
"322 610 OFFCURVE",
"340 627 OFFCURVE",
"387 627 CURVE SMOOTH",
"495 627 LINE",
"495 720 LINE",
"374 720 LINE SMOOTH",
"273 720 OFFCURVE",
"216 676 OFFCURVE",
"216 565 CURVE SMOOTH",
"216 0 LINE"
);
},
{
closed = 1;
nodes = (
"495 406 LINE",
"495 496 LINE",
"90 496 LINE",
"90 406 LINE"
);
}
);
width = 600;
}
);
},
{
glyphname = ordfeminine;
lastChange = "2020-03-04 08:53:31 +0000";
layers = (
{
layerId = "50E3E9DC-0583-4D82-B33B-3FFFE976497D";
paths = (
{
closed = 1;
nodes = (
"339 290 OFFCURVE",
"375 323 OFFCURVE",
"398 362 CURVE",
"403 362 LINE",
"409 300 LINE",
"466 300 LINE",
"466 544 LINE SMOOTH",
"466 641 OFFCURVE",
"417 706 OFFCURVE",
"303 706 CURVE SMOOTH",
"220 706 OFFCURVE",
"148 663 OFFCURVE",
"137 579 CURVE",
"205 579 LINE",
"215 627 OFFCURVE",
"252 649 OFFCURVE",
"303 649 CURVE SMOOTH",
"366 649 OFFCURVE",
"400 613 OFFCURVE",
"400 544 CURVE SMOOTH",
"400 483 LINE SMOOTH",
"400 412 OFFCURVE",
"356 348 OFFCURVE",
"278 348 CURVE SMOOTH",
"226 348 OFFCURVE",
"196 374 OFFCURVE",
"196 415 CURVE SMOOTH",
"196 456 OFFCURVE",
"223 484 OFFCURVE",
"295 484 CURVE SMOOTH",
"412 484 LINE",
"412 536 LINE",
"290 536 LINE SMOOTH",
"192 536 OFFCURVE",
"127 493 OFFCURVE",
"127 412 CURVE SMOOTH",
"127 347 OFFCURVE",
"172 290 OFFCURVE",
"267 290 CURVE SMOOTH"
);
}
);
userData = {
RMXScaler = {
adjustSpace = 60;
height = 80;
verticalShift = 300;
weight = -4;
width = 80;
};
};
width = 600;
},
{
layerId = "AE089E19-69A3-44A1-A715-1879E192462D";
paths = (
{
closed = 1;
nodes = (
"326 290 OFFCURVE",
"359 316 OFFCURVE",
"382 352 CURVE",
"389 352 LINE",
"396 300 LINE",
"475 300 LINE",
"475 544 LINE SMOOTH",
"475 645 OFFCURVE",
"422 706 OFFCURVE",
"304 706 CURVE SMOOTH",
"204 706 OFFCURVE",
"136 654 OFFCURVE",
"127 569 CURVE",
"218 569 LINE",
"228 610 OFFCURVE",
"260 629 OFFCURVE",
"303 629 CURVE SMOOTH",
"355 629 OFFCURVE",
"383 597 OFFCURVE",
"383 544 CURVE SMOOTH",
"383 484 LINE SMOOTH",
"383 419 OFFCURVE",
"346 366 OFFCURVE",
"280 366 CURVE SMOOTH",
"242 366 OFFCURVE",
"216 385 OFFCURVE",
"216 417 CURVE SMOOTH",
"216 452 OFFCURVE",
"241 470 OFFCURVE",
"293 470 CURVE SMOOTH",
"395 470 LINE",
"395 535 LINE",
"283 535 LINE SMOOTH",
"175 535 OFFCURVE",
"119 486 OFFCURVE",
"119 411 CURVE SMOOTH",
"119 346 OFFCURVE",
"166 290 OFFCURVE",
"260 290 CURVE SMOOTH"
);
}
);
width = 600;
}
);
unicode = 00AA;
userData = {
RMXScaler = {
source = a;
};
};
},
{
glyphname = ordmasculine;
lastChange = "2020-03-04 08:53:31 +0000";
layers = (
{
layerId = "50E3E9DC-0583-4D82-B33B-3FFFE976497D";
paths = (
{
closed = 1;
nodes = (
"411 290 OFFCURVE",
"491 372 OFFCURVE",
"491 498 CURVE SMOOTH",
"491 625 OFFCURVE",
"411 706 OFFCURVE",
"300 706 CURVE SMOOTH",
"188 706 OFFCURVE",
"108 625 OFFCURVE",
"108 498 CURVE SMOOTH",
"108 372 OFFCURVE",
"188 290 OFFCURVE",
"300 290 CURVE SMOOTH"
);
},
{
closed = 1;
nodes = (
"232 353 OFFCURVE",
"175 400 OFFCURVE",
"175 498 CURVE SMOOTH",
"175 597 OFFCURVE",
"232 643 OFFCURVE",
"300 643 CURVE SMOOTH",
"368 643 OFFCURVE",
"424 597 OFFCURVE",
"424 498 CURVE SMOOTH",
"424 399 OFFCURVE",
"367 353 OFFCURVE",
"300 353 CURVE SMOOTH"
);
}
);
userData = {
RMXScaler = {
adjustSpace = 60;
height = 80;
verticalShift = 300;
weight = -3;
width = 80;
};
};
width = 600;
},
{
layerId = "AE089E19-69A3-44A1-A715-1879E192462D";
paths = (
{
closed = 1;
nodes = (
"415 290 OFFCURVE",
"500 373 OFFCURVE",
"500 498 CURVE SMOOTH",
"500 624 OFFCURVE",
"416 706 OFFCURVE",
"301 706 CURVE SMOOTH",
"185 706 OFFCURVE",
"101 624 OFFCURVE",
"101 498 CURVE SMOOTH",
"101 373 OFFCURVE",
"185 290 OFFCURVE",
"300 290 CURVE SMOOTH"
);
},
{
closed = 1;
nodes = (
"242 377 OFFCURVE",
"192 416 OFFCURVE",
"192 498 CURVE SMOOTH",
"192 581 OFFCURVE",
"243 619 OFFCURVE",
"301 619 CURVE SMOOTH",
"358 619 OFFCURVE",
"408 581 OFFCURVE",
"408 498 CURVE SMOOTH",
"408 416 OFFCURVE",
"358 377 OFFCURVE",
"300 377 CURVE SMOOTH"
);
}
);
width = 600;
}
);
unicode = 00BA;
userData = {
RMXScaler = {
source = o;
};
};
},
{
glyphname = pi;
lastChange = "2020-03-04 08:53:31 +0000";
layers = (
{
layerId = "50E3E9DC-0583-4D82-B33B-3FFFE976497D";
paths = (
{
closed = 1;
nodes = (
"202 0 LINE",
"202 436 LINE",
"398 436 LINE",
"398 0 LINE",
"468 0 LINE",
"468 436 LINE",
"568 436 LINE",
"568 496 LINE",
"32 496 LINE",
"32 436 LINE",
"132 436 LINE",
"132 0 LINE"
);
}
);
width = 600;
},
{
layerId = "AE089E19-69A3-44A1-A715-1879E192462D";
paths = (
{
closed = 1;
nodes = (
"219 0 LINE",
"219 406 LINE",
"381 406 LINE",
"381 0 LINE",
"487 0 LINE",
"487 406 LINE",
"575 406 LINE",
"575 496 LINE",
"25 496 LINE",
"25 406 LINE",
"113 406 LINE",
"113 0 LINE"
);
}
);
width = 600;
}
);
unicode = 03C0;
},
{
glyphname = zero;
lastChange = "2020-03-04 08:53:31 +0000";
layers = (
{
layerId = "50E3E9DC-0583-4D82-B33B-3FFFE976497D";
paths = (
{
closed = 1;
nodes = (
"456 -12 OFFCURVE",
"566 125 OFFCURVE",
"566 350 CURVE SMOOTH",
"566 575 OFFCURVE",
"456 712 OFFCURVE",
"300 712 CURVE SMOOTH",
"144 712 OFFCURVE",
"34 575 OFFCURVE",
"34 350 CURVE SMOOTH",
"34 125 OFFCURVE",
"144 -12 OFFCURVE",
"300 -12 CURVE SMOOTH"
);
},
{
closed = 1;
nodes = (
"186 51 OFFCURVE",
"106 167 OFFCURVE",
"106 350 CURVE SMOOTH",
"106 533 OFFCURVE",
"186 648 OFFCURVE",
"300 648 CURVE SMOOTH",
"414 648 OFFCURVE",
"494 533 OFFCURVE",
"494 350 CURVE SMOOTH",
"494 167 OFFCURVE",
"414 51 OFFCURVE",
"300 51 CURVE SMOOTH"
);
},
{
closed = 1;
nodes = (
"450 637 LINE",
"390 657 LINE",
"150 63 LINE",
"210 43 LINE"
);
}
);
width = 600;
},
{
layerId = "AE089E19-69A3-44A1-A715-1879E192462D";
paths = (
{
closed = 1;
nodes = (
"464 -12 OFFCURVE",
"568 127 OFFCURVE",
"568 350 CURVE SMOOTH",
"568 573 OFFCURVE",
"464 712 OFFCURVE",
"300 712 CURVE SMOOTH",
"137 712 OFFCURVE",
"32 573 OFFCURVE",
"32 350 CURVE SMOOTH",
"32 127 OFFCURVE",
"137 -12 OFFCURVE",
"300 -12 CURVE SMOOTH"
);
},
{
closed = 1;
nodes = (
"206 86 OFFCURVE",
"140 187 OFFCURVE",
"140 350 CURVE SMOOTH",
"140 513 OFFCURVE",
"206 613 OFFCURVE",
"300 613 CURVE SMOOTH",
"394 613 OFFCURVE",
"460 513 OFFCURVE",
"460 350 CURVE SMOOTH",
"460 187 OFFCURVE",
"394 86 OFFCURVE",
"300 86 CURVE SMOOTH"
);
},
{
closed = 1;
nodes = (
"462 631 LINE",
"378 663 LINE",
"138 69 LINE",
"222 37 LINE"
);
}
);
width = 600;
}
);
unicode = 0030;
},
{
glyphname = one;
lastChange = "2020-03-04 08:53:31 +0000";
layers = (
{
background = {
paths = (
{
closed = 1;
nodes = (
"413 0 LINE",
"413 700 LINE",
"363 700 LINE",
"231 643 LINE",
"231 598 LINE",
"342 623 LINE",
"342 0 LINE"
);
}
);
};
layerId = "50E3E9DC-0583-4D82-B33B-3FFFE976497D";
paths = (
{
closed = 1;
nodes = (
"328 0 LINE",
"328 700 LINE",
"279 700 LINE",
"83 633 LINE",
"83 582 LINE",
"258 617 LINE",
"258 0 LINE"
);
},
{
closed = 1;
nodes = (
"523 0 LINE",
"523 64 LINE",
"73 64 LINE",
"73 0 LINE"
);
}
);
width = 600;
},
{
layerId = "AE089E19-69A3-44A1-A715-1879E192462D";
paths = (
{
closed = 1;
nodes = (
"345 0 LINE",
"345 700 LINE",
"280 700 LINE",
"74 631 LINE",
"74 545 LINE",
"239 575 LINE",
"239 0 LINE"
);
},
{
closed = 1;
nodes = (
"531 0 LINE",
"531 95 LINE",
"66 95 LINE",
"66 0 LINE"
);
}
);
width = 600;
}
);
unicode = 0031;
},
{
glyphname = two;
lastChange = "2020-03-04 10:46:35 +0000";
layers = (
{
layerId = "50E3E9DC-0583-4D82-B33B-3FFFE976497D";
paths = (
{
closed = 1;
nodes = (
"532 0 LINE",
"532 64 LINE",
"189 64 LINE",
"351 191 OFFCURVE",
"513 333 OFFCURVE",
"513 503 CURVE SMOOTH",
"513 630 OFFCURVE",
"434 712 OFFCURVE",
"299 712 CURVE SMOOTH",
"173 712 OFFCURVE",
"78 629 OFFCURVE",
"78 495 CURVE",
"148 495 LINE",
"147 578 OFFCURVE",
"200 648 OFFCURVE",
"299 648 CURVE SMOOTH",
"385 648 OFFCURVE",
"441 592 OFFCURVE",
"441 502 CURVE SMOOTH",
"441 354 OFFCURVE",
"300 232 OFFCURVE",
"77 54 CURVE",
"77 0 LINE"
);
}
);
width = 600;
},
{
layerId = "AE089E19-69A3-44A1-A715-1879E192462D";
paths = (
{
closed = 1;
nodes = (
"543 0 LINE",
"543 91 LINE",
"227 91 LINE",
"367 202 OFFCURVE",
"524 337 OFFCURVE",
"524 501 CURVE SMOOTH",
"524 629 OFFCURVE",
"443 712 OFFCURVE",
"301 712 CURVE SMOOTH",
"170 712 OFFCURVE",
"73 633 OFFCURVE",
"71 486 CURVE",
"174 486 LINE",
"174 556 OFFCURVE",
"219 616 OFFCURVE",
"301 616 CURVE SMOOTH",
"371 616 OFFCURVE",
"416 571 OFFCURVE",
"416 498 CURVE SMOOTH",
"416 366 OFFCURVE",
"275 247 OFFCURVE",
"70 84 CURVE",
"70 0 LINE"
);
}
);
width = 600;
}
);
unicode = 0032;
},
{
glyphname = three;
lastChange = "2020-03-04 08:53:31 +0000";
layers = (
{
layerId = "50E3E9DC-0583-4D82-B33B-3FFFE976497D";
paths = (
{
closed = 1;
nodes = (
"456 -12 OFFCURVE",
"545 83 OFFCURVE",
"545 205 CURVE SMOOTH",
"545 302 OFFCURVE",
"487 357 OFFCURVE",
"406 381 CURVE",
"406 387 LINE",
"467 409 OFFCURVE",
"516 467 OFFCURVE",
"516 537 CURVE SMOOTH",
"516 631 OFFCURVE",
"443 712 OFFCURVE",
"311 712 CURVE SMOOTH",
"186 712 OFFCURVE",
"101 632 OFFCURVE",
"96 523 CURVE",
"168 523 LINE",
"174 597 OFFCURVE",
"229 648 OFFCURVE",
"311 648 CURVE SMOOTH",
"397 648 OFFCURVE",
"444 599 OFFCURVE",
"444 533 CURVE SMOOTH",
"444 456 OFFCURVE",
"384 410 OFFCURVE",
"287 410 CURVE SMOOTH",
"234 410 LINE",
"234 346 LINE",
"294 346 LINE SMOOTH",
"393 346 OFFCURVE",
"473 299 OFFCURVE",
"473 204 CURVE SMOOTH",
"473 111 OFFCURVE",
"416 52 OFFCURVE",
"311 52 CURVE SMOOTH",
"205 52 OFFCURVE",
"141 121 OFFCURVE",
"139 205 CURVE",
"67 205 LINE",
"72 66 OFFCURVE",
"176 -12 OFFCURVE",
"311 -12 CURVE SMOOTH"
);
}
);
width = 600;
},
{
layerId = "AE089E19-69A3-44A1-A715-1879E192462D";
paths = (
{
closed = 1;
nodes = (
"460 -12 OFFCURVE",
"549 85 OFFCURVE",
"549 204 CURVE SMOOTH",
"549 301 OFFCURVE",
"493 358 OFFCURVE",
"416 380 CURVE",
"416 386 LINE",
"473 408 OFFCURVE",
"520 460 OFFCURVE",
"520 530 CURVE SMOOTH",
"520 632 OFFCURVE",
"448 712 OFFCURVE",
"304 712 CURVE SMOOTH",
"171 712 OFFCURVE",
"83 630 OFFCURVE",
"77 511 CURVE",
"182 511 LINE",
"187 571 OFFCURVE",
"232 614 OFFCURVE",
"304 614 CURVE SMOOTH",
"374 614 OFFCURVE",
"415 577 OFFCURVE",
"415 519 CURVE SMOOTH",
"415 451 OFFCURVE",
"359 420 OFFCURVE",
"280 420 CURVE SMOOTH",
"227 420 LINE",
"227 326 LINE",
"289 326 LINE SMOOTH",
"376 326 OFFCURVE",
"444 288 OFFCURVE",
"444 206 CURVE SMOOTH",
"444 131 OFFCURVE",
"392 86 OFFCURVE",
"305 86 CURVE SMOOTH",
"217 86 OFFCURVE",
"165 139 OFFCURVE",
"161 213 CURVE",
"55 213 LINE",
"60 68 OFFCURVE",
"166 -12 OFFCURVE",
"305 -12 CURVE SMOOTH"
);
}
);
width = 600;
}
);
unicode = 0033;
},
{
glyphname = four;
lastChange = "2020-03-04 08:53:31 +0000";
layers = (
{
layerId = "50E3E9DC-0583-4D82-B33B-3FFFE976497D";
paths = (
{
closed = 1;
nodes = (
"461 0 LINE",
"461 169 LINE",
"568 169 LINE",
"568 233 LINE",
"461 233 LINE",
"461 700 LINE",
"378 700 LINE",
"54 222 LINE",
"54 169 LINE",
"392 169 LINE",
"392 0 LINE"
);
},
{
closed = 1;
nodes = (
"395 616 LINE",
"395 233 LINE",
"133 233 LINE"
);
}
);
width = 600;
},
{
layerId = "AE089E19-69A3-44A1-A715-1879E192462D";
paths = (
{
closed = 1;
nodes = (
"483 0 LINE",
"483 151 LINE",
"574 151 LINE",
"574 247 LINE",
"483 247 LINE",
"483 700 LINE",
"358 700 LINE",
"45 234 LINE",
"45 151 LINE",
"377 151 LINE",
"377 0 LINE"
);
},
{
closed = 1;
nodes = (
"383 581 LINE",
"383 247 LINE",
"163 247 LINE"
);
}
);
width = 600;
}
);
unicode = 0034;
},
{
glyphname = five;
lastChange = "2020-03-04 08:53:31 +0000";
layers = (
{
layerId = "50E3E9DC-0583-4D82-B33B-3FFFE976497D";
paths = (
{
closed = 1;
nodes = (
"456 -12 OFFCURVE",
"540 103 OFFCURVE",
"540 236 CURVE SMOOTH",
"540 388 OFFCURVE",
"444 477 OFFCURVE",
"310 477 CURVE SMOOTH",
"239 477 OFFCURVE",
"180 445 OFFCURVE",
"148 410 CURVE",
"144 410 LINE",
"183 636 LINE",
"497 636 LINE",
"497 700 LINE",
"128 700 LINE",
"68 317 LINE",
"134 317 LINE",
"168 373 OFFCURVE",
"225 413 OFFCURVE",
"305 413 CURVE SMOOTH",
"405 413 OFFCURVE",
"472 345 OFFCURVE",
"472 235 CURVE SMOOTH",
"472 130 OFFCURVE",
"408 52 OFFCURVE",
"301 52 CURVE SMOOTH",
"210 52 OFFCURVE",
"146 109 OFFCURVE",
"133 191 CURVE",
"61 191 LINE",
"76 76 OFFCURVE",
"158 -12 OFFCURVE",
"300 -12 CURVE SMOOTH"
);
}
);
width = 600;
},
{
layerId = "AE089E19-69A3-44A1-A715-1879E192462D";
paths = (
{
closed = 1;
nodes = (
"451 -12 OFFCURVE",
"548 98 OFFCURVE",
"548 239 CURVE SMOOTH",
"548 377 OFFCURVE",
"461 479 OFFCURVE",
"317 479 CURVE SMOOTH",
"252 479 OFFCURVE",
"204 455 OFFCURVE",
"176 423 CURVE",
"169 423 LINE",
"203 602 LINE",
"502 602 LINE",
"502 700 LINE",
"121 700 LINE",
"61 306 LINE",
"163 306 LINE",
"190 353 OFFCURVE",
"236 387 OFFCURVE",
"303 387 CURVE SMOOTH",
"385 387 OFFCURVE",
"445 332 OFFCURVE",
"445 238 CURVE SMOOTH",
"445 148 OFFCURVE",
"389 86 OFFCURVE",
"300 86 CURVE SMOOTH",
"224 86 OFFCURVE",
"173 130 OFFCURVE",
"160 195 CURVE",
"52 195 LINE",
"61 77 OFFCURVE",
"152 -12 OFFCURVE",
"299 -12 CURVE SMOOTH"
);
}
);
width = 600;
}
);
unicode = 0035;
},
{
glyphname = six;
lastChange = "2020-03-04 08:53:31 +0000";
layers = (
{
layerId = "50E3E9DC-0583-4D82-B33B-3FFFE976497D";
paths = (
{
closed = 1;
nodes = (
"453 -12 OFFCURVE",
"545 95 OFFCURVE",
"545 222 CURVE SMOOTH",
"545 349 OFFCURVE",
"448 447 OFFCURVE",
"322 447 CURVE SMOOTH",
"226 447 OFFCURVE",
"159 394 OFFCURVE",
"126 332 CURVE",
"122 332 LINE",
"130 550 OFFCURVE",
"218 648 OFFCURVE",
"324 648 CURVE SMOOTH",
"405 648 OFFCURVE",
"462 599 OFFCURVE",
"475 523 CURVE",
"542 523 LINE",
"532 628 OFFCURVE",
"453 712 OFFCURVE",
"324 712 CURVE SMOOTH",
"154 712 OFFCURVE",
"56 551 OFFCURVE",
"56 321 CURVE SMOOTH",
"56 125 OFFCURVE",
"139 -12 OFFCURVE",
"314 -12 CURVE SMOOTH"
);
},
{
closed = 1;
nodes = (
"211 52 OFFCURVE",
"144 122 OFFCURVE",
"144 217 CURVE SMOOTH",
"144 312 OFFCURVE",
"211 383 OFFCURVE",
"309 383 CURVE SMOOTH",
"407 383 OFFCURVE",
"473 312 OFFCURVE",
"473 218 CURVE SMOOTH",
"473 124 OFFCURVE",
"407 52 OFFCURVE",
"309 52 CURVE SMOOTH"
);
}
);
width = 600;
},
{
layerId = "AE089E19-69A3-44A1-A715-1879E192462D";
paths = (
{
closed = 1;
nodes = (
"458 -12 OFFCURVE",
"548 97 OFFCURVE",
"548 224 CURVE SMOOTH",
"548 358 OFFCURVE",
"450 450 OFFCURVE",
"328 450 CURVE SMOOTH",
"244 450 OFFCURVE",
"181 405 OFFCURVE",
"153 354 CURVE",
"147 354 LINE",
"155 534 OFFCURVE",
"229 616 OFFCURVE",
"318 616 CURVE SMOOTH",
"386 616 OFFCURVE",
"435 578 OFFCURVE",
"449 515 CURVE",
"548 515 LINE",
"535 628 OFFCURVE",
"460 712 OFFCURVE",
"319 712 CURVE SMOOTH",
"147 712 OFFCURVE",
"46 557 OFFCURVE",
"46 325 CURVE SMOOTH",
"46 147 OFFCURVE",
"117 -12 OFFCURVE",
"314 -12 CURVE SMOOTH"
);
},
{
closed = 1;
nodes = (
"225 84 OFFCURVE",
"169 142 OFFCURVE",
"169 220 CURVE SMOOTH",
"169 298 OFFCURVE",
"225 355 OFFCURVE",
"307 355 CURVE SMOOTH",
"388 355 OFFCURVE",
"443 298 OFFCURVE",
"443 219 CURVE SMOOTH",
"443 140 OFFCURVE",
"388 84 OFFCURVE",
"307 84 CURVE SMOOTH"
);
}
);
width = 600;
}
);
unicode = 0036;
},
{
glyphname = seven;
lastChange = "2020-03-04 08:53:31 +0000";
layers = (
{
layerId = "50E3E9DC-0583-4D82-B33B-3FFFE976497D";
paths = (
{
closed = 1;
nodes = (
"255 0 LINE",
"530 642 LINE",
"530 700 LINE",
"66 700 LINE",
"66 636 LINE",
"458 636 LINE",
"180 0 LINE"
);
}
);
width = 600;
},
{
layerId = "AE089E19-69A3-44A1-A715-1879E192462D";
paths = (
{
closed = 1;
nodes = (
"271 0 LINE",
"534 618 LINE",
"534 700 LINE",
"59 700 LINE",
"59 604 LINE",
"425 604 LINE",
"160 0 LINE"
);
}
);
width = 600;
}
);
unicode = 0037;
},
{
glyphname = eight;
lastChange = "2020-03-04 08:53:31 +0000";
layers = (
{
layerId = "50E3E9DC-0583-4D82-B33B-3FFFE976497D";
paths = (
{
closed = 1;
nodes = (
"436 -12 OFFCURVE",
"530 73 OFFCURVE",
"530 188 CURVE SMOOTH",
"530 277 OFFCURVE",
"474 343 OFFCURVE",
"411 368 CURVE",
"411 372 LINE",
"472 400 OFFCURVE",
"511 457 OFFCURVE",
"511 526 CURVE SMOOTH",
"511 630 OFFCURVE",
"420 712 OFFCURVE",
"300 712 CURVE SMOOTH",
"175 712 OFFCURVE",
"89 630 OFFCURVE",
"89 526 CURVE SMOOTH",
"89 457 OFFCURVE",
"128 400 OFFCURVE",
"189 372 CURVE",
"189 368 LINE",
"126 343 OFFCURVE",
"70 277 OFFCURVE",
"70 188 CURVE SMOOTH",
"70 73 OFFCURVE",
"164 -12 OFFCURVE",
"300 -12 CURVE SMOOTH"
);
},
{
closed = 1;
nodes = (
"207 52 OFFCURVE",
"142 101 OFFCURVE",
"142 195 CURVE SMOOTH",
"142 289 OFFCURVE",
"207 338 OFFCURVE",
"300 338 CURVE SMOOTH",
"393 338 OFFCURVE",
"458 289 OFFCURVE",
"458 195 CURVE SMOOTH",
"458 101 OFFCURVE",
"393 52 OFFCURVE",
"300 52 CURVE SMOOTH"
);
},
{
closed = 1;
nodes = (
"212 400 OFFCURVE",
"159 450 OFFCURVE",
"159 524 CURVE SMOOTH",
"159 598 OFFCURVE",
"212 648 OFFCURVE",
"300 648 CURVE SMOOTH",
"388 648 OFFCURVE",
"441 598 OFFCURVE",
"441 524 CURVE SMOOTH",
"441 450 OFFCURVE",
"388 400 OFFCURVE",
"300 400 CURVE SMOOTH"
);
}
);
width = 600;
},
{
layerId = "AE089E19-69A3-44A1-A715-1879E192462D";
paths = (
{
closed = 1;
nodes = (
"444 -12 OFFCURVE",
"543 75 OFFCURVE",
"543 197 CURVE SMOOTH",
"543 284 OFFCURVE",
"489 345 OFFCURVE",
"431 368 CURVE",
"431 374 LINE",
"486 402 OFFCURVE",
"524 453 OFFCURVE",
"524 525 CURVE SMOOTH",
"524 626 OFFCURVE",
"438 712 OFFCURVE",
"300 712 CURVE SMOOTH",
"160 712 OFFCURVE",
"76 626 OFFCURVE",
"76 525 CURVE SMOOTH",
"76 453 OFFCURVE",
"114 402 OFFCURVE",
"169 374 CURVE",
"169 368 LINE",
"111 345 OFFCURVE",
"57 284 OFFCURVE",
"57 197 CURVE SMOOTH",
"57 75 OFFCURVE",
"156 -12 OFFCURVE",
"300 -12 CURVE SMOOTH"
);
},
{
closed = 1;
nodes = (
"217 84 OFFCURVE",
"162 128 OFFCURVE",
"162 204 CURVE SMOOTH",
"162 280 OFFCURVE",
"217 324 OFFCURVE",
"300 324 CURVE SMOOTH",
"383 324 OFFCURVE",
"438 280 OFFCURVE",
"438 204 CURVE SMOOTH",
"438 128 OFFCURVE",
"383 84 OFFCURVE",
"300 84 CURVE SMOOTH"
);
},
{
closed = 1;
nodes = (
"225 411 OFFCURVE",
"179 454 OFFCURVE",
"179 515 CURVE SMOOTH",
"179 576 OFFCURVE",
"225 619 OFFCURVE",
"300 619 CURVE SMOOTH",
"375 619 OFFCURVE",
"421 576 OFFCURVE",
"421 515 CURVE SMOOTH",
"421 454 OFFCURVE",
"375 411 OFFCURVE",
"300 411 CURVE SMOOTH"
);
}
);
width = 600;
}
);
unicode = 0038;
},
{
glyphname = nine;
lastChange = "2020-03-04 08:53:31 +0000";
layers = (
{
layerId = "50E3E9DC-0583-4D82-B33B-3FFFE976497D";
paths = (
{
closed = 1;
nodes = (
"458 -12 OFFCURVE",
"550 149 OFFCURVE",
"550 379 CURVE SMOOTH",
"550 585 OFFCURVE",
"464 712 OFFCURVE",
"292 712 CURVE SMOOTH",
"153 712 OFFCURVE",
"61 605 OFFCURVE",
"61 478 CURVE SMOOTH",
"61 351 OFFCURVE",
"158 253 OFFCURVE",
"284 253 CURVE SMOOTH",
"390 253 OFFCURVE",
"442 301 OFFCURVE",
"480 368 CURVE",
"484 368 LINE",
"476 150 OFFCURVE",
"399 52 OFFCURVE",
"288 52 CURVE SMOOTH",
"203 52 OFFCURVE",
"145 102 OFFCURVE",
"132 177 CURVE",
"64 177 LINE",
"74 72 OFFCURVE",
"163 -12 OFFCURVE",
"288 -12 CURVE SMOOTH"
);
},
{
closed = 1;
nodes = (
"197 317 OFFCURVE",
"133 388 OFFCURVE",
"133 482 CURVE SMOOTH",
"133 576 OFFCURVE",
"197 648 OFFCURVE",
"297 648 CURVE SMOOTH",
"397 648 OFFCURVE",
"462 578 OFFCURVE",
"462 483 CURVE SMOOTH",
"462 388 OFFCURVE",
"397 317 OFFCURVE",
"297 317 CURVE SMOOTH"
);
}
);
width = 600;
},
{
layerId = "AE089E19-69A3-44A1-A715-1879E192462D";
paths = (
{
closed = 1;
nodes = (
"459 -12 OFFCURVE",
"557 143 OFFCURVE",
"557 375 CURVE SMOOTH",
"557 581 OFFCURVE",
"473 712 OFFCURVE",
"290 712 CURVE SMOOTH",
"146 712 OFFCURVE",
"55 603 OFFCURVE",
"55 476 CURVE SMOOTH",
"55 342 OFFCURVE",
"154 250 OFFCURVE",
"275 250 CURVE SMOOTH",
"371 250 OFFCURVE",
"417 290 OFFCURVE",
"450 346 CURVE",
"457 346 LINE",
"448 166 OFFCURVE",
"384 84 OFFCURVE",
"287 84 CURVE SMOOTH",
"217 84 OFFCURVE",
"170 122 OFFCURVE",
"157 185 CURVE",
"55 185 LINE",
"67 73 OFFCURVE",
"154 -12 OFFCURVE",
"287 -12 CURVE SMOOTH"
);
},
{
closed = 1;
nodes = (
"214 345 OFFCURVE",
"160 402 OFFCURVE",
"160 481 CURVE SMOOTH",
"160 560 OFFCURVE",
"214 616 OFFCURVE",
"297 616 CURVE SMOOTH",
"380 616 OFFCURVE",
"434 558 OFFCURVE",
"434 480 CURVE SMOOTH",
"434 402 OFFCURVE",
"380 345 OFFCURVE",
"297 345 CURVE SMOOTH"
);
}
);
width = 600;
}
);
unicode = 0039;
},
{
glyphname = three.ss04;
lastChange = "2020-03-04 10:59:31 +0000";
layers = (
{
layerId = "50E3E9DC-0583-4D82-B33B-3FFFE976497D";
paths = (
{
closed = 1;
nodes = (
"442 -12 OFFCURVE",
"539 76 OFFCURVE",
"539 211 CURVE SMOOTH",
"539 343 OFFCURVE",
"453 427 OFFCURVE",
"313 427 CURVE SMOOTH",
"307 427 LINE",
"307 433 LINE",
"507 642 LINE",
"507 700 LINE",
"97 700 LINE",
"97 636 LINE",
"417 636 LINE",
"212 421 LINE",
"212 368 LINE",
"297 368 LINE SMOOTH",
"398 368 OFFCURVE",
"467 312 OFFCURVE",
"467 211 CURVE SMOOTH",
"467 110 OFFCURVE",
"405 52 OFFCURVE",
"302 52 CURVE SMOOTH",
"197 52 OFFCURVE",
"135 121 OFFCURVE",
"128 207 CURVE",
"58 207 LINE",
"68 67 OFFCURVE",
"164 -12 OFFCURVE",
"301 -12 CURVE SMOOTH"
);
}
);
width = 600;
},
{
layerId = "AE089E19-69A3-44A1-A715-1879E192462D";
paths = (
{
closed = 1;
nodes = (
"455 -12 OFFCURVE",
"544 96 OFFCURVE",
"544 216 CURVE SMOOTH",
"544 350 OFFCURVE",
"452 440 OFFCURVE",
"335 440 CURVE SMOOTH",
"335 440 LINE",
"335 446 LINE",
"514 609 LINE",
"514 700 LINE",
"87 700 LINE",
"87 609 LINE",
"373 609 LINE",
"198 440 LINE",
"198 352 LINE",
"289 352 LINE SMOOTH",
"388 352 OFFCURVE",
"439 293 OFFCURVE",
"439 216 CURVE SMOOTH",
"439 142 OFFCURVE",
"387 86 OFFCURVE",
"300 86 CURVE SMOOTH",
"212 86 OFFCURVE",
"160 139 OFFCURVE",
"156 213 CURVE",
"50 213 LINE",
"55 68 OFFCURVE",
"161 -12 OFFCURVE",
"300 -12 CURVE SMOOTH"
);
}
);
width = 600;
}
);
},
{
glyphname = six.ss04;
lastChange = "2020-03-04 10:59:31 +0000";
layers = (
{
layerId = "50E3E9DC-0583-4D82-B33B-3FFFE976497D";
paths = (
{
closed = 1;
nodes = (
"446 -12 OFFCURVE",
"545 87 OFFCURVE",
"545 218 CURVE SMOOTH",
"545 349 OFFCURVE",
"448 447 OFFCURVE",
"322 447 CURVE SMOOTH",
"271 447 OFFCURVE",
"216 427 OFFCURVE",
"188 397 CURVE",
"184 401 LINE",
"398 700 LINE",
"311 700 LINE",
"162 480 LINE SMOOTH",
"111 405 OFFCURVE",
"69 336 OFFCURVE",
"69 238 CURVE SMOOTH",
"69 85 OFFCURVE",
"166 -12 OFFCURVE",
"309 -12 CURVE SMOOTH"
);
},
{
closed = 1;
nodes = (
"211 52 OFFCURVE",
"144 122 OFFCURVE",
"144 217 CURVE SMOOTH",
"144 312 OFFCURVE",
"211 383 OFFCURVE",
"309 383 CURVE SMOOTH",
"407 383 OFFCURVE",
"473 312 OFFCURVE",
"473 218 CURVE SMOOTH",
"473 124 OFFCURVE",
"407 52 OFFCURVE",
"309 52 CURVE SMOOTH"
);
}
);
width = 600;
},
{
layerId = "AE089E19-69A3-44A1-A715-1879E192462D";
paths = (
{
closed = 1;
nodes = (
"450 -12 OFFCURVE",
"548 97 OFFCURVE",
"548 224 CURVE SMOOTH",
"548 358 OFFCURVE",
"452 450 OFFCURVE",
"332 450 CURVE SMOOTH",
"302 450 OFFCURVE",
"258 440 OFFCURVE",
"236 420 CURVE",
"228 425 LINE",
"421 700 LINE",
"292 700 LINE",
"144 478 LINE SMOOTH",
"101 413 OFFCURVE",
"59 341 OFFCURVE",
"59 239 CURVE SMOOTH",
"59 76 OFFCURVE",
"165 -12 OFFCURVE",
"307 -12 CURVE SMOOTH"
);
},
{
closed = 1;
nodes = (
"224 84 OFFCURVE",
"169 142 OFFCURVE",
"169 220 CURVE SMOOTH",
"169 298 OFFCURVE",
"224 355 OFFCURVE",
"306 355 CURVE SMOOTH",
"387 355 OFFCURVE",
"443 298 OFFCURVE",
"443 219 CURVE SMOOTH",
"443 140 OFFCURVE",
"387 84 OFFCURVE",
"306 84 CURVE SMOOTH"
);
}
);
width = 600;
}
);
},
{
glyphname = nine.ss04;
lastChange = "2020-03-04 10:59:31 +0000";
layers = (
{
layerId = "50E3E9DC-0583-4D82-B33B-3FFFE976497D";
paths = (
{
closed = 1;
nodes = (
"289 0 LINE",
"438 216 LINE SMOOTH",
"490 292 OFFCURVE",
"533 371 OFFCURVE",
"533 472 CURVE SMOOTH",
"533 615 OFFCURVE",
"433 712 OFFCURVE",
"291 712 CURVE SMOOTH",
"154 712 OFFCURVE",
"55 613 OFFCURVE",
"55 482 CURVE SMOOTH",
"55 351 OFFCURVE",
"152 253 OFFCURVE",
"278 253 CURVE SMOOTH",
"329 253 OFFCURVE",
"384 273 OFFCURVE",
"412 303 CURVE",
"416 299 LINE",
"202 0 LINE"
);
},
{
closed = 1;
nodes = (
"193 317 OFFCURVE",
"127 388 OFFCURVE",
"127 482 CURVE SMOOTH",
"127 576 OFFCURVE",
"193 648 OFFCURVE",
"291 648 CURVE SMOOTH",
"389 648 OFFCURVE",
"456 578 OFFCURVE",
"456 483 CURVE SMOOTH",
"456 388 OFFCURVE",
"389 317 OFFCURVE",
"291 317 CURVE SMOOTH"
);
}
);
width = 600;
},
{
layerId = "AE089E19-69A3-44A1-A715-1879E192462D";
paths = (
{
closed = 1;
nodes = (
"308 0 LINE",
"456 222 LINE SMOOTH",
"499 287 OFFCURVE",
"541 359 OFFCURVE",
"541 461 CURVE SMOOTH",
"541 624 OFFCURVE",
"435 712 OFFCURVE",
"293 712 CURVE SMOOTH",
"144 712 OFFCURVE",
"52 603 OFFCURVE",
"52 476 CURVE SMOOTH",
"52 342 OFFCURVE",
"151 250 OFFCURVE",
"268 250 CURVE SMOOTH",
"298 250 OFFCURVE",
"342 260 OFFCURVE",
"364 280 CURVE",
"372 275 LINE",
"179 0 LINE"
);
},
{
closed = 1;
nodes = (
"213 345 OFFCURVE",
"157 402 OFFCURVE",
"157 481 CURVE SMOOTH",
"157 560 OFFCURVE",
"213 616 OFFCURVE",
"294 616 CURVE SMOOTH",
"376 616 OFFCURVE",
"431 558 OFFCURVE",
"431 480 CURVE SMOOTH",
"431 402 OFFCURVE",
"376 345 OFFCURVE",
"294 345 CURVE SMOOTH"
);
}
);
width = 600;
}
);
},
{
glyphname = onesuperior;
lastChange = "2020-03-04 08:53:31 +0000";
layers = (
{
layerId = "50E3E9DC-0583-4D82-B33B-3FFFE976497D";
paths = (
{
closed = 1;
nodes = (
"324 280 LINE",
"324 700 LINE",
"287 700 LINE",
"165 659 LINE",
"165 613 LINE",
"266 632 LINE",
"266 280 LINE"
);
},
{
closed = 1;
nodes = (
"437 280 LINE",
"437 332 LINE",
"160 332 LINE",
"160 280 LINE"
);
}
);
userData = {
RMXScaler = {
adjustSpace = 120;
height = 60;
verticalShift = 280;
weight = -12;
width = 60;
};
};
width = 600;
},
{
layerId = "AE089E19-69A3-44A1-A715-1879E192462D";
paths = (
{
closed = 1;
nodes = (
"336 280 LINE",
"336 700 LINE",
"289 700 LINE",
"159 657 LINE",
"159 586 LINE",
"252 602 LINE",
"252 280 LINE"
);
},
{
closed = 1;
nodes = (
"443 280 LINE",
"443 354 LINE",
"155 354 LINE",
"155 280 LINE"
);
}
);
width = 600;
}
);
unicode = 00B9;
userData = {
RMXScaler = {
source = one;
};
};
},
{
glyphname = twosuperior;
lastChange = "2020-03-04 08:53:31 +0000";
layers = (
{
layerId = "50E3E9DC-0583-4D82-B33B-3FFFE976497D";
paths = (
{
closed = 1;
nodes = (
"447 280 LINE",
"447 331 LINE",
"253 331 LINE",
"341 399 OFFCURVE",
"436 483 OFFCURVE",
"436 581 CURVE SMOOTH",
"436 658 OFFCURVE",
"387 707 OFFCURVE",
"304 707 CURVE SMOOTH",
"226 707 OFFCURVE",
"168 659 OFFCURVE",
"167 573 CURVE",
"223 573 LINE",
"223 617 OFFCURVE",
"252 655 OFFCURVE",
"304 655 CURVE SMOOTH",
"348 655 OFFCURVE",
"376 625 OFFCURVE",
"376 579 CURVE SMOOTH",
"376 498 OFFCURVE",
"292 426 OFFCURVE",
"166 326 CURVE",
"166 280 LINE"
);
}
);
userData = {
RMXScaler = {
adjustSpace = 120;
height = 60;
verticalShift = 280;
weight = -12;
width = 60;
};
};
width = 600;
},
{
layerId = "AE089E19-69A3-44A1-A715-1879E192462D";
paths = (
{
closed = 1;
nodes = (
"450 280 LINE",
"450 350 LINE",
"276 350 LINE",
"348 406 OFFCURVE",
"439 485 OFFCURVE",
"439 579 CURVE SMOOTH",
"439 657 OFFCURVE",
"389 707 OFFCURVE",
"301 707 CURVE SMOOTH",
"221 707 OFFCURVE",
"160 664 OFFCURVE",
"157 567 CURVE",
"238 567 LINE",
"238 601 OFFCURVE",
"261 632 OFFCURVE",
"301 632 CURVE SMOOTH",
"334 632 OFFCURVE",
"353 609 OFFCURVE",
"353 576 CURVE SMOOTH",
"353 507 OFFCURVE",
"269 437 OFFCURVE",
"156 347 CURVE",
"156 280 LINE"
);
}
);
width = 600;
}
);
unicode = 00B2;
userData = {
RMXScaler = {
source = two;
};
};
},
{
glyphname = threesuperior;
lastChange = "2020-03-04 08:53:31 +0000";
layers = (
{
layerId = "50E3E9DC-0583-4D82-B33B-3FFFE976497D";
paths = (
{
closed = 1;
nodes = (
"395 273 OFFCURVE",
"449 331 OFFCURVE",
"449 402 CURVE SMOOTH",
"449 460 OFFCURVE",
"416 494 OFFCURVE",
"368 508 CURVE",
"368 512 LINE",
"403 525 OFFCURVE",
"432 558 OFFCURVE",
"432 599 CURVE SMOOTH",
"432 659 OFFCURVE",
"387 707 OFFCURVE",
"304 707 CURVE SMOOTH",
"229 707 OFFCURVE",
"173 662 OFFCURVE",
"169 588 CURVE",
"227 588 LINE",
"230 628 OFFCURVE",
"261 654 OFFCURVE",
"304 654 CURVE SMOOTH",
"348 654 OFFCURVE",
"373 629 OFFCURVE",
"373 594 CURVE SMOOTH",
"373 552 OFFCURVE",
"344 530 OFFCURVE",
"289 530 CURVE SMOOTH",
"257 530 LINE",
"257 478 LINE",
"294 478 LINE SMOOTH",
"347 478 OFFCURVE",
"391 455 OFFCURVE",
"391 404 CURVE SMOOTH",
"391 356 OFFCURVE",
"359 326 OFFCURVE",
"304 326 CURVE SMOOTH",
"249 326 OFFCURVE",
"215 361 OFFCURVE",
"213 407 CURVE",
"155 407 LINE",
"158 321 OFFCURVE",
"221 273 OFFCURVE",
"304 273 CURVE SMOOTH"
);
}
);
userData = {
RMXScaler = {
adjustSpace = 120;
height = 60;
verticalShift = 280;
weight = -12;
width = 60;
};
};
width = 600;
},
{
layerId = "AE089E19-69A3-44A1-A715-1879E192462D";
paths = (
{
closed = 1;
nodes = (
"397 273 OFFCURVE",
"451 333 OFFCURVE",
"451 401 CURVE SMOOTH",
"451 460 OFFCURVE",
"420 495 OFFCURVE",
"375 507 CURVE",
"375 511 LINE",
"407 524 OFFCURVE",
"434 552 OFFCURVE",
"434 594 CURVE SMOOTH",
"434 659 OFFCURVE",
"391 707 OFFCURVE",
"298 707 CURVE SMOOTH",
"216 707 OFFCURVE",
"159 658 OFFCURVE",
"155 579 CURVE",
"238 579 LINE",
"239 608 OFFCURVE",
"262 630 OFFCURVE",
"298 630 CURVE SMOOTH",
"331 630 OFFCURVE",
"352 613 OFFCURVE",
"352 584 CURVE SMOOTH",
"352 550 OFFCURVE",
"327 536 OFFCURVE",
"283 536 CURVE SMOOTH",
"251 536 LINE",
"251 464 LINE",
"290 464 LINE SMOOTH",
"335 464 OFFCURVE",
"370 447 OFFCURVE",
"370 405 CURVE SMOOTH",
"370 371 OFFCURVE",
"343 350 OFFCURVE",
"301 350 CURVE SMOOTH",
"258 350 OFFCURVE",
"232 374 OFFCURVE",
"229 413 CURVE",
"146 413 LINE",
"149 323 OFFCURVE",
"215 273 OFFCURVE",
"300 273 CURVE SMOOTH"
);
}
);
width = 600;
}
);
unicode = 00B3;
userData = {
RMXScaler = {
source = three;
};
};
},
{
glyphname = foursuperior;
lastChange = "2020-03-04 08:53:31 +0000";
layers = (
{
layerId = "50E3E9DC-0583-4D82-B33B-3FFFE976497D";
paths = (
{
closed = 1;
nodes = (
"407 280 LINE",
"407 373 LINE",
"464 373 LINE",
"464 426 LINE",
"407 426 LINE",
"407 700 LINE",
"338 700 LINE",
"149 419 LINE",
"149 373 LINE",
"349 373 LINE",
"349 280 LINE"
);
},
{
closed = 1;
nodes = (
"352 634 LINE",
"352 426 LINE",
"214 426 LINE"
);
}
);
userData = {
RMXScaler = {
adjustSpace = 120;
height = 60;
verticalShift = 280;
weight = -12;
width = 60;
};
};
width = 600;
},
{
layerId = "AE089E19-69A3-44A1-A715-1879E192462D";
paths = (
{
closed = 1;
nodes = (
"422 280 LINE",
"422 360 LINE",
"479 360 LINE",
"479 436 LINE",
"422 436 LINE",
"422 700 LINE",
"322 700 LINE",
"142 428 LINE",
"142 360 LINE",
"338 360 LINE",
"338 280 LINE"
);
},
{
closed = 1;
nodes = (
"343 609 LINE",
"343 436 LINE",
"234 436 LINE"
);
}
);
width = 600;
}
);
unicode = 2074;
userData = {
RMXScaler = {
source = four;
};
};
},
{
glyphname = fraction;
lastChange = "2020-03-04 08:53:31 +0000";
layers = (
{
layerId = "50E3E9DC-0583-4D82-B33B-3FFFE976497D";
paths = (
{
closed = 1;
nodes = (
"493 326 LINE",
"493 378 LINE",
"107 378 LINE",
"107 326 LINE"
);
}
);
width = 600;
},
{
layerId = "AE089E19-69A3-44A1-A715-1879E192462D";
paths = (
{
closed = 1;
nodes = (
"496 322 LINE",
"496 382 LINE",
"105 382 LINE",
"105 322 LINE"
);
}
);
width = 600;
}
);
unicode = 2044;
},
{
glyphname = onehalf;
lastChange = "2020-03-04 08:53:31 +0000";
layers = (
{
layerId = "50E3E9DC-0583-4D82-B33B-3FFFE976497D";
paths = (
{
closed = 1;
nodes = (
"408 0 LINE",
"408 50 LINE",
"282 50 LINE",
"334 86 OFFCURVE",
"400 138 OFFCURVE",
"400 200 CURVE SMOOTH",
"400 252 OFFCURVE",
"364 286 OFFCURVE",
"301 286 CURVE SMOOTH",
"247 286 OFFCURVE",
"202 258 OFFCURVE",
"197 191 CURVE",
"255 191 LINE",
"255 213 OFFCURVE",
"269 232 OFFCURVE",
"301 232 CURVE SMOOTH",
"324 232 OFFCURVE",
"338 217 OFFCURVE",
"338 195 CURVE SMOOTH",
"338 150 OFFCURVE",
"278 106 OFFCURVE",
"196 48 CURVE",
"196 0 LINE"
);
},
{
closed = 1;
nodes = (
"493 326 LINE",
"493 378 LINE",
"107 378 LINE",
"107 326 LINE"
);
},
{
closed = 1;
nodes = (
"409 417 LINE",
"409 470 LINE",
"201 470 LINE",
"201 417 LINE"
);
},
{
closed = 1;
nodes = (
"332 417 LINE",
"332 699 LINE",
"298 699 LINE",
"204 670 LINE",
"204 619 LINE",
"271 629 LINE",
"271 417 LINE"
);
}
);
width = 600;
},
{
layerId = "AE089E19-69A3-44A1-A715-1879E192462D";
paths = (
{
closed = 1;
nodes = (
"410 0 LINE",
"410 61 LINE",
"295 61 LINE",
"338 90 OFFCURVE",
"402 139 OFFCURVE",
"402 199 CURVE SMOOTH",
"402 252 OFFCURVE",
"365 286 OFFCURVE",
"299 286 CURVE SMOOTH",
"243 286 OFFCURVE",
"196 260 OFFCURVE",
"192 187 CURVE",
"264 187 LINE",
"264 204 OFFCURVE",
"276 220 OFFCURVE",
"299 220 CURVE SMOOTH",
"317 220 OFFCURVE",
"326 209 OFFCURVE",
"326 195 CURVE SMOOTH",
"326 157 OFFCURVE",
"266 112 OFFCURVE",
"191 60 CURVE",
"191 0 LINE"
);
},
{
closed = 1;
nodes = (
"496 322 LINE",
"496 382 LINE",
"105 382 LINE",
"105 322 LINE"
);
},
{
closed = 1;
nodes = (
"413 417 LINE",
"413 482 LINE",
"199 482 LINE",
"199 417 LINE"
);
},
{
closed = 1;
nodes = (
"339 417 LINE",
"339 699 LINE",
"299 699 LINE",
"202 669 LINE",
"202 605 LINE",
"264 612 LINE",
"264 417 LINE"
);
}
);
width = 600;
}
);
unicode = 00BD;
},
{
glyphname = onequarter;
lastChange = "2020-03-04 08:53:31 +0000";
layers = (
{
layerId = "50E3E9DC-0583-4D82-B33B-3FFFE976497D";
paths = (
{
closed = 1;
nodes = (
"367 -1 LINE",
"367 51 LINE",
"400 51 LINE",
"400 105 LINE",
"367 105 LINE",
"367 281 LINE",
"295 281 LINE",
"166 100 LINE",
"166 51 LINE",
"306 51 LINE",
"306 -1 LINE"
);
},
{
closed = 1;
nodes = (
"310 216 LINE",
"310 105 LINE",
"232 105 LINE"
);
},
{
closed = 1;
nodes = (
"493 326 LINE",
"493 378 LINE",
"107 378 LINE",
"107 326 LINE"
);
},
{
closed = 1;
nodes = (
"409 417 LINE",
"409 470 LINE",
"201 470 LINE",
"201 417 LINE"
);
},
{
closed = 1;
nodes = (
"332 417 LINE",
"332 699 LINE",
"298 699 LINE",
"204 670 LINE",
"204 619 LINE",
"271 629 LINE",
"271 417 LINE"
);
}
);
width = 600;
},
{
layerId = "AE089E19-69A3-44A1-A715-1879E192462D";
paths = (
{
closed = 1;
nodes = (
"379 0 LINE",
"379 49 LINE",
"406 49 LINE",
"406 109 LINE",
"379 109 LINE",
"379 281 LINE",
"291 281 LINE",
"165 104 LINE",
"165 49 LINE",
"304 49 LINE",
"304 0 LINE"
);
},
{
closed = 1;
nodes = (
"309 202 LINE",
"309 109 LINE",
"247 109 LINE"
);
},
{
closed = 1;
nodes = (
"496 322 LINE",
"496 382 LINE",
"105 382 LINE",
"105 322 LINE"
);
},
{
closed = 1;
nodes = (
"413 417 LINE",
"413 482 LINE",
"199 482 LINE",
"199 417 LINE"
);
},
{
closed = 1;
nodes = (
"339 417 LINE",
"339 699 LINE",
"299 699 LINE",
"202 669 LINE",
"202 605 LINE",
"264 612 LINE",
"264 417 LINE"
);
}
);
width = 600;
}
);
unicode = 00BC;
},
{
glyphname = threequarters;
lastChange = "2020-03-04 08:53:31 +0000";
layers = (
{
layerId = "50E3E9DC-0583-4D82-B33B-3FFFE976497D";
paths = (
{
closed = 1;
nodes = (
"367 0 LINE",
"367 51 LINE",
"400 51 LINE",
"400 105 LINE",
"367 105 LINE",
"367 281 LINE",
"295 281 LINE",
"166 100 LINE",
"166 51 LINE",
"306 51 LINE",
"306 0 LINE"
);
},
{
closed = 1;
nodes = (
"310 216 LINE",
"310 105 LINE",
"232 105 LINE"
);
},
{
closed = 1;
nodes = (
"493 326 LINE",
"493 378 LINE",
"107 378 LINE",
"107 326 LINE"
);
},
{
closed = 1;
nodes = (
"369 413 OFFCURVE",
"409 453 OFFCURVE",
"409 499 CURVE SMOOTH",
"409 540 OFFCURVE",
"384 562 OFFCURVE",
"354 570 CURVE",
"354 572 LINE",
"377 581 OFFCURVE",
"397 600 OFFCURVE",
"397 627 CURVE SMOOTH",
"397 672 OFFCURVE",
"365 704 OFFCURVE",
"299 704 CURVE SMOOTH",
"240 704 OFFCURVE",
"199 671 OFFCURVE",
"196 617 CURVE",
"255 617 LINE",
"256 635 OFFCURVE",
"273 649 OFFCURVE",
"299 649 CURVE SMOOTH",
"323 649 OFFCURVE",
"337 638 OFFCURVE",
"337 620 CURVE SMOOTH",
"337 596 OFFCURVE",
"315 590 OFFCURVE",
"288 590 CURVE SMOOTH",
"265 590 LINE",
"265 539 LINE",
"293 539 LINE SMOOTH",
"325 539 OFFCURVE",
"350 528 OFFCURVE",
"350 502 CURVE SMOOTH",
"350 481 OFFCURVE",
"331 468 OFFCURVE",
"301 468 CURVE SMOOTH",
"273 468 OFFCURVE",
"251 480 OFFCURVE",
"248 507 CURVE",
"189 507 LINE",
"191 446 OFFCURVE",
"240 413 OFFCURVE",
"300 413 CURVE SMOOTH"
);
}
);
width = 600;
},
{
layerId = "AE089E19-69A3-44A1-A715-1879E192462D";
paths = (
{
closed = 1;
nodes = (
"379 0 LINE",
"379 49 LINE",
"406 49 LINE",
"406 109 LINE",
"379 109 LINE",
"379 281 LINE",
"291 281 LINE",
"165 104 LINE",
"165 49 LINE",
"304 49 LINE",
"304 0 LINE"
);
},
{
closed = 1;
nodes = (
"309 202 LINE",
"309 109 LINE",
"247 109 LINE"
);
},
{
closed = 1;
nodes = (
"496 322 LINE",
"496 382 LINE",
"105 382 LINE",
"105 322 LINE"
);
},
{
closed = 1;
nodes = (
"373 413 OFFCURVE",
"411 453 OFFCURVE",
"411 498 CURVE SMOOTH",
"411 541 OFFCURVE",
"388 562 OFFCURVE",
"358 569 CURVE",
"358 571 LINE",
"380 580 OFFCURVE",
"399 599 OFFCURVE",
"399 625 CURVE SMOOTH",
"399 670 OFFCURVE",
"367 704 OFFCURVE",
"297 704 CURVE SMOOTH",
"234 704 OFFCURVE",
"193 668 OFFCURVE",
"191 612 CURVE",
"262 612 LINE",
"262 626 OFFCURVE",
"274 639 OFFCURVE",
"297 639 CURVE SMOOTH",
"316 639 OFFCURVE",
"329 631 OFFCURVE",
"329 614 CURVE SMOOTH",
"329 595 OFFCURVE",
"311 591 OFFCURVE",
"290 591 CURVE SMOOTH",
"263 591 LINE",
"263 534 LINE",
"292 534 LINE SMOOTH",
"318 534 OFFCURVE",
"339 526 OFFCURVE",
"339 505 CURVE SMOOTH",
"339 485 OFFCURVE",
"322 477 OFFCURVE",
"299 477 CURVE SMOOTH",
"276 477 OFFCURVE",
"258 489 OFFCURVE",
"256 510 CURVE",
"185 510 LINE",
"189 450 OFFCURVE",
"233 413 OFFCURVE",
"298 413 CURVE SMOOTH"
);
}
);
width = 600;
}
);
unicode = 00BE;
},
{
glyphname = period;
lastChange = "2020-03-04 08:53:31 +0000";
layers = (
{
layerId = "50E3E9DC-0583-4D82-B33B-3FFFE976497D";
paths = (
{
closed = 1;
nodes = (
"336 0 OFFCURVE",
"366 30 OFFCURVE",
"366 66 CURVE SMOOTH",
"366 102 OFFCURVE",
"336 132 OFFCURVE",
"300 132 CURVE SMOOTH",
"264 132 OFFCURVE",
"234 102 OFFCURVE",
"234 66 CURVE SMOOTH",
"234 30 OFFCURVE",
"264 0 OFFCURVE",
"300 0 CURVE SMOOTH"
);
}
);
width = 600;
},
{
layerId = "AE089E19-69A3-44A1-A715-1879E192462D";
paths = (
{
closed = 1;
nodes = (
"351 -6 OFFCURVE",
"389 31 OFFCURVE",
"389 78 CURVE SMOOTH",
"389 125 OFFCURVE",
"351 161 OFFCURVE",
"300 161 CURVE SMOOTH",
"250 161 OFFCURVE",
"211 125 OFFCURVE",
"211 78 CURVE SMOOTH",
"211 31 OFFCURVE",
"250 -6 OFFCURVE",
"300 -6 CURVE SMOOTH"
);
}
);
width = 600;
}
);
unicode = 002E;
},
{
glyphname = comma;
lastChange = "2020-03-04 08:53:31 +0000";
layers = (
{
layerId = "50E3E9DC-0583-4D82-B33B-3FFFE976497D";
paths = (
{
closed = 1;
nodes = (
"242 -120 LINE",
"352 142 LINE",
"260 142 LINE",
"177 -120 LINE"
);
}
);
width = 600;
},
{
layerId = "AE089E19-69A3-44A1-A715-1879E192462D";
paths = (
{
closed = 1;
nodes = (
"248 -125 LINE",
"379 155 LINE",
"240 155 LINE",
"144 -125 LINE"
);
}
);
width = 600;
}
);
unicode = 002C;
},
{
glyphname = ellipsis;
lastChange = "2020-03-04 08:53:31 +0000";
layers = (
{
layerId = "50E3E9DC-0583-4D82-B33B-3FFFE976497D";
paths = (
{
closed = 1;
nodes = (
"136 0 OFFCURVE",
"166 30 OFFCURVE",
"166 66 CURVE SMOOTH",
"166 102 OFFCURVE",
"136 132 OFFCURVE",
"100 132 CURVE SMOOTH",
"64 132 OFFCURVE",
"34 102 OFFCURVE",
"34 66 CURVE SMOOTH",
"34 30 OFFCURVE",
"64 0 OFFCURVE",
"100 0 CURVE SMOOTH"
);
},
{
closed = 1;
nodes = (
"336 0 OFFCURVE",
"366 30 OFFCURVE",
"366 66 CURVE SMOOTH",
"366 102 OFFCURVE",
"336 132 OFFCURVE",
"300 132 CURVE SMOOTH",
"264 132 OFFCURVE",
"234 102 OFFCURVE",
"234 66 CURVE SMOOTH",
"234 30 OFFCURVE",
"264 0 OFFCURVE",
"300 0 CURVE SMOOTH"
);
},
{
closed = 1;
nodes = (
"536 0 OFFCURVE",
"566 30 OFFCURVE",
"566 66 CURVE SMOOTH",
"566 102 OFFCURVE",
"536 132 OFFCURVE",
"500 132 CURVE SMOOTH",
"464 132 OFFCURVE",
"434 102 OFFCURVE",
"434 66 CURVE SMOOTH",
"434 30 OFFCURVE",
"464 0 OFFCURVE",
"500 0 CURVE SMOOTH"
);
}
);
width = 600;
},
{
layerId = "AE089E19-69A3-44A1-A715-1879E192462D";
paths = (
{
closed = 1;
nodes = (
"141 -6 OFFCURVE",
"177 31 OFFCURVE",
"177 78 CURVE SMOOTH",
"177 125 OFFCURVE",
"141 161 OFFCURVE",
"94 161 CURVE SMOOTH",
"47 161 OFFCURVE",
"11 125 OFFCURVE",
"11 78 CURVE SMOOTH",
"11 31 OFFCURVE",
"47 -6 OFFCURVE",
"94 -6 CURVE SMOOTH"
);
},
{
closed = 1;
nodes = (
"347 -6 OFFCURVE",
"383 31 OFFCURVE",
"383 78 CURVE SMOOTH",
"383 125 OFFCURVE",
"347 161 OFFCURVE",
"300 161 CURVE SMOOTH",
"253 161 OFFCURVE",
"217 125 OFFCURVE",
"217 78 CURVE SMOOTH",
"217 31 OFFCURVE",
"253 -6 OFFCURVE",
"300 -6 CURVE SMOOTH"
);
},
{
closed = 1;
nodes = (
"553 -6 OFFCURVE",
"589 31 OFFCURVE",
"589 78 CURVE SMOOTH",
"589 125 OFFCURVE",
"553 161 OFFCURVE",
"506 161 CURVE SMOOTH",
"460 161 OFFCURVE",
"423 125 OFFCURVE",
"423 78 CURVE SMOOTH",
"423 31 OFFCURVE",
"460 -6 OFFCURVE",
"506 -6 CURVE SMOOTH"
);
}
);
width = 600;
}
);
unicode = 2026;
},
{
glyphname = exclam;
lastChange = "2020-03-04 08:53:31 +0000";
layers = (
{
components = (
{
alignment = -1;
name = period;
}
);
layerId = "50E3E9DC-0583-4D82-B33B-3FFFE976497D";
paths = (
{
closed = 1;
nodes = (
"333 245 LINE",
"342 700 LINE",
"258 700 LINE",
"266 245 LINE"
);
}
);
width = 600;
},
{
components = (
{
alignment = -1;
name = period;
transform = "{1, 0, 0, 1, 1, 0}";
}
);
layerId = "AE089E19-69A3-44A1-A715-1879E192462D";
paths = (
{
closed = 1;
nodes = (
"349 255 LINE",
"366 700 LINE",
"234 700 LINE",
"250 255 LINE"
);
}
);
width = 600;
}
);
unicode = 0021;
},
{
glyphname = exclamdown;
lastChange = "2020-03-04 08:53:31 +0000";
layers = (
{
layerId = "50E3E9DC-0583-4D82-B33B-3FFFE976497D";
paths = (
{
closed = 1;
nodes = (
"342 -220 LINE",
"334 263 LINE",
"267 263 LINE",
"258 -220 LINE"
);
},
{
closed = 1;
nodes = (
"336 376 OFFCURVE",
"366 406 OFFCURVE",
"366 442 CURVE SMOOTH",
"366 478 OFFCURVE",
"336 508 OFFCURVE",
"300 508 CURVE SMOOTH",
"264 508 OFFCURVE",
"234 478 OFFCURVE",
"234 442 CURVE SMOOTH",
"234 406 OFFCURVE",
"264 376 OFFCURVE",
"300 376 CURVE SMOOTH"
);
}
);
width = 600;
},
{
layerId = "AE089E19-69A3-44A1-A715-1879E192462D";
paths = (
{
closed = 1;
nodes = (
"366 -220 LINE",
"350 247 LINE",
"251 247 LINE",
"234 -220 LINE"
);
},
{
closed = 1;
nodes = (
"350 341 OFFCURVE",
"389 377 OFFCURVE",
"389 424 CURVE SMOOTH",
"389 471 OFFCURVE",
"350 508 OFFCURVE",
"300 508 CURVE SMOOTH",
"249 508 OFFCURVE",
"211 471 OFFCURVE",
"211 424 CURVE SMOOTH",
"211 377 OFFCURVE",
"249 341 OFFCURVE",
"300 341 CURVE SMOOTH"
);
}
);
width = 600;
}
);
unicode = 00A1;
},
{
glyphname = question;
lastChange = "2020-03-04 08:53:31 +0000";
layers = (
{
components = (
{
alignment = -1;
name = period;
transform = "{1, 0, 0, 1, -45, 0}";
}
);
layerId = "50E3E9DC-0583-4D82-B33B-3FFFE976497D";
paths = (
{
closed = 1;
nodes = (
"286 206 LINE",
"289 299 LINE",
"396 307 OFFCURVE",
"503 359 OFFCURVE",
"503 508 CURVE SMOOTH",
"503 635 OFFCURVE",
"415 712 OFFCURVE",
"289 712 CURVE SMOOTH",
"165 712 OFFCURVE",
"78 631 OFFCURVE",
"74 514 CURVE",
"141 514 LINE",
"147 596 OFFCURVE",
"202 648 OFFCURVE",
"289 648 CURVE SMOOTH",
"379 648 OFFCURVE",
"435 597 OFFCURVE",
"435 508 CURVE SMOOTH",
"435 391 OFFCURVE",
"360 349 OFFCURVE",
"248 349 CURVE SMOOTH",
"222 349 LINE",
"226 206 LINE"
);
}
);
width = 600;
},
{
components = (
{
alignment = -1;
name = period;
transform = "{1, 0, 0, 1, -47, 0}";
}
);
layerId = "AE089E19-69A3-44A1-A715-1879E192462D";
paths = (
{
closed = 1;
nodes = (
"301 220 LINE",
"304 298 LINE",
"414 308 OFFCURVE",
"516 371 OFFCURVE",
"516 506 CURVE SMOOTH",
"516 632 OFFCURVE",
"433 712 OFFCURVE",
"291 712 CURVE SMOOTH",
"153 712 OFFCURVE",
"69 627 OFFCURVE",
"66 508 CURVE",
"166 508 LINE",
"172 574 OFFCURVE",
"219 617 OFFCURVE",
"291 617 CURVE SMOOTH",
"367 617 OFFCURVE",
"413 572 OFFCURVE",
"413 504 CURVE SMOOTH",
"413 415 OFFCURVE",
"354 374 OFFCURVE",
"242 374 CURVE SMOOTH",
"204 374 LINE",
"210 220 LINE"
);
}
);
width = 600;
}
);
unicode = 003F;
},
{
glyphname = questiondown;
lastChange = "2020-03-04 08:53:31 +0000";
layers = (
{
layerId = "50E3E9DC-0583-4D82-B33B-3FFFE976497D";
paths = (
{
closed = 1;
nodes = (
"412 -232 OFFCURVE",
"499 -151 OFFCURVE",
"503 -34 CURVE",
"436 -34 LINE",
"430 -116 OFFCURVE",
"375 -168 OFFCURVE",
"288 -168 CURVE SMOOTH",
"198 -168 OFFCURVE",
"142 -117 OFFCURVE",
"142 -28 CURVE SMOOTH",
"142 89 OFFCURVE",
"217 131 OFFCURVE",
"329 131 CURVE SMOOTH",
"355 131 LINE",
"351 302 LINE",
"291 302 LINE",
"288 181 LINE",
"181 173 OFFCURVE",
"74 121 OFFCURVE",
"74 -28 CURVE SMOOTH",
"74 -155 OFFCURVE",
"162 -232 OFFCURVE",
"288 -232 CURVE SMOOTH"
);
},
{
closed = 1;
nodes = (
"358 376 OFFCURVE",
"388 406 OFFCURVE",
"388 442 CURVE SMOOTH",
"388 478 OFFCURVE",
"358 508 OFFCURVE",
"322 508 CURVE SMOOTH",
"286 508 OFFCURVE",
"256 478 OFFCURVE",
"256 442 CURVE SMOOTH",
"256 406 OFFCURVE",
"286 376 OFFCURVE",
"322 376 CURVE SMOOTH"
);
}
);
width = 600;
},
{
layerId = "AE089E19-69A3-44A1-A715-1879E192462D";
paths = (
{
closed = 1;
nodes = (
"429 -232 OFFCURVE",
"513 -147 OFFCURVE",
"516 -28 CURVE",
"416 -28 LINE",
"410 -94 OFFCURVE",
"363 -137 OFFCURVE",
"291 -137 CURVE SMOOTH",
"215 -137 OFFCURVE",
"169 -92 OFFCURVE",
"169 -24 CURVE SMOOTH",
"169 65 OFFCURVE",
"228 106 OFFCURVE",
"340 106 CURVE SMOOTH",
"378 106 LINE",
"371 282 LINE",
"281 282 LINE",
"278 182 LINE",
"168 172 OFFCURVE",
"66 109 OFFCURVE",
"66 -26 CURVE SMOOTH",
"66 -152 OFFCURVE",
"149 -232 OFFCURVE",
"291 -232 CURVE SMOOTH"
);
},
{
closed = 1;
nodes = (
"380 341 OFFCURVE",
"418 377 OFFCURVE",
"418 424 CURVE SMOOTH",
"418 471 OFFCURVE",
"380 508 OFFCURVE",
"329 508 CURVE SMOOTH",
"279 508 OFFCURVE",
"240 471 OFFCURVE",
"240 424 CURVE SMOOTH",
"240 377 OFFCURVE",
"279 341 OFFCURVE",
"329 341 CURVE SMOOTH"
);
}
);
width = 600;
}
);
unicode = 00BF;
},
{
glyphname = bullet;
lastChange = "2020-03-04 08:53:31 +0000";
layers = (
{
layerId = "50E3E9DC-0583-4D82-B33B-3FFFE976497D";
paths = (
{
closed = 1;
nodes = (
"364 235 OFFCURVE",
"415 286 OFFCURVE",
"415 350 CURVE SMOOTH",
"415 414 OFFCURVE",
"364 465 OFFCURVE",
"300 465 CURVE SMOOTH",
"236 465 OFFCURVE",
"185 414 OFFCURVE",
"185 350 CURVE SMOOTH",
"185 286 OFFCURVE",
"236 235 OFFCURVE",
"300 235 CURVE SMOOTH"
);
}
);
width = 600;
},
{
layerId = "AE089E19-69A3-44A1-A715-1879E192462D";
paths = (
{
closed = 1;
nodes = (
"376 213 OFFCURVE",
"437 274 OFFCURVE",
"437 350 CURVE SMOOTH",
"437 426 OFFCURVE",
"376 487 OFFCURVE",
"300 487 CURVE SMOOTH",
"224 487 OFFCURVE",
"163 426 OFFCURVE",
"163 350 CURVE SMOOTH",
"163 274 OFFCURVE",
"224 213 OFFCURVE",
"300 213 CURVE SMOOTH"
);
}
);
width = 600;
}
);
unicode = 2022;
},
{
glyphname = asterisk;
lastChange = "2020-03-04 08:53:31 +0000";
layers = (
{
background = {
paths = (
{
closed = 1;
nodes = (
"330 164 LINE",
"318 321 LINE",
"447 235 LINE",
"476 287 LINE",
"334 351 LINE",
"475 415 LINE",
"447 466 LINE",
"318 379 LINE",
"331 536 LINE",
"272 536 LINE",
"284 379 LINE",
"154 466 LINE",
"125 414 LINE",
"266 351 LINE",
"124 287 LINE",
"154 234 LINE",
"283 321 LINE",
"272 164 LINE"
);
}
);
};
layerId = "50E3E9DC-0583-4D82-B33B-3FFFE976497D";
paths = (
{
closed = 1;
nodes = (
"338 101 LINE",
"321 315 LINE",
"498 198 LINE",
"534 262 LINE",
"343 350 LINE",
"534 438 LINE",
"498 502 LINE",
"321 385 LINE",
"338 599 LINE",
"262 599 LINE",
"279 385 LINE",
"102 502 LINE",
"66 438 LINE",
"257 350 LINE",
"66 262 LINE",
"102 198 LINE",
"279 315 LINE",
"262 101 LINE"
);
}
);
width = 600;
},
{
layerId = "AE089E19-69A3-44A1-A715-1879E192462D";
paths = (
{
closed = 1;
nodes = (
"354 101 LINE",
"328 304 LINE",
"494 187 LINE",
"540 271 LINE",
"355 350 LINE",
"540 429 LINE",
"494 513 LINE",
"328 396 LINE",
"354 599 LINE",
"247 599 LINE",
"273 396 LINE",
"107 513 LINE",
"61 429 LINE",
"245 350 LINE",
"61 271 LINE",
"107 187 LINE",
"273 304 LINE",
"247 101 LINE"
);
}
);
width = 600;
}
);
unicode = 002A;
},
{
glyphname = numbersign;
lastChange = "2020-03-04 08:53:31 +0000";
layers = (
{
layerId = "50E3E9DC-0583-4D82-B33B-3FFFE976497D";
paths = (
{
closed = 1;
nodes = (
"393 0 LINE",
"503 700 LINE",
"436 700 LINE",
"326 0 LINE"
);
},
{
closed = 1;
nodes = (
"164 0 LINE",
"274 700 LINE",
"207 700 LINE",
"97 0 LINE"
);
},
{
closed = 1;
nodes = (
"540 204 LINE",
"540 266 LINE",
"20 266 LINE",
"20 204 LINE"
);
},
{
closed = 1;
nodes = (
"580 434 LINE",
"580 496 LINE",
"60 496 LINE",
"60 434 LINE"
);
}
);
width = 600;
},
{
layerId = "AE089E19-69A3-44A1-A715-1879E192462D";
paths = (
{
closed = 1;
nodes = (
"415 0 LINE",
"523 700 LINE",
"424 700 LINE",
"316 0 LINE"
);
},
{
closed = 1;
nodes = (
"176 0 LINE",
"284 700 LINE",
"185 700 LINE",
"77 0 LINE"
);
},
{
closed = 1;
nodes = (
"549 186 LINE",
"549 278 LINE",
"12 278 LINE",
"12 186 LINE"
);
},
{
closed = 1;
nodes = (
"588 422 LINE",
"588 514 LINE",
"51 514 LINE",
"51 422 LINE"
);
}
);
width = 600;
}
);
unicode = 0023;
},
{
glyphname = slash;
lastChange = "2020-03-04 08:53:31 +0000";
layers = (
{
layerId = "50E3E9DC-0583-4D82-B33B-3FFFE976497D";
paths = (
{
closed = 1;
nodes = (
"163 -90 LINE",
"510 760 LINE",
"436 760 LINE",
"90 -90 LINE"
);
}
);
width = 600;
},
{
layerId = "AE089E19-69A3-44A1-A715-1879E192462D";
paths = (
{
closed = 1;
nodes = (
"180 -90 LINE",
"527 760 LINE",
"419 760 LINE",
"73 -90 LINE"
);
}
);
width = 600;
}
);
unicode = 002F;
},
{
glyphname = backslash;
lastChange = "2020-03-04 08:53:31 +0000";
layers = (
{
layerId = "50E3E9DC-0583-4D82-B33B-3FFFE976497D";
paths = (
{
closed = 1;
nodes = (
"510 -90 LINE",
"164 760 LINE",
"90 760 LINE",
"437 -90 LINE"
);
}
);
width = 600;
},
{
layerId = "AE089E19-69A3-44A1-A715-1879E192462D";
paths = (
{
closed = 1;
nodes = (
"527 -90 LINE",
"181 760 LINE",
"73 760 LINE",
"420 -90 LINE"
);
}
);
width = 600;
}
);
unicode = 005C;
},
{
glyphname = comma.ss01;
lastChange = "2020-03-04 11:16:13 +0000";
layers = (
{
layerId = "50E3E9DC-0583-4D82-B33B-3FFFE976497D";
paths = (
{
closed = 1;
nodes = (
"315 -139 OFFCURVE",
"369 -83 OFFCURVE",
"369 47 CURVE SMOOTH",
"369 107 OFFCURVE",
"336 132 OFFCURVE",
"300 132 CURVE SMOOTH",
"264 132 OFFCURVE",
"234 102 OFFCURVE",
"234 66 CURVE SMOOTH",
"234 34 OFFCURVE",
"257 0 OFFCURVE",
"300 0 CURVE SMOOTH",
"311 0 LINE",
"311 -58 OFFCURVE",
"278 -93 OFFCURVE",
"226 -93 CURVE",
"226 -139 LINE"
);
}
);
width = 600;
},
{
layerId = "AE089E19-69A3-44A1-A715-1879E192462D";
paths = (
{
closed = 1;
nodes = (
"321 -162 OFFCURVE",
"388 -92 OFFCURVE",
"388 55 CURVE SMOOTH",
"388 125 OFFCURVE",
"351 161 OFFCURVE",
"300 161 CURVE SMOOTH",
"250 161 OFFCURVE",
"211 125 OFFCURVE",
"211 78 CURVE SMOOTH",
"211 38 OFFCURVE",
"243 -3 OFFCURVE",
"292 -3 CURVE SMOOTH",
"300 -3 LINE",
"300 -75 OFFCURVE",
"249 -97 OFFCURVE",
"196 -97 CURVE",
"196 -162 LINE"
);
}
);
width = 600;
}
);
},
{
glyphname = parenleft;
lastChange = "2020-03-04 08:53:31 +0000";
layers = (
{
layerId = "50E3E9DC-0583-4D82-B33B-3FFFE976497D";
paths = (
{
closed = 1;
nodes = (
"433 -185 LINE",
"433 -178 LINE",
"312 -51 OFFCURVE",
"228 105 OFFCURVE",
"228 313 CURVE SMOOTH",
"228 521 OFFCURVE",
"312 677 OFFCURVE",
"433 804 CURVE",
"433 811 LINE",
"356 811 LINE",
"253 698 OFFCURVE",
"158 545 OFFCURVE",
"158 313 CURVE SMOOTH",
"158 81 OFFCURVE",
"253 -72 OFFCURVE",
"356 -185 CURVE"
);
}
);
width = 600;
},
{
layerId = "AE089E19-69A3-44A1-A715-1879E192462D";
paths = (
{
closed = 1;
nodes = (
"443 -185 LINE",
"443 -172 LINE",
"327 -38 OFFCURVE",
"251 102 OFFCURVE",
"251 313 CURVE SMOOTH",
"251 524 OFFCURVE",
"327 664 OFFCURVE",
"443 798 CURVE",
"443 811 LINE",
"335 811 LINE",
"229 691 OFFCURVE",
"144 544 OFFCURVE",
"144 313 CURVE SMOOTH",
"144 82 OFFCURVE",
"229 -65 OFFCURVE",
"335 -185 CURVE"
);
}
);
width = 600;
}
);
unicode = 0028;
},
{
glyphname = parenright;
lastChange = "2020-03-04 08:53:31 +0000";
layers = (
{
layerId = "50E3E9DC-0583-4D82-B33B-3FFFE976497D";
paths = (
{
closed = 1;
nodes = (
"244 -185 LINE",
"347 -72 OFFCURVE",
"442 81 OFFCURVE",
"442 313 CURVE SMOOTH",
"442 545 OFFCURVE",
"347 698 OFFCURVE",
"244 811 CURVE",
"167 811 LINE",
"167 804 LINE",
"288 677 OFFCURVE",
"372 521 OFFCURVE",
"372 313 CURVE SMOOTH",
"372 105 OFFCURVE",
"288 -51 OFFCURVE",
"167 -178 CURVE",
"167 -185 LINE"
);
}
);
width = 600;
},
{
layerId = "AE089E19-69A3-44A1-A715-1879E192462D";
paths = (
{
closed = 1;
nodes = (
"265 -185 LINE",
"371 -65 OFFCURVE",
"456 82 OFFCURVE",
"456 313 CURVE SMOOTH",
"456 544 OFFCURVE",
"371 691 OFFCURVE",
"265 811 CURVE",
"157 811 LINE",
"157 798 LINE",
"273 664 OFFCURVE",
"349 524 OFFCURVE",
"349 313 CURVE SMOOTH",
"349 102 OFFCURVE",
"273 -38 OFFCURVE",
"157 -172 CURVE",
"157 -185 LINE"
);
}
);
width = 600;
}
);
unicode = 0029;
},
{
glyphname = braceleft;
lastChange = "2020-03-04 08:53:31 +0000";
layers = (
{
background = {
paths = (
{
closed = 1;
nodes = (
"484 -145 LINE",
"484 -84 LINE",
"396 -84 LINE SMOOTH",
"339 -84 OFFCURVE",
"307 -59 OFFCURVE",
"307 5 CURVE SMOOTH",
"307 67 OFFCURVE",
"329 109 OFFCURVE",
"329 189 CURVE SMOOTH",
"329 259 OFFCURVE",
"296 314 OFFCURVE",
"217 332 CURVE",
"217 334 LINE",
"296 352 OFFCURVE",
"329 407 OFFCURVE",
"329 477 CURVE SMOOTH",
"329 558 OFFCURVE",
"307 599 OFFCURVE",
"307 661 CURVE SMOOTH",
"307 725 OFFCURVE",
"339 750 OFFCURVE",
"396 750 CURVE SMOOTH",
"484 750 LINE",
"484 811 LINE",
"384 811 LINE SMOOTH",
"297 811 OFFCURVE",
"239 764 OFFCURVE",
"239 666 CURVE SMOOTH",
"239 598 OFFCURVE",
"261 559 OFFCURVE",
"261 479 CURVE SMOOTH",
"261 400 OFFCURVE",
"232 362 OFFCURVE",
"146 362 CURVE SMOOTH",
"118 362 LINE",
"118 305 LINE",
"146 305 LINE SMOOTH",
"232 305 OFFCURVE",
"261 266 OFFCURVE",
"261 187 CURVE SMOOTH",
"261 108 OFFCURVE",
"239 68 OFFCURVE",
"239 0 CURVE SMOOTH",
"239 -98 OFFCURVE",
"297 -145 OFFCURVE",
"384 -145 CURVE SMOOTH"
);
}
);
};
layerId = "50E3E9DC-0583-4D82-B33B-3FFFE976497D";
paths = (
{
closed = 1;
nodes = (
"484 -185 LINE",
"484 -123 LINE",
"396 -123 LINE SMOOTH",
"339 -123 OFFCURVE",
"307 -99 OFFCURVE",
"307 -35 CURVE SMOOTH",
"307 54 OFFCURVE",
"329 88 OFFCURVE",
"329 177 CURVE SMOOTH",
"329 247 OFFCURVE",
"296 293 OFFCURVE",
"247 311 CURVE",
"247 315 LINE",
"296 333 OFFCURVE",
"329 379 OFFCURVE",
"329 449 CURVE SMOOTH",
"329 539 OFFCURVE",
"307 572 OFFCURVE",
"307 661 CURVE SMOOTH",
"307 725 OFFCURVE",
"339 749 OFFCURVE",
"396 749 CURVE SMOOTH",
"484 749 LINE",
"484 811 LINE",
"392 811 LINE SMOOTH",
"297 811 OFFCURVE",
"239 770 OFFCURVE",
"239 666 CURVE SMOOTH",
"239 591 OFFCURVE",
"261 549 OFFCURVE",
"261 439 CURVE SMOOTH",
"261 380 OFFCURVE",
"232 344 OFFCURVE",
"166 344 CURVE SMOOTH",
"118 344 LINE",
"118 282 LINE",
"166 282 LINE SMOOTH",
"232 282 OFFCURVE",
"261 246 OFFCURVE",
"261 187 CURVE SMOOTH",
"261 78 OFFCURVE",
"239 35 OFFCURVE",
"239 -40 CURVE SMOOTH",
"239 -144 OFFCURVE",
"297 -185 OFFCURVE",
"392 -185 CURVE SMOOTH"
);
}
);
width = 600;
},
{
layerId = "AE089E19-69A3-44A1-A715-1879E192462D";
paths = (
{
closed = 1;
nodes = (
"495 -185 LINE",
"495 -92 LINE",
"409 -92 LINE SMOOTH",
"357 -92 OFFCURVE",
"331 -69 OFFCURVE",
"331 -15 CURVE SMOOTH",
"331 52 OFFCURVE",
"351 94 OFFCURVE",
"351 174 CURVE SMOOTH",
"351 245 OFFCURVE",
"318 294 OFFCURVE",
"268 310 CURVE",
"268 316 LINE",
"318 332 OFFCURVE",
"351 381 OFFCURVE",
"351 452 CURVE SMOOTH",
"351 532 OFFCURVE",
"331 574 OFFCURVE",
"331 641 CURVE SMOOTH",
"331 695 OFFCURVE",
"357 718 OFFCURVE",
"409 718 CURVE SMOOTH",
"495 718 LINE",
"495 811 LINE",
"393 811 LINE SMOOTH",
"293 811 OFFCURVE",
"228 759 OFFCURVE",
"228 656 CURVE SMOOTH",
"228 580 OFFCURVE",
"250 536 OFFCURVE",
"250 451 CURVE SMOOTH",
"250 399 OFFCURVE",
"223 360 OFFCURVE",
"152 360 CURVE SMOOTH",
"107 360 LINE",
"107 266 LINE",
"152 266 LINE SMOOTH",
"223 266 OFFCURVE",
"250 227 OFFCURVE",
"250 175 CURVE SMOOTH",
"250 90 OFFCURVE",
"228 46 OFFCURVE",
"228 -29 CURVE SMOOTH",
"228 -133 OFFCURVE",
"293 -185 OFFCURVE",
"393 -185 CURVE SMOOTH"
);
}
);
width = 600;
}
);
unicode = 007B;
},
{
glyphname = braceright;
lastChange = "2020-03-04 08:53:31 +0000";
layers = (
{
layerId = "50E3E9DC-0583-4D82-B33B-3FFFE976497D";
paths = (
{
closed = 1;
nodes = (
"208 -185 LINE SMOOTH",
"303 -185 OFFCURVE",
"361 -144 OFFCURVE",
"361 -40 CURVE SMOOTH",
"361 35 OFFCURVE",
"339 78 OFFCURVE",
"339 187 CURVE SMOOTH",
"339 246 OFFCURVE",
"368 282 OFFCURVE",
"434 282 CURVE SMOOTH",
"482 282 LINE",
"482 344 LINE",
"434 344 LINE SMOOTH",
"368 344 OFFCURVE",
"339 380 OFFCURVE",
"339 439 CURVE SMOOTH",
"339 549 OFFCURVE",
"361 591 OFFCURVE",
"361 666 CURVE SMOOTH",
"361 770 OFFCURVE",
"303 811 OFFCURVE",
"208 811 CURVE SMOOTH",
"116 811 LINE",
"116 749 LINE",
"204 749 LINE SMOOTH",
"261 749 OFFCURVE",
"293 725 OFFCURVE",
"293 661 CURVE SMOOTH",
"293 572 OFFCURVE",
"271 539 OFFCURVE",
"271 449 CURVE SMOOTH",
"271 379 OFFCURVE",
"304 333 OFFCURVE",
"353 315 CURVE",
"353 311 LINE",
"304 293 OFFCURVE",
"271 247 OFFCURVE",
"271 177 CURVE SMOOTH",
"271 88 OFFCURVE",
"293 54 OFFCURVE",
"293 -35 CURVE SMOOTH",
"293 -99 OFFCURVE",
"261 -123 OFFCURVE",
"204 -123 CURVE SMOOTH",
"116 -123 LINE",
"116 -185 LINE"
);
}
);
width = 600;
},
{
layerId = "AE089E19-69A3-44A1-A715-1879E192462D";
paths = (
{
closed = 1;
nodes = (
"207 -185 LINE SMOOTH",
"307 -185 OFFCURVE",
"372 -133 OFFCURVE",
"372 -29 CURVE SMOOTH",
"372 46 OFFCURVE",
"350 90 OFFCURVE",
"350 175 CURVE SMOOTH",
"350 227 OFFCURVE",
"377 266 OFFCURVE",
"448 266 CURVE SMOOTH",
"493 266 LINE",
"493 360 LINE",
"448 360 LINE SMOOTH",
"377 360 OFFCURVE",
"350 399 OFFCURVE",
"350 451 CURVE SMOOTH",
"350 536 OFFCURVE",
"372 580 OFFCURVE",
"372 656 CURVE SMOOTH",
"372 759 OFFCURVE",
"307 811 OFFCURVE",
"207 811 CURVE SMOOTH",
"105 811 LINE",
"105 718 LINE",
"191 718 LINE SMOOTH",
"243 718 OFFCURVE",
"269 695 OFFCURVE",
"269 641 CURVE SMOOTH",
"269 574 OFFCURVE",
"249 532 OFFCURVE",
"249 452 CURVE SMOOTH",
"249 381 OFFCURVE",
"282 332 OFFCURVE",
"332 316 CURVE",
"332 310 LINE",
"282 294 OFFCURVE",
"249 245 OFFCURVE",
"249 174 CURVE SMOOTH",
"249 94 OFFCURVE",
"269 52 OFFCURVE",
"269 -15 CURVE SMOOTH",
"269 -69 OFFCURVE",
"243 -92 OFFCURVE",
"191 -92 CURVE SMOOTH",
"105 -92 LINE",
"105 -185 LINE"
);
}
);
width = 600;
}
);
unicode = 007D;
},
{
glyphname = bracketleft;
lastChange = "2020-03-04 08:53:31 +0000";
layers = (
{
layerId = "50E3E9DC-0583-4D82-B33B-3FFFE976497D";
paths = (
{
closed = 1;
nodes = (
"420 -185 LINE",
"420 -122 LINE",
"262 -122 LINE SMOOTH",
"249 -122 OFFCURVE",
"242 -115 OFFCURVE",
"242 -102 CURVE SMOOTH",
"242 729 LINE SMOOTH",
"242 742 OFFCURVE",
"249 749 OFFCURVE",
"262 749 CURVE SMOOTH",
"420 749 LINE",
"420 811 LINE",
"260 811 LINE SMOOTH",
"206 811 OFFCURVE",
"176 781 OFFCURVE",
"176 727 CURVE SMOOTH",
"176 -101 LINE SMOOTH",
"176 -155 OFFCURVE",
"206 -185 OFFCURVE",
"260 -185 CURVE SMOOTH"
);
}
);
width = 600;
},
{
layerId = "AE089E19-69A3-44A1-A715-1879E192462D";
paths = (
{
closed = 1;
nodes = (
"434 -185 LINE",
"434 -90 LINE",
"294 -90 LINE SMOOTH",
"273 -90 OFFCURVE",
"262 -79 OFFCURVE",
"262 -58 CURVE SMOOTH",
"262 686 LINE SMOOTH",
"262 707 OFFCURVE",
"273 718 OFFCURVE",
"294 718 CURVE SMOOTH",
"434 718 LINE",
"434 811 LINE",
"276 811 LINE SMOOTH",
"203 811 OFFCURVE",
"162 770 OFFCURVE",
"162 697 CURVE SMOOTH",
"162 -71 LINE SMOOTH",
"162 -144 OFFCURVE",
"203 -185 OFFCURVE",
"276 -185 CURVE SMOOTH"
);
}
);
width = 600;
}
);
unicode = 005B;
},
{
glyphname = bracketright;
lastChange = "2020-03-04 08:53:31 +0000";
layers = (
{
layerId = "50E3E9DC-0583-4D82-B33B-3FFFE976497D";
paths = (
{
closed = 1;
nodes = (
"340 -185 LINE SMOOTH",
"394 -185 OFFCURVE",
"424 -155 OFFCURVE",
"424 -101 CURVE SMOOTH",
"424 727 LINE SMOOTH",
"424 781 OFFCURVE",
"394 811 OFFCURVE",
"340 811 CURVE SMOOTH",
"180 811 LINE",
"180 749 LINE",
"338 749 LINE SMOOTH",
"351 749 OFFCURVE",
"358 742 OFFCURVE",
"358 729 CURVE SMOOTH",
"358 -102 LINE SMOOTH",
"358 -115 OFFCURVE",
"351 -122 OFFCURVE",
"338 -122 CURVE SMOOTH",
"180 -122 LINE",
"180 -185 LINE"
);
}
);
width = 600;
},
{
layerId = "AE089E19-69A3-44A1-A715-1879E192462D";
paths = (
{
closed = 1;
nodes = (
"324 -185 LINE SMOOTH",
"397 -185 OFFCURVE",
"438 -144 OFFCURVE",
"438 -71 CURVE SMOOTH",
"438 697 LINE SMOOTH",
"438 770 OFFCURVE",
"397 811 OFFCURVE",
"324 811 CURVE SMOOTH",
"166 811 LINE",
"166 718 LINE",
"306 718 LINE SMOOTH",
"327 718 OFFCURVE",
"338 707 OFFCURVE",
"338 686 CURVE SMOOTH",
"338 -58 LINE SMOOTH",
"338 -79 OFFCURVE",
"327 -90 OFFCURVE",
"306 -90 CURVE SMOOTH",
"166 -90 LINE",
"166 -185 LINE"
);
}
);
width = 600;
}
);
unicode = 005D;
},
{
glyphname = hyphen;
lastChange = "2020-03-04 08:53:31 +0000";
layers = (
{
layerId = "50E3E9DC-0583-4D82-B33B-3FFFE976497D";
paths = (
{
closed = 1;
nodes = (
"460 320 LINE",
"460 380 LINE",
"140 380 LINE",
"140 320 LINE"
);
}
);
width = 600;
},
{
layerId = "AE089E19-69A3-44A1-A715-1879E192462D";
paths = (
{
closed = 1;
nodes = (
"472 305 LINE",
"472 395 LINE",
"128 395 LINE",
"128 305 LINE"
);
}
);
width = 600;
}
);
unicode = 002D;
},
{
glyphname = endash;
lastChange = "2020-03-04 08:53:31 +0000";
layers = (
{
layerId = "50E3E9DC-0583-4D82-B33B-3FFFE976497D";
paths = (
{
closed = 1;
nodes = (
"500 320 LINE",
"500 380 LINE",
"100 380 LINE",
"100 320 LINE"
);
}
);
width = 600;
},
{
layerId = "AE089E19-69A3-44A1-A715-1879E192462D";
paths = (
{
closed = 1;
nodes = (
"512 305 LINE",
"512 395 LINE",
"88 395 LINE",
"88 305 LINE"
);
}
);
width = 600;
}
);
unicode = 2013;
},
{
glyphname = emdash;
lastChange = "2020-03-04 08:53:31 +0000";
layers = (
{
layerId = "50E3E9DC-0583-4D82-B33B-3FFFE976497D";
paths = (
{
closed = 1;
nodes = (
"600 320 LINE",
"600 380 LINE",
"0 380 LINE",
"0 320 LINE"
);
}
);
width = 600;
},
{
layerId = "AE089E19-69A3-44A1-A715-1879E192462D";
paths = (
{
closed = 1;
nodes = (
"600 305 LINE",
"600 395 LINE",
"0 395 LINE",
"0 305 LINE"
);
}
);
width = 600;
}
);
unicode = 2014;
},
{
glyphname = underscore;
lastChange = "2020-03-04 08:53:31 +0000";
layers = (
{
layerId = "50E3E9DC-0583-4D82-B33B-3FFFE976497D";
paths = (
{
closed = 1;
nodes = (
"520 -65 LINE",
"520 0 LINE",
"80 0 LINE",
"80 -65 LINE"
);
}
);
width = 600;
},
{
layerId = "AE089E19-69A3-44A1-A715-1879E192462D";
paths = (
{
closed = 1;
nodes = (
"532 -95 LINE",
"532 0 LINE",
"68 0 LINE",
"68 -95 LINE"
);
}
);
width = 600;
}
);
unicode = 005F;
},
{
glyphname = quoteleft;
lastChange = "2020-03-04 08:53:31 +0000";
layers = (
{
layerId = "50E3E9DC-0583-4D82-B33B-3FFFE976497D";
paths = (
{
closed = 1;
nodes = (
"301 430 LINE",
"371 700 LINE",
"308 700 LINE",
"214 430 LINE"
);
}
);
width = 600;
},
{
layerId = "AE089E19-69A3-44A1-A715-1879E192462D";
paths = (
{
closed = 1;
nodes = (
"323 405 LINE",
"386 700 LINE",
"291 700 LINE",
"182 405 LINE"
);
}
);
width = 600;
}
);
unicode = 2018;
},
{
glyphname = quoteright;
lastChange = "2020-03-04 08:53:31 +0000";
layers = (
{
layerId = "50E3E9DC-0583-4D82-B33B-3FFFE976497D";
paths = (
{
closed = 1;
nodes = (
"292 430 LINE",
"386 700 LINE",
"299 700 LINE",
"229 430 LINE"
);
}
);
width = 600;
},
{
layerId = "AE089E19-69A3-44A1-A715-1879E192462D";
paths = (
{
closed = 1;
nodes = (
"309 405 LINE",
"418 700 LINE",
"277 700 LINE",
"214 405 LINE"
);
}
);
width = 600;
}
);
unicode = 2019;
},
{
glyphname = guilsinglleft;
lastChange = "2020-03-04 08:53:31 +0000";
layers = (
{
layerId = "50E3E9DC-0583-4D82-B33B-3FFFE976497D";
paths = (
{
closed = 1;
nodes = (
"394 100 LINE",
"284 293 LINE",
"284 297 LINE",
"394 490 LINE",
"319 490 LINE",
"204 295 LINE",
"319 100 LINE"
);
}
);
width = 600;
},
{
layerId = "AE089E19-69A3-44A1-A715-1879E192462D";
paths = (
{
closed = 1;
nodes = (
"420 94 LINE",
"305 292 LINE",
"305 298 LINE",
"420 496 LINE",
"311 496 LINE",
"190 295 LINE",
"311 94 LINE"
);
}
);
width = 600;
}
);
unicode = 2039;
},
{
glyphname = guilsinglright;
lastChange = "2020-03-04 08:53:31 +0000";
layers = (
{
layerId = "50E3E9DC-0583-4D82-B33B-3FFFE976497D";
paths = (
{
closed = 1;
nodes = (
"281 100 LINE",
"396 295 LINE",
"281 490 LINE",
"206 490 LINE",
"316 297 LINE",
"316 293 LINE",
"206 100 LINE"
);
}
);
width = 600;
},
{
layerId = "AE089E19-69A3-44A1-A715-1879E192462D";
paths = (
{
closed = 1;
nodes = (
"289 94 LINE",
"410 295 LINE",
"289 496 LINE",
"180 496 LINE",
"295 298 LINE",
"295 292 LINE",
"180 94 LINE"
);
}
);
width = 600;
}
);
unicode = 203A;
},
{
glyphname = quotesingle;
lastChange = "2020-03-04 08:53:31 +0000";
layers = (
{
layerId = "50E3E9DC-0583-4D82-B33B-3FFFE976497D";
paths = (
{
closed = 1;
nodes = (
"338 398 LINE",
"338 700 LINE",
"262 700 LINE",
"262 398 LINE"
);
}
);
width = 600;
},
{
layerId = "AE089E19-69A3-44A1-A715-1879E192462D";
paths = (
{
closed = 1;
nodes = (
"359 379 LINE",
"359 700 LINE",
"241 700 LINE",
"241 379 LINE"
);
}
);
width = 600;
}
);
unicode = 0027;
},
{
glyphname = quoteleft.ss01;
lastChange = "2020-03-04 11:16:13 +0000";
layers = (
{
layerId = "50E3E9DC-0583-4D82-B33B-3FFFE976497D";
paths = (
{
closed = 1;
nodes = (
"325 435 OFFCURVE",
"355 465 OFFCURVE",
"355 501 CURVE SMOOTH",
"355 533 OFFCURVE",
"332 567 OFFCURVE",
"289 567 CURVE SMOOTH",
"278 567 LINE",
"278 629 OFFCURVE",
"310 666 OFFCURVE",
"381 666 CURVE",
"381 712 LINE",
"276 712 OFFCURVE",
"220 654 OFFCURVE",
"220 524 CURVE SMOOTH",
"220 460 OFFCURVE",
"253 435 OFFCURVE",
"289 435 CURVE SMOOTH"
);
}
);
width = 600;
},
{
layerId = "AE089E19-69A3-44A1-A715-1879E192462D";
paths = (
{
closed = 1;
nodes = (
"334 381 OFFCURVE",
"373 417 OFFCURVE",
"373 464 CURVE SMOOTH",
"373 504 OFFCURVE",
"341 545 OFFCURVE",
"292 545 CURVE SMOOTH",
"284 545 LINE",
"284 618 OFFCURVE",
"335 647 OFFCURVE",
"408 647 CURVE",
"408 712 LINE",
"273 712 OFFCURVE",
"196 639 OFFCURVE",
"196 493 CURVE SMOOTH",
"196 421 OFFCURVE",
"235 381 OFFCURVE",
"284 381 CURVE SMOOTH"
);
}
);
width = 600;
}
);
},
{
glyphname = quoteright.ss01;
lastChange = "2020-03-04 11:16:13 +0000";
layers = (
{
background = {
paths = (
{
closed = 1;
nodes = (
"315 441 OFFCURVE",
"369 497 OFFCURVE",
"369 627 CURVE SMOOTH",
"369 687 OFFCURVE",
"336 712 OFFCURVE",
"300 712 CURVE SMOOTH",
"264 712 OFFCURVE",
"234 682 OFFCURVE",
"234 646 CURVE SMOOTH",
"234 614 OFFCURVE",
"257 580 OFFCURVE",
"300 580 CURVE SMOOTH",
"311 580 LINE",
"311 522 OFFCURVE",
"278 487 OFFCURVE",
"226 487 CURVE",
"226 441 LINE"
);
}
);
};
layerId = "50E3E9DC-0583-4D82-B33B-3FFFE976497D";
paths = (
{
closed = 1;
nodes = (
"324 435 OFFCURVE",
"380 493 OFFCURVE",
"380 623 CURVE SMOOTH",
"380 687 OFFCURVE",
"347 712 OFFCURVE",
"311 712 CURVE SMOOTH",
"275 712 OFFCURVE",
"245 682 OFFCURVE",
"245 646 CURVE SMOOTH",
"245 614 OFFCURVE",
"268 580 OFFCURVE",
"311 580 CURVE SMOOTH",
"322 580 LINE",
"322 518 OFFCURVE",
"290 481 OFFCURVE",
"219 481 CURVE",
"219 435 LINE"
);
}
);
width = 600;
},
{
layerId = "AE089E19-69A3-44A1-A715-1879E192462D";
paths = (
{
closed = 1;
nodes = (
"327 381 OFFCURVE",
"404 454 OFFCURVE",
"404 600 CURVE SMOOTH",
"404 672 OFFCURVE",
"365 712 OFFCURVE",
"316 712 CURVE SMOOTH",
"266 712 OFFCURVE",
"227 676 OFFCURVE",
"227 629 CURVE SMOOTH",
"227 589 OFFCURVE",
"259 548 OFFCURVE",
"308 548 CURVE SMOOTH",
"316 548 LINE",
"316 475 OFFCURVE",
"265 446 OFFCURVE",
"192 446 CURVE",
"192 381 LINE"
);
}
);
width = 600;
}
);
},
{
glyphname = .notdef;
lastChange = "2020-03-04 08:53:31 +0000";
layers = (
{
layerId = "50E3E9DC-0583-4D82-B33B-3FFFE976497D";
paths = (
{
closed = 1;
nodes = (
"512 0 LINE",
"512 700 LINE",
"88 700 LINE",
"88 0 LINE"
);
},
{
closed = 1;
nodes = (
"158 636 LINE",
"442 636 LINE",
"442 64 LINE",
"158 64 LINE"
);
}
);
width = 600;
},
{
layerId = "AE089E19-69A3-44A1-A715-1879E192462D";
paths = (
{
closed = 1;
nodes = (
"512 0 LINE",
"512 700 LINE",
"88 700 LINE",
"88 0 LINE"
);
},
{
closed = 1;
nodes = (
"158 636 LINE",
"442 636 LINE",
"442 64 LINE",
"158 64 LINE"
);
}
);
width = 600;
}
);
},
{
glyphname = cent;
lastChange = "2020-03-04 08:53:31 +0000";
layers = (
{
layerId = "50E3E9DC-0583-4D82-B33B-3FFFE976497D";
paths = (
{
closed = 1;
nodes = (
"425 90 OFFCURVE",
"500 151 OFFCURVE",
"524 254 CURVE",
"454 254 LINE",
"438 195 OFFCURVE",
"391 155 OFFCURVE",
"313 155 CURVE SMOOTH",
"231 155 OFFCURVE",
"155 217 OFFCURVE",
"155 350 CURVE SMOOTH",
"155 483 OFFCURVE",
"231 544 OFFCURVE",
"313 544 CURVE SMOOTH",
"386 544 OFFCURVE",
"436 506 OFFCURVE",
"454 446 CURVE",
"524 446 LINE",
"504 545 OFFCURVE",
"434 610 OFFCURVE",
"313 610 CURVE SMOOTH",
"188 610 OFFCURVE",
"83 516 OFFCURVE",
"83 350 CURVE SMOOTH",
"83 184 OFFCURVE",
"185 90 OFFCURVE",
"313 90 CURVE SMOOTH"
);
},
{
closed = 1;
nodes = (
"344 0 LINE",
"344 700 LINE",
"276 700 LINE",
"276 0 LINE"
);
}
);
width = 600;
},
{
layerId = "AE089E19-69A3-44A1-A715-1879E192462D";
paths = (
{
closed = 1;
nodes = (
"432 90 OFFCURVE",
"510 159 OFFCURVE",
"536 268 CURVE",
"426 268 LINE",
"410 219 OFFCURVE",
"372 189 OFFCURVE",
"308 189 CURVE SMOOTH",
"238 189 OFFCURVE",
"176 245 OFFCURVE",
"176 350 CURVE SMOOTH",
"176 455 OFFCURVE",
"238 510 OFFCURVE",
"308 510 CURVE SMOOTH",
"370 510 OFFCURVE",
"413 480 OFFCURVE",
"426 432 CURVE",
"536 432 LINE",
"516 543 OFFCURVE",
"435 610 OFFCURVE",
"309 610 CURVE SMOOTH",
"171 610 OFFCURVE",
"69 507 OFFCURVE",
"69 350 CURVE SMOOTH",
"69 192 OFFCURVE",
"169 90 OFFCURVE",
"309 90 CURVE SMOOTH"
);
},
{
closed = 1;
nodes = (
"343 0 LINE",
"343 700 LINE",
"274 700 LINE",
"274 0 LINE"
);
}
);
width = 600;
}
);
unicode = 00A2;
},
{
glyphname = currency;
lastChange = "2020-03-04 08:53:31 +0000";
layers = (
{
background = {
paths = (
{
closed = 1;
nodes = (
"397 122 OFFCURVE",
"474 194 OFFCURVE",
"474 297 CURVE SMOOTH",
"474 400 OFFCURVE",
"398 472 OFFCURVE",
"303 472 CURVE SMOOTH",
"206 472 OFFCURVE",
"132 400 OFFCURVE",
"132 297 CURVE SMOOTH",
"132 194 OFFCURVE",
"203 122 OFFCURVE",
"303 122 CURVE SMOOTH"
);
},
{
closed = 1;
nodes = (
"217 172 LINE",
"178 211 LINE",
"101 134 LINE",
"140 95 LINE"
);
},
{
closed = 1;
nodes = (
"222 418 LINE",
"140 500 LINE",
"100 460 LINE",
"182 378 LINE"
);
},
{
closed = 1;
nodes = (
"246 180 OFFCURVE",
"192 219 OFFCURVE",
"192 297 CURVE SMOOTH",
"192 375 OFFCURVE",
"246 414 OFFCURVE",
"303 414 CURVE SMOOTH",
"356 414 OFFCURVE",
"414 375 OFFCURVE",
"414 297 CURVE SMOOTH",
"414 219 OFFCURVE",
"355 180 OFFCURVE",
"303 180 CURVE SMOOTH"
);
},
{
closed = 1;
nodes = (
"506 134 LINE",
"425 215 LINE",
"385 175 LINE",
"466 94 LINE"
);
},
{
closed = 1;
nodes = (
"505 460 LINE",
"466 499 LINE",
"387 421 LINE",
"427 381 LINE"
);
}
);
};
layerId = "50E3E9DC-0583-4D82-B33B-3FFFE976497D";
paths = (
{
closed = 1;
nodes = (
"394 122 OFFCURVE",
"471 194 OFFCURVE",
"471 297 CURVE SMOOTH",
"471 400 OFFCURVE",
"395 472 OFFCURVE",
"300 472 CURVE SMOOTH",
"203 472 OFFCURVE",
"129 400 OFFCURVE",
"129 297 CURVE SMOOTH",
"129 194 OFFCURVE",
"200 122 OFFCURVE",
"300 122 CURVE SMOOTH"
);
},
{
closed = 1;
nodes = (
"214 172 LINE",
"175 211 LINE",
"98 134 LINE",
"137 95 LINE"
);
},
{
closed = 1;
nodes = (
"219 418 LINE",
"137 500 LINE",
"97 460 LINE",
"179 378 LINE"
);
},
{
closed = 1;
nodes = (
"243 180 OFFCURVE",
"189 219 OFFCURVE",
"189 297 CURVE SMOOTH",
"189 375 OFFCURVE",
"243 414 OFFCURVE",
"300 414 CURVE SMOOTH",
"353 414 OFFCURVE",
"411 375 OFFCURVE",
"411 297 CURVE SMOOTH",
"411 219 OFFCURVE",
"352 180 OFFCURVE",
"300 180 CURVE SMOOTH"
);
},
{
closed = 1;
nodes = (
"503 134 LINE",
"422 215 LINE",
"382 175 LINE",
"463 94 LINE"
);
},
{
closed = 1;
nodes = (
"502 460 LINE",
"463 499 LINE",
"384 421 LINE",
"424 381 LINE"
);
}
);
width = 600;
},
{
layerId = "AE089E19-69A3-44A1-A715-1879E192462D";
paths = (
{
closed = 1;
nodes = (
"394 122 OFFCURVE",
"471 194 OFFCURVE",
"471 297 CURVE SMOOTH",
"471 400 OFFCURVE",
"395 472 OFFCURVE",
"300 472 CURVE SMOOTH",
"203 472 OFFCURVE",
"129 400 OFFCURVE",
"129 297 CURVE SMOOTH",
"129 194 OFFCURVE",
"200 122 OFFCURVE",
"300 122 CURVE SMOOTH"
);
},
{
closed = 1;
nodes = (
"223 168 LINE",
"171 220 LINE",
"91 140 LINE",
"143 88 LINE"
);
},
{
closed = 1;
nodes = (
"223 426 LINE",
"143 506 LINE",
"91 454 LINE",
"171 374 LINE"
);
},
{
closed = 1;
nodes = (
"251 196 OFFCURVE",
"205 230 OFFCURVE",
"205 297 CURVE SMOOTH",
"205 364 OFFCURVE",
"251 398 OFFCURVE",
"300 398 CURVE SMOOTH",
"346 398 OFFCURVE",
"395 364 OFFCURVE",
"395 297 CURVE SMOOTH",
"395 230 OFFCURVE",
"345 196 OFFCURVE",
"300 196 CURVE SMOOTH"
);
},
{
closed = 1;
nodes = (
"509 140 LINE",
"430 219 LINE",
"378 167 LINE",
"457 88 LINE"
);
},
{
closed = 1;
nodes = (
"509 454 LINE",
"457 506 LINE",
"377 426 LINE",
"429 374 LINE"
);
}
);
width = 600;
}
);
unicode = 00A4;
},
{
glyphname = dollar;
lastChange = "2020-03-04 08:53:31 +0000";
layers = (
{
layerId = "50E3E9DC-0583-4D82-B33B-3FFFE976497D";
paths = (
{
closed = 1;
nodes = (
"333 -87 LINE",
"333 791 LINE",
"263 791 LINE",
"263 -87 LINE"
);
},
{
closed = 1;
nodes = (
"445 -12 OFFCURVE",
"543 71 OFFCURVE",
"543 188 CURVE SMOOTH",
"543 299 OFFCURVE",
"471 356 OFFCURVE",
"336 390 CURVE SMOOTH",
"184 429 OFFCURVE",
"145 470 OFFCURVE",
"145 536 CURVE SMOOTH",
"145 607 OFFCURVE",
"211 648 OFFCURVE",
"298 648 CURVE SMOOTH",
"405 648 OFFCURVE",
"455 581 OFFCURVE",
"455 522 CURVE",
"527 522 LINE",
"527 631 OFFCURVE",
"438 712 OFFCURVE",
"302 712 CURVE SMOOTH",
"155 712 OFFCURVE",
"73 634 OFFCURVE",
"73 537 CURVE SMOOTH",
"73 439 OFFCURVE",
"127 372 OFFCURVE",
"279 336 CURVE SMOOTH",
"424 302 OFFCURVE",
"471 265 OFFCURVE",
"471 184 CURVE SMOOTH",
"471 114 OFFCURVE",
"413 52 OFFCURVE",
"307 52 CURVE SMOOTH",
"187 52 OFFCURVE",
"124 125 OFFCURVE",
"124 211 CURVE",
"51 211 LINE",
"51 79 OFFCURVE",
"150 -12 OFFCURVE",
"307 -12 CURVE SMOOTH"
);
}
);
width = 600;
},
{
layerId = "AE089E19-69A3-44A1-A715-1879E192462D";
paths = (
{
closed = 1;
nodes = (
"334 -87 LINE",
"334 791 LINE",
"264 791 LINE",
"264 -87 LINE"
);
},
{
closed = 1;
nodes = (
"461 -12 OFFCURVE",
"554 78 OFFCURVE",
"554 192 CURVE SMOOTH",
"554 311 OFFCURVE",
"474 365 OFFCURVE",
"353 398 CURVE SMOOTH",
"224 433 OFFCURVE",
"172 466 OFFCURVE",
"172 529 CURVE SMOOTH",
"172 583 OFFCURVE",
"224 618 OFFCURVE",
"298 617 CURVE SMOOTH",
"381 616 OFFCURVE",
"426 563 OFFCURVE",
"428 513 CURVE",
"540 513 LINE",
"537 635 OFFCURVE",
"444 712 OFFCURVE",
"301 712 CURVE SMOOTH",
"152 712 OFFCURVE",
"62 636 OFFCURVE",
"62 525 CURVE SMOOTH",
"62 427 OFFCURVE",
"119 363 OFFCURVE",
"250 326 CURVE SMOOTH",
"388 288 OFFCURVE",
"442 259 OFFCURVE",
"442 185 CURVE SMOOTH",
"442 125 OFFCURVE",
"394 83 OFFCURVE",
"306 83 CURVE SMOOTH",
"207 83 OFFCURVE",
"153 142 OFFCURVE",
"150 217 CURVE",
"39 217 LINE",
"40 76 OFFCURVE",
"148 -12 OFFCURVE",
"307 -12 CURVE SMOOTH"
);
}
);
width = 600;
}
);
unicode = 0024;
},
{
glyphname = euro;
lastChange = "2020-03-04 08:53:31 +0000";
layers = (
{
layerId = "50E3E9DC-0583-4D82-B33B-3FFFE976497D";
paths = (
{
closed = 1;
nodes = (
"452 -12 OFFCURVE",
"526 61 OFFCURVE",
"552 178 CURVE",
"481 178 LINE",
"463 106 OFFCURVE",
"413 54 OFFCURVE",
"330 54 CURVE SMOOTH",
"217 54 OFFCURVE",
"146 165 OFFCURVE",
"146 350 CURVE SMOOTH",
"146 535 OFFCURVE",
"213 646 OFFCURVE",
"330 646 CURVE SMOOTH",
"410 646 OFFCURVE",
"466 597 OFFCURVE",
"480 520 CURVE",
"552 520 LINE",
"537 636 OFFCURVE",
"454 712 OFFCURVE",
"330 712 CURVE SMOOTH",
"171 712 OFFCURVE",
"74 571 OFFCURVE",
"74 350 CURVE SMOOTH",
"74 129 OFFCURVE",
"167 -12 OFFCURVE",
"330 -12 CURVE SMOOTH"
);
},
{
closed = 1;
nodes = (
"355 239 LINE",
"355 301 LINE",
"2 301 LINE",
"2 239 LINE"
);
},
{
closed = 1;
nodes = (
"355 399 LINE",
"355 461 LINE",
"2 461 LINE",
"2 399 LINE"
);
}
);
width = 600;
},
{
layerId = "AE089E19-69A3-44A1-A715-1879E192462D";
paths = (
{
closed = 1;
nodes = (
"466 -12 OFFCURVE",
"543 65 OFFCURVE",
"569 184 CURVE",
"457 184 LINE",
"441 127 OFFCURVE",
"401 88 OFFCURVE",
"328 88 CURVE SMOOTH",
"230 88 OFFCURVE",
"173 186 OFFCURVE",
"173 349 CURVE SMOOTH",
"173 513 OFFCURVE",
"229 612 OFFCURVE",
"329 612 CURVE SMOOTH",
"399 612 OFFCURVE",
"444 572 OFFCURVE",
"457 510 CURVE",
"569 510 LINE",
"554 630 OFFCURVE",
"469 712 OFFCURVE",
"330 712 CURVE SMOOTH",
"161 712 OFFCURVE",
"65 566 OFFCURVE",
"65 349 CURVE SMOOTH",
"65 133 OFFCURVE",
"158 -12 OFFCURVE",
"328 -12 CURVE SMOOTH"
);
},
{
closed = 1;
nodes = (
"368 238 LINE",
"368 308 LINE",
"3 308 LINE",
"3 238 LINE"
);
},
{
closed = 1;
nodes = (
"368 391 LINE",
"368 462 LINE",
"3 462 LINE",
"3 391 LINE"
);
}
);
width = 600;
}
);
unicode = 20AC;
},
{
glyphname = florin;
lastChange = "2020-03-04 08:53:31 +0000";
layers = (
{
layerId = "50E3E9DC-0583-4D82-B33B-3FFFE976497D";
paths = (
{
closed = 1;
nodes = (
"73 -220 LINE SMOOTH",
"183 -220 OFFCURVE",
"222 -179 OFFCURVE",
"239 -82 CURVE SMOOTH",
"357 582 LINE SMOOTH",
"366 635 OFFCURVE",
"390 654 OFFCURVE",
"442 654 CURVE SMOOTH",
"566 654 LINE",
"566 720 LINE",
"453 720 LINE SMOOTH",
"349 720 OFFCURVE",
"304 679 OFFCURVE",
"287 582 CURVE SMOOTH",
"169 -82 LINE SMOOTH",
"160 -135 OFFCURVE",
"136 -154 OFFCURVE",
"84 -154 CURVE SMOOTH",
"30 -154 LINE",
"30 -220 LINE"
);
},
{
closed = 1;
nodes = (
"527 436 LINE",
"527 496 LINE",
"145 496 LINE",
"145 436 LINE"
);
}
);
width = 600;
},
{
layerId = "AE089E19-69A3-44A1-A715-1879E192462D";
paths = (
{
closed = 1;
nodes = (
"84 -220 LINE SMOOTH",
"198 -220 OFFCURVE",
"247 -176 OFFCURVE",
"267 -65 CURVE SMOOTH",
"379 564 LINE SMOOTH",
"387 610 OFFCURVE",
"409 627 OFFCURVE",
"456 627 CURVE SMOOTH",
"573 627 LINE",
"573 720 LINE",
"456 720 LINE SMOOTH",
"348 720 OFFCURVE",
"293 676 OFFCURVE",
"273 565 CURVE SMOOTH",
"161 -64 LINE SMOOTH",
"153 -110 OFFCURVE",
"132 -127 OFFCURVE",
"85 -127 CURVE SMOOTH",
"18 -127 LINE",
"18 -220 LINE"
);
},
{
closed = 1;
nodes = (
"540 406 LINE",
"540 496 LINE",
"136 496 LINE",
"136 406 LINE"
);
}
);
width = 600;
}
);
unicode = 0192;
},
{
glyphname = ruble;
lastChange = "2020-03-04 08:53:31 +0000";
layers = (
{
layerId = "50E3E9DC-0583-4D82-B33B-3FFFE976497D";
paths = (
{
closed = 1;
nodes = (
"201 0 LINE",
"201 278 LINE",
"336 278 LINE SMOOTH",
"497 278 OFFCURVE",
"563 378 OFFCURVE",
"563 489 CURVE SMOOTH",
"563 600 OFFCURVE",
"497 700 OFFCURVE",
"336 700 CURVE SMOOTH",
"131 700 LINE",
"131 0 LINE"
);
},
{
closed = 1;
nodes = (
"404 128 LINE",
"404 188 LINE",
"37 188 LINE",
"37 128 LINE"
);
},
{
closed = 1;
nodes = (
"201 636 LINE",
"336 636 LINE SMOOTH",
"439 636 OFFCURVE",
"491 575 OFFCURVE",
"491 489 CURVE SMOOTH",
"491 403 OFFCURVE",
"439 342 OFFCURVE",
"336 342 CURVE SMOOTH",
"201 342 LINE"
);
}
);
width = 600;
},
{
layerId = "AE089E19-69A3-44A1-A715-1879E192462D";
paths = (
{
closed = 1;
nodes = (
"225 0 LINE",
"225 274 LINE",
"338 274 LINE SMOOTH",
"498 274 OFFCURVE",
"572 363 OFFCURVE",
"572 487 CURVE SMOOTH",
"572 610 OFFCURVE",
"498 700 OFFCURVE",
"338 700 CURVE SMOOTH",
"119 700 LINE",
"119 0 LINE"
);
},
{
closed = 1;
nodes = (
"413 117 LINE",
"413 194 LINE",
"31 194 LINE",
"31 117 LINE"
);
},
{
closed = 1;
nodes = (
"225 605 LINE",
"333 605 LINE SMOOTH",
"424 605 OFFCURVE",
"464 558 OFFCURVE",
"464 487 CURVE SMOOTH",
"464 415 OFFCURVE",
"424 369 OFFCURVE",
"333 369 CURVE SMOOTH",
"225 369 LINE"
);
}
);
width = 600;
}
);
unicode = 20BD;
},
{
glyphname = sterling;
lastChange = "2020-03-04 08:53:31 +0000";
layers = (
{
layerId = "50E3E9DC-0583-4D82-B33B-3FFFE976497D";
paths = (
{
closed = 1;
nodes = (
"533 0 LINE",
"533 64 LINE",
"180 64 LINE",
"180 68 LINE",
"219 115 OFFCURVE",
"242 163 OFFCURVE",
"242 231 CURVE SMOOTH",
"242 323 OFFCURVE",
"174 405 OFFCURVE",
"174 506 CURVE SMOOTH",
"174 606 OFFCURVE",
"246 648 OFFCURVE",
"319 648 CURVE SMOOTH",
"408 648 OFFCURVE",
"457 589 OFFCURVE",
"462 510 CURVE",
"532 510 LINE",
"527 625 OFFCURVE",
"457 712 OFFCURVE",
"319 712 CURVE SMOOTH",
"192 712 OFFCURVE",
"104 631 OFFCURVE",
"104 509 CURVE SMOOTH",
"104 388 OFFCURVE",
"174 329 OFFCURVE",
"174 223 CURVE SMOOTH",
"174 150 OFFCURVE",
"139 103 OFFCURVE",
"90 47 CURVE",
"90 0 LINE"
);
},
{
closed = 1;
nodes = (
"404 304 LINE",
"404 364 LINE",
"46 364 LINE",
"46 304 LINE"
);
}
);
width = 600;
},
{
layerId = "AE089E19-69A3-44A1-A715-1879E192462D";
paths = (
{
closed = 1;
nodes = (
"543 0 LINE",
"543 91 LINE",
"193 91 LINE",
"193 97 LINE",
"236 144 OFFCURVE",
"254 192 OFFCURVE",
"254 251 CURVE SMOOTH",
"254 337 OFFCURVE",
"196 417 OFFCURVE",
"196 499 CURVE SMOOTH",
"196 584 OFFCURVE",
"254 622 OFFCURVE",
"318 622 CURVE SMOOTH",
"397 622 OFFCURVE",
"438 570 OFFCURVE",
"442 501 CURVE",
"542 501 LINE",
"539 623 OFFCURVE",
"469 712 OFFCURVE",
"318 712 CURVE SMOOTH",
"186 712 OFFCURVE",
"94 631 OFFCURVE",
"94 503 CURVE SMOOTH",
"94 400 OFFCURVE",
"154 338 OFFCURVE",
"154 248 CURVE SMOOTH",
"154 170 OFFCURVE",
"122 118 OFFCURVE",
"71 64 CURVE",
"71 0 LINE"
);
},
{
closed = 1;
nodes = (
"415 289 LINE",
"415 366 LINE",
"40 366 LINE",
"40 289 LINE"
);
}
);
width = 600;
}
);
unicode = 00A3;
},
{
glyphname = yen;
lastChange = "2020-03-04 08:53:31 +0000";
layers = (
{
background = {
paths = (
{
closed = 1;
nodes = (
"334 0 LINE",
"334 272 LINE",
"558 700 LINE",
"479 700 LINE",
"282 304 LINE",
"314 304 LINE",
"117 700 LINE",
"38 700 LINE",
"264 272 LINE",
"264 0 LINE"
);
},
{
closed = 1;
nodes = (
"534 172 LINE",
"534 225 LINE",
"64 225 LINE",
"64 172 LINE"
);
},
{
closed = 1;
nodes = (
"262 372 LINE",
"64 372 LINE",
"64 320 LINE",
"273 319 LINE"
);
},
{
closed = 1;
nodes = (
"534 320 LINE",
"534 372 LINE",
"344 372 LINE",
"333 319 LINE"
);
}
);
};
layerId = "50E3E9DC-0583-4D82-B33B-3FFFE976497D";
paths = (
{
closed = 1;
nodes = (
"335 0 LINE",
"335 280 LINE",
"560 700 LINE",
"481 700 LINE",
"284 318 LINE",
"316 318 LINE",
"119 700 LINE",
"40 700 LINE",
"265 280 LINE",
"265 0 LINE"
);
},
{
closed = 1;
nodes = (
"515 165 LINE",
"515 225 LINE",
"85 225 LINE",
"85 165 LINE"
);
},
{
closed = 1;
nodes = (
"254 314 LINE",
"254 374 LINE",
"85 374 LINE",
"85 314 LINE"
);
},
{
closed = 1;
nodes = (
"515 314 LINE",
"515 374 LINE",
"346 374 LINE",
"346 314 LINE"
);
}
);
width = 600;
},
{
layerId = "AE089E19-69A3-44A1-A715-1879E192462D";
paths = (
{
closed = 1;
nodes = (
"353 0 LINE",
"353 266 LINE",
"584 700 LINE",
"463 700 LINE",
"283 344 LINE",
"317 344 LINE",
"137 700 LINE",
"16 700 LINE",
"247 266 LINE",
"247 0 LINE"
);
},
{
closed = 1;
nodes = (
"535 152 LINE",
"535 233 LINE",
"65 233 LINE",
"65 152 LINE"
);
},
{
closed = 1;
nodes = (
"256 310 LINE",
"256 391 LINE",
"65 391 LINE",
"65 310 LINE"
);
},
{
closed = 1;
nodes = (
"535 310 LINE",
"535 391 LINE",
"344 391 LINE",
"344 310 LINE"
);
}
);
width = 600;
}
);
unicode = 00A5;
},
{
glyphname = plus;
lastChange = "2020-03-04 08:53:31 +0000";
layers = (
{
layerId = "50E3E9DC-0583-4D82-B33B-3FFFE976497D";
paths = (
{
closed = 1;
nodes = (
"520 318 LINE",
"520 382 LINE",
"80 382 LINE",
"80 318 LINE"
);
},
{
closed = 1;
nodes = (
"332 130 LINE",
"332 570 LINE",
"268 570 LINE",
"268 130 LINE"
);
}
);
width = 600;
},
{
layerId = "AE089E19-69A3-44A1-A715-1879E192462D";
paths = (
{
closed = 1;
nodes = (
"532 302 LINE",
"532 398 LINE",
"68 398 LINE",
"68 302 LINE"
);
},
{
closed = 1;
nodes = (
"348 118 LINE",
"348 582 LINE",
"252 582 LINE",
"252 118 LINE"
);
}
);
width = 600;
}
);
unicode = 002B;
},
{
glyphname = minus;
lastChange = "2020-03-04 08:53:31 +0000";
layers = (
{
layerId = "50E3E9DC-0583-4D82-B33B-3FFFE976497D";
paths = (
{
closed = 1;
nodes = (
"520 318 LINE",
"520 382 LINE",
"80 382 LINE",
"80 318 LINE"
);
}
);
width = 600;
},
{
layerId = "AE089E19-69A3-44A1-A715-1879E192462D";
paths = (
{
closed = 1;
nodes = (
"532 302 LINE",
"532 398 LINE",
"68 398 LINE",
"68 302 LINE"
);
}
);
width = 600;
}
);
unicode = 2212;
},
{
glyphname = multiply;
lastChange = "2020-03-04 08:53:31 +0000";
layers = (
{
layerId = "50E3E9DC-0583-4D82-B33B-3FFFE976497D";
paths = (
{
closed = 1;
nodes = (
"300 305 LINE",
"461 144 LINE",
"506 189 LINE",
"345 350 LINE",
"506 511 LINE",
"461 556 LINE",
"300 395 LINE",
"139 556 LINE",
"94 511 LINE",
"255 350 LINE",
"94 189 LINE",
"139 144 LINE"
);
}
);
width = 600;
},
{
layerId = "AE089E19-69A3-44A1-A715-1879E192462D";
paths = (
{
closed = 1;
nodes = (
"300 283 LINE",
"459 124 LINE",
"526 191 LINE",
"367 350 LINE",
"526 509 LINE",
"459 576 LINE",
"300 417 LINE",
"141 576 LINE",
"74 509 LINE",
"233 350 LINE",
"74 191 LINE",
"141 124 LINE"
);
}
);
width = 600;
}
);
unicode = 00D7;
},
{
glyphname = equal;
lastChange = "2020-03-04 08:53:31 +0000";
layers = (
{
layerId = "50E3E9DC-0583-4D82-B33B-3FFFE976497D";
paths = (
{
closed = 1;
nodes = (
"520 440 LINE",
"520 504 LINE",
"80 504 LINE",
"80 440 LINE"
);
},
{
closed = 1;
nodes = (
"520 196 LINE",
"520 260 LINE",
"80 260 LINE",
"80 196 LINE"
);
}
);
width = 600;
},
{
layerId = "AE089E19-69A3-44A1-A715-1879E192462D";
paths = (
{
closed = 1;
nodes = (
"532 428 LINE",
"532 523 LINE",
"68 523 LINE",
"68 428 LINE"
);
},
{
closed = 1;
nodes = (
"532 177 LINE",
"532 272 LINE",
"68 272 LINE",
"68 177 LINE"
);
}
);
width = 600;
}
);
unicode = 003D;
},
{
glyphname = notequal;
lastChange = "2020-03-04 08:53:31 +0000";
layers = (
{
background = {
paths = (
{
closed = 1;
nodes = (
"520 440 LINE",
"520 504 LINE",
"80 504 LINE",
"80 440 LINE"
);
},
{
closed = 1;
nodes = (
"520 196 LINE",
"520 260 LINE",
"80 260 LINE",
"80 196 LINE"
);
},
{
closed = 1;
nodes = (
"468 636 LINE",
"410 663 LINE",
"132 64 LINE",
"190 37 LINE"
);
}
);
};
layerId = "50E3E9DC-0583-4D82-B33B-3FFFE976497D";
paths = (
{
closed = 1;
nodes = (
"196 51 LINE",
"474 650 LINE",
"404 650 LINE",
"126 51 LINE"
);
},
{
closed = 1;
nodes = (
"520 196 LINE",
"520 260 LINE",
"80 260 LINE",
"80 196 LINE"
);
},
{
closed = 1;
nodes = (
"520 440 LINE",
"520 504 LINE",
"80 504 LINE",
"80 440 LINE"
);
}
);
width = 600;
},
{
layerId = "AE089E19-69A3-44A1-A715-1879E192462D";
paths = (
{
closed = 1;
nodes = (
"206 40 LINE",
"495 661 LINE",
"394 661 LINE",
"105 40 LINE"
);
},
{
closed = 1;
nodes = (
"532 177 LINE",
"532 272 LINE",
"68 272 LINE",
"68 177 LINE"
);
},
{
closed = 1;
nodes = (
"532 428 LINE",
"532 523 LINE",
"68 523 LINE",
"68 428 LINE"
);
}
);
width = 600;
}
);
unicode = 2260;
},
{
glyphname = greater;
lastChange = "2020-03-04 08:53:31 +0000";
layers = (
{
layerId = "50E3E9DC-0583-4D82-B33B-3FFFE976497D";
paths = (
{
closed = 1;
nodes = (
"221 82 LINE",
"487 350 LINE",
"221 616 LINE",
"125 616 LINE",
"389 353 LINE",
"389 347 LINE",
"125 82 LINE"
);
}
);
width = 600;
},
{
layerId = "AE089E19-69A3-44A1-A715-1879E192462D";
paths = (
{
closed = 1;
nodes = (
"240 77 LINE",
"506 351 LINE",
"240 622 LINE",
"98 622 LINE",
"362 354 LINE",
"362 346 LINE",
"98 77 LINE"
);
}
);
width = 600;
}
);
unicode = 003E;
},
{
glyphname = less;
lastChange = "2020-03-04 08:53:31 +0000";
layers = (
{
layerId = "50E3E9DC-0583-4D82-B33B-3FFFE976497D";
paths = (
{
closed = 1;
nodes = (
"475 82 LINE",
"211 347 LINE",
"211 353 LINE",
"475 616 LINE",
"379 616 LINE",
"113 350 LINE",
"379 82 LINE"
);
}
);
width = 600;
},
{
layerId = "AE089E19-69A3-44A1-A715-1879E192462D";
paths = (
{
closed = 1;
nodes = (
"502 77 LINE",
"238 346 LINE",
"238 354 LINE",
"502 622 LINE",
"360 622 LINE",
"94 351 LINE",
"360 77 LINE"
);
}
);
width = 600;
}
);
unicode = 003C;
},
{
glyphname = greaterequal;
lastChange = "2020-03-04 08:53:31 +0000";
layers = (
{
components = (
{
name = minus;
transform = "{1, 0, 0, 1, 0, -318}";
}
);
layerId = "50E3E9DC-0583-4D82-B33B-3FFFE976497D";
paths = (
{
closed = 1;
nodes = (
"222 130 LINE",
"489 320 LINE",
"222 508 LINE",
"111 508 LINE",
"367 323 LINE",
"367 317 LINE",
"111 130 LINE"
);
}
);
width = 600;
},
{
components = (
{
alignment = -1;
name = minus;
transform = "{1, 0, 0, 1, 0, -302}";
}
);
layerId = "AE089E19-69A3-44A1-A715-1879E192462D";
paths = (
{
closed = 1;
nodes = (
"254 157 LINE",
"507 352 LINE",
"254 544 LINE",
"93 544 LINE",
"354 355 LINE",
"354 347 LINE",
"93 157 LINE"
);
}
);
width = 600;
}
);
unicode = 2265;
},
